<?xml version="1.0" encoding="utf-8" standalone="no"?>
<!DOCTYPE svg PUBLIC "-//W3C//DTD SVG 1.1//EN"
  "http://www.w3.org/Graphics/SVG/1.1/DTD/svg11.dtd">
<svg xmlns:xlink="http://www.w3.org/1999/xlink" width="604.167106pt" height="230.932437pt" viewBox="0 0 604.167106 230.932437" xmlns="http://www.w3.org/2000/svg" version="1.1">
 <metadata>
  <rdf:RDF xmlns:dc="http://purl.org/dc/elements/1.1/" xmlns:cc="http://creativecommons.org/ns#" xmlns:rdf="http://www.w3.org/1999/02/22-rdf-syntax-ns#">
   <cc:Work>
    <dc:type rdf:resource="http://purl.org/dc/dcmitype/StillImage"/>
    <dc:date>2026-05-02T12:56:20.330177</dc:date>
    <dc:format>image/svg+xml</dc:format>
    <dc:creator>
     <cc:Agent>
      <dc:title>Matplotlib v3.10.8, https://matplotlib.org/</dc:title>
     </cc:Agent>
    </dc:creator>
   </cc:Work>
  </rdf:RDF>
 </metadata>
 <defs>
  <style type="text/css">*{stroke-linejoin: round; stroke-linecap: butt}</style>
 </defs>
 <g id="figure_1">
  <g id="patch_1">
   <path d="M 0 230.932437 
L 604.167106 230.932437 
L 604.167106 -0 
L 0 -0 
L 0 230.932437 
z
" style="fill: none"/>
  </g>
  <g id="axes_1">
   <g id="patch_2">
    <path d="M 38.967106 186.8145 
L 596.967106 186.8145 
L 596.967106 20.4945 
L 38.967106 20.4945 
L 38.967106 186.8145 
z
" style="fill: none"/>
   </g>
   <g id="patch_3">
    <path d="M 64.330742 186.8145 
L 74.527179 186.8145 
L 74.527179 99.311274 
L 64.330742 99.311274 
z
" clip-path="url(#p93271e2171)" style="fill: #1f77b4"/>
   </g>
   <g id="patch_4">
    <path d="M 77.076288 186.8145 
L 87.272725 186.8145 
L 87.272725 139.469135 
L 77.076288 139.469135 
z
" clip-path="url(#p93271e2171)" style="fill: #1f77b4"/>
   </g>
   <g id="patch_5">
    <path d="M 89.821834 186.8145 
L 100.018271 186.8145 
L 100.018271 148.172565 
L 89.821834 148.172565 
z
" clip-path="url(#p93271e2171)" style="fill: #1f77b4"/>
   </g>
   <g id="patch_6">
    <path d="M 102.56738 186.8145 
L 112.763817 186.8145 
L 112.763817 109.362548 
L 102.56738 109.362548 
z
" clip-path="url(#p93271e2171)" style="fill: #1f77b4"/>
   </g>
   <g id="patch_7">
    <path d="M 115.312926 186.8145 
L 125.509363 186.8145 
L 125.509363 125.498371 
L 115.312926 125.498371 
z
" clip-path="url(#p93271e2171)" style="fill: #1f77b4"/>
   </g>
   <g id="patch_8">
    <path d="M 128.058472 186.8145 
L 138.254909 186.8145 
L 138.254909 148.088524 
L 128.058472 148.088524 
z
" clip-path="url(#p93271e2171)" style="fill: #1f77b4"/>
   </g>
   <g id="patch_9">
    <path d="M 140.804018 186.8145 
L 151.000455 186.8145 
L 151.000455 147.68897 
L 140.804018 147.68897 
z
" clip-path="url(#p93271e2171)" style="fill: #1f77b4"/>
   </g>
   <g id="patch_10">
    <path d="M 153.549564 186.8145 
L 163.746001 186.8145 
L 163.746001 136.052787 
L 153.549564 136.052787 
z
" clip-path="url(#p93271e2171)" style="fill: #1f77b4"/>
   </g>
   <g id="patch_11">
    <path d="M 166.29511 186.8145 
L 176.491547 186.8145 
L 176.491547 125.498371 
L 166.29511 125.498371 
z
" clip-path="url(#p93271e2171)" style="fill: #1f77b4"/>
   </g>
   <g id="patch_12">
    <path d="M 179.040656 186.8145 
L 189.237092 186.8145 
L 189.237092 174.551274 
L 179.040656 174.551274 
z
" clip-path="url(#p93271e2171)" style="fill: #1f77b4"/>
   </g>
   <g id="patch_13">
    <path d="M 191.786202 186.8145 
L 201.982638 186.8145 
L 201.982638 138.003634 
L 191.786202 138.003634 
z
" clip-path="url(#p93271e2171)" style="fill: #1f77b4"/>
   </g>
   <g id="patch_14">
    <path d="M 204.531748 186.8145 
L 214.728184 186.8145 
L 214.728184 186.8145 
L 204.531748 186.8145 
z
" clip-path="url(#p93271e2171)" style="fill: #1f77b4"/>
   </g>
   <g id="patch_15">
    <path d="M 217.277293 186.8145 
L 227.47373 186.8145 
L 227.47373 186.8145 
L 217.277293 186.8145 
z
" clip-path="url(#p93271e2171)" style="fill: #1f77b4"/>
   </g>
   <g id="patch_16">
    <path d="M 230.022839 186.8145 
L 240.219276 186.8145 
L 240.219276 126.291252 
L 230.022839 126.291252 
z
" clip-path="url(#p93271e2171)" style="fill: #1f77b4"/>
   </g>
   <g id="patch_17">
    <path d="M 242.768385 186.8145 
L 252.964822 186.8145 
L 252.964822 135.717726 
L 242.768385 135.717726 
z
" clip-path="url(#p93271e2171)" style="fill: #1f77b4"/>
   </g>
   <g id="patch_18">
    <path d="M 255.513931 186.8145 
L 265.710368 186.8145 
L 265.710368 94.840306 
L 255.513931 94.840306 
z
" clip-path="url(#p93271e2171)" style="fill: #1f77b4"/>
   </g>
   <g id="patch_19">
    <path d="M 268.259477 186.8145 
L 278.455914 186.8145 
L 278.455914 110.169339 
L 268.259477 110.169339 
z
" clip-path="url(#p93271e2171)" style="fill: #1f77b4"/>
   </g>
   <g id="patch_20">
    <path d="M 281.005023 186.8145 
L 291.20146 186.8145 
L 291.20146 125.498371 
L 281.005023 125.498371 
z
" clip-path="url(#p93271e2171)" style="fill: #1f77b4"/>
   </g>
   <g id="patch_21">
    <path d="M 293.750569 186.8145 
L 303.947006 186.8145 
L 303.947006 141.634194 
L 293.750569 141.634194 
z
" clip-path="url(#p93271e2171)" style="fill: #1f77b4"/>
   </g>
   <g id="patch_22">
    <path d="M 306.496115 186.8145 
L 316.692552 186.8145 
L 316.692552 110.345534 
L 306.496115 110.345534 
z
" clip-path="url(#p93271e2171)" style="fill: #1f77b4"/>
   </g>
   <g id="patch_23">
    <path d="M 319.241661 186.8145 
L 329.438097 186.8145 
L 329.438097 178.500449 
L 319.241661 178.500449 
z
" clip-path="url(#p93271e2171)" style="fill: #1f77b4"/>
   </g>
   <g id="patch_24">
    <path d="M 331.987207 186.8145 
L 342.183643 186.8145 
L 342.183643 136.276597 
L 331.987207 136.276597 
z
" clip-path="url(#p93271e2171)" style="fill: #1f77b4"/>
   </g>
   <g id="patch_25">
    <path d="M 344.732753 186.8145 
L 354.929189 186.8145 
L 354.929189 128.602985 
L 344.732753 128.602985 
z
" clip-path="url(#p93271e2171)" style="fill: #1f77b4"/>
   </g>
   <g id="patch_26">
    <path d="M 357.478298 186.8145 
L 367.674735 186.8145 
L 367.674735 165.985739 
L 357.478298 165.985739 
z
" clip-path="url(#p93271e2171)" style="fill: #1f77b4"/>
   </g>
   <g id="patch_27">
    <path d="M 370.223844 186.8145 
L 380.420281 186.8145 
L 380.420281 119.155323 
L 370.223844 119.155323 
z
" clip-path="url(#p93271e2171)" style="fill: #1f77b4"/>
   </g>
   <g id="patch_28">
    <path d="M 382.96939 186.8145 
L 393.165827 186.8145 
L 393.165827 133.557062 
L 382.96939 133.557062 
z
" clip-path="url(#p93271e2171)" style="fill: #1f77b4"/>
   </g>
   <g id="patch_29">
    <path d="M 395.714936 186.8145 
L 405.911373 186.8145 
L 405.911373 129.136591 
L 395.714936 129.136591 
z
" clip-path="url(#p93271e2171)" style="fill: #1f77b4"/>
   </g>
   <g id="patch_30">
    <path d="M 408.460482 186.8145 
L 418.656919 186.8145 
L 418.656919 136.318864 
L 408.460482 136.318864 
z
" clip-path="url(#p93271e2171)" style="fill: #1f77b4"/>
   </g>
   <g id="patch_31">
    <path d="M 421.206028 186.8145 
L 431.402465 186.8145 
L 431.402465 123.045726 
L 421.206028 123.045726 
z
" clip-path="url(#p93271e2171)" style="fill: #1f77b4"/>
   </g>
   <g id="patch_32">
    <path d="M 433.951574 186.8145 
L 444.148011 186.8145 
L 444.148011 125.498371 
L 433.951574 125.498371 
z
" clip-path="url(#p93271e2171)" style="fill: #1f77b4"/>
   </g>
   <g id="patch_33">
    <path d="M 446.69712 186.8145 
L 456.893557 186.8145 
L 456.893557 149.55316 
L 446.69712 149.55316 
z
" clip-path="url(#p93271e2171)" style="fill: #1f77b4"/>
   </g>
   <g id="patch_34">
    <path d="M 459.442666 186.8145 
L 469.639102 186.8145 
L 469.639102 138.068177 
L 459.442666 138.068177 
z
" clip-path="url(#p93271e2171)" style="fill: #1f77b4"/>
   </g>
   <g id="patch_35">
    <path d="M 472.188212 186.8145 
L 482.384648 186.8145 
L 482.384648 126.930991 
L 472.188212 126.930991 
z
" clip-path="url(#p93271e2171)" style="fill: #1f77b4"/>
   </g>
   <g id="patch_36">
    <path d="M 484.933758 186.8145 
L 495.130194 186.8145 
L 495.130194 155.151253 
L 484.933758 155.151253 
z
" clip-path="url(#p93271e2171)" style="fill: #1f77b4"/>
   </g>
   <g id="patch_37">
    <path d="M 497.679303 186.8145 
L 507.87574 186.8145 
L 507.87574 143.585346 
L 497.679303 143.585346 
z
" clip-path="url(#p93271e2171)" style="fill: #1f77b4"/>
   </g>
   <g id="patch_38">
    <path d="M 510.424849 186.8145 
L 520.621286 186.8145 
L 520.621286 142.792664 
L 510.424849 142.792664 
z
" clip-path="url(#p93271e2171)" style="fill: #1f77b4"/>
   </g>
   <g id="patch_39">
    <path d="M 523.170395 186.8145 
L 533.366832 186.8145 
L 533.366832 147.599753 
L 523.170395 147.599753 
z
" clip-path="url(#p93271e2171)" style="fill: #1f77b4"/>
   </g>
   <g id="patch_40">
    <path d="M 535.915941 186.8145 
L 546.112378 186.8145 
L 546.112378 149.715666 
L 535.915941 149.715666 
z
" clip-path="url(#p93271e2171)" style="fill: #1f77b4"/>
   </g>
   <g id="patch_41">
    <path d="M 548.661487 186.8145 
L 558.857924 186.8145 
L 558.857924 125.498371 
L 548.661487 125.498371 
z
" clip-path="url(#p93271e2171)" style="fill: #1f77b4"/>
   </g>
   <g id="patch_42">
    <path d="M 561.407033 186.8145 
L 571.60347 186.8145 
L 571.60347 124.37579 
L 561.407033 124.37579 
z
" clip-path="url(#p93271e2171)" style="fill: #1f77b4"/>
   </g>
   <g id="patch_43">
    <path d="M 64.330742 99.311274 
L 74.527179 99.311274 
L 74.527179 65.459661 
L 64.330742 65.459661 
z
" clip-path="url(#p93271e2171)" style="fill: #ff7f0e"/>
   </g>
   <g id="patch_44">
    <path d="M 77.076288 139.469135 
L 87.272725 139.469135 
L 87.272725 131.319522 
L 77.076288 131.319522 
z
" clip-path="url(#p93271e2171)" style="fill: #ff7f0e"/>
   </g>
   <g id="patch_45">
    <path d="M 89.821834 148.172565 
L 100.018271 148.172565 
L 100.018271 141.945145 
L 89.821834 141.945145 
z
" clip-path="url(#p93271e2171)" style="fill: #ff7f0e"/>
   </g>
   <g id="patch_46">
    <path d="M 102.56738 109.362548 
L 112.763817 109.362548 
L 112.763817 107.748965 
L 102.56738 107.748965 
z
" clip-path="url(#p93271e2171)" style="fill: #ff7f0e"/>
   </g>
   <g id="patch_47">
    <path d="M 115.312926 125.498371 
L 125.509363 125.498371 
L 125.509363 64.182242 
L 115.312926 64.182242 
z
" clip-path="url(#p93271e2171)" style="fill: #ff7f0e"/>
   </g>
   <g id="patch_48">
    <path d="M 128.058472 148.088524 
L 138.254909 148.088524 
L 138.254909 131.9527 
L 128.058472 131.9527 
z
" clip-path="url(#p93271e2171)" style="fill: #ff7f0e"/>
   </g>
   <g id="patch_49">
    <path d="M 140.804018 147.68897 
L 151.000455 147.68897 
L 151.000455 139.805468 
L 140.804018 139.805468 
z
" clip-path="url(#p93271e2171)" style="fill: #ff7f0e"/>
   </g>
   <g id="patch_50">
    <path d="M 153.549564 136.052787 
L 163.746001 136.052787 
L 163.746001 126.754849 
L 153.549564 126.754849 
z
" clip-path="url(#p93271e2171)" style="fill: #ff7f0e"/>
   </g>
   <g id="patch_51">
    <path d="M 166.29511 125.498371 
L 176.491547 125.498371 
L 176.491547 125.498371 
L 166.29511 125.498371 
z
" clip-path="url(#p93271e2171)" style="fill: #ff7f0e"/>
   </g>
   <g id="patch_52">
    <path d="M 179.040656 174.551274 
L 189.237092 174.551274 
L 189.237092 174.551274 
L 179.040656 174.551274 
z
" clip-path="url(#p93271e2171)" style="fill: #ff7f0e"/>
   </g>
   <g id="patch_53">
    <path d="M 191.786202 138.003634 
L 201.982638 138.003634 
L 201.982638 130.002955 
L 191.786202 130.002955 
z
" clip-path="url(#p93271e2171)" style="fill: #ff7f0e"/>
   </g>
   <g id="patch_54">
    <path d="M 204.531748 186.8145 
L 214.728184 186.8145 
L 214.728184 186.8145 
L 204.531748 186.8145 
z
" clip-path="url(#p93271e2171)" style="fill: #ff7f0e"/>
   </g>
   <g id="patch_55">
    <path d="M 217.277293 186.8145 
L 227.47373 186.8145 
L 227.47373 186.8145 
L 217.277293 186.8145 
z
" clip-path="url(#p93271e2171)" style="fill: #ff7f0e"/>
   </g>
   <g id="patch_56">
    <path d="M 230.022839 126.291252 
L 240.219276 126.291252 
L 240.219276 94.840306 
L 230.022839 94.840306 
z
" clip-path="url(#p93271e2171)" style="fill: #ff7f0e"/>
   </g>
   <g id="patch_57">
    <path d="M 242.768385 135.717726 
L 252.964822 135.717726 
L 252.964822 135.717726 
L 242.768385 135.717726 
z
" clip-path="url(#p93271e2171)" style="fill: #ff7f0e"/>
   </g>
   <g id="patch_58">
    <path d="M 255.513931 94.840306 
L 265.710368 94.840306 
L 265.710368 94.840306 
L 255.513931 94.840306 
z
" clip-path="url(#p93271e2171)" style="fill: #ff7f0e"/>
   </g>
   <g id="patch_59">
    <path d="M 268.259477 110.169339 
L 278.455914 110.169339 
L 278.455914 110.169339 
L 268.259477 110.169339 
z
" clip-path="url(#p93271e2171)" style="fill: #ff7f0e"/>
   </g>
   <g id="patch_60">
    <path d="M 281.005023 125.498371 
L 291.20146 125.498371 
L 291.20146 94.840306 
L 281.005023 94.840306 
z
" clip-path="url(#p93271e2171)" style="fill: #ff7f0e"/>
   </g>
   <g id="patch_61">
    <path d="M 293.750569 141.634194 
L 303.947006 141.634194 
L 303.947006 130.339118 
L 293.750569 130.339118 
z
" clip-path="url(#p93271e2171)" style="fill: #ff7f0e"/>
   </g>
   <g id="patch_62">
    <path d="M 306.496115 110.345534 
L 316.692552 110.345534 
L 316.692552 100.302375 
L 306.496115 100.302375 
z
" clip-path="url(#p93271e2171)" style="fill: #ff7f0e"/>
   </g>
   <g id="patch_63">
    <path d="M 319.241661 178.500449 
L 329.438097 178.500449 
L 329.438097 175.382679 
L 319.241661 175.382679 
z
" clip-path="url(#p93271e2171)" style="fill: #ff7f0e"/>
   </g>
   <g id="patch_64">
    <path d="M 331.987207 136.276597 
L 342.183643 136.276597 
L 342.183643 125.737887 
L 331.987207 125.737887 
z
" clip-path="url(#p93271e2171)" style="fill: #ff7f0e"/>
   </g>
   <g id="patch_65">
    <path d="M 344.732753 128.602985 
L 354.929189 128.602985 
L 354.929189 106.870686 
L 344.732753 106.870686 
z
" clip-path="url(#p93271e2171)" style="fill: #ff7f0e"/>
   </g>
   <g id="patch_66">
    <path d="M 357.478298 165.985739 
L 367.674735 165.985739 
L 367.674735 165.049615 
L 357.478298 165.049615 
z
" clip-path="url(#p93271e2171)" style="fill: #ff7f0e"/>
   </g>
   <g id="patch_67">
    <path d="M 370.223844 119.155323 
L 380.420281 119.155323 
L 380.420281 116.77668 
L 370.223844 116.77668 
z
" clip-path="url(#p93271e2171)" style="fill: #ff7f0e"/>
   </g>
   <g id="patch_68">
    <path d="M 382.96939 133.557062 
L 393.165827 133.557062 
L 393.165827 123.512896 
L 382.96939 123.512896 
z
" clip-path="url(#p93271e2171)" style="fill: #ff7f0e"/>
   </g>
   <g id="patch_69">
    <path d="M 395.714936 129.136591 
L 405.911373 129.136591 
L 405.911373 127.390245 
L 395.714936 127.390245 
z
" clip-path="url(#p93271e2171)" style="fill: #ff7f0e"/>
   </g>
   <g id="patch_70">
    <path d="M 408.460482 136.318864 
L 418.656919 136.318864 
L 418.656919 136.318864 
L 408.460482 136.318864 
z
" clip-path="url(#p93271e2171)" style="fill: #ff7f0e"/>
   </g>
   <g id="patch_71">
    <path d="M 421.206028 123.045726 
L 431.402465 123.045726 
L 431.402465 116.914113 
L 421.206028 116.914113 
z
" clip-path="url(#p93271e2171)" style="fill: #ff7f0e"/>
   </g>
   <g id="patch_72">
    <path d="M 433.951574 125.498371 
L 444.148011 125.498371 
L 444.148011 125.498371 
L 433.951574 125.498371 
z
" clip-path="url(#p93271e2171)" style="fill: #ff7f0e"/>
   </g>
   <g id="patch_73">
    <path d="M 446.69712 149.55316 
L 456.893557 149.55316 
L 456.893557 137.761597 
L 446.69712 137.761597 
z
" clip-path="url(#p93271e2171)" style="fill: #ff7f0e"/>
   </g>
   <g id="patch_74">
    <path d="M 459.442666 138.068177 
L 469.639102 138.068177 
L 469.639102 130.403661 
L 459.442666 130.403661 
z
" clip-path="url(#p93271e2171)" style="fill: #ff7f0e"/>
   </g>
   <g id="patch_75">
    <path d="M 472.188212 126.930991 
L 482.384648 126.930991 
L 482.384648 126.930991 
L 472.188212 126.930991 
z
" clip-path="url(#p93271e2171)" style="fill: #ff7f0e"/>
   </g>
   <g id="patch_76">
    <path d="M 484.933758 155.151253 
L 495.130194 155.151253 
L 495.130194 154.313601 
L 484.933758 154.313601 
z
" clip-path="url(#p93271e2171)" style="fill: #ff7f0e"/>
   </g>
   <g id="patch_77">
    <path d="M 497.679303 143.585346 
L 507.87574 143.585346 
L 507.87574 135.674967 
L 497.679303 135.674967 
z
" clip-path="url(#p93271e2171)" style="fill: #ff7f0e"/>
   </g>
   <g id="patch_78">
    <path d="M 510.424849 142.792664 
L 520.621286 142.792664 
L 520.621286 133.359413 
L 510.424849 133.359413 
z
" clip-path="url(#p93271e2171)" style="fill: #ff7f0e"/>
   </g>
   <g id="patch_79">
    <path d="M 523.170395 147.599753 
L 533.366832 147.599753 
L 533.366832 139.205283 
L 523.170395 139.205283 
z
" clip-path="url(#p93271e2171)" style="fill: #ff7f0e"/>
   </g>
   <g id="patch_80">
    <path d="M 535.915941 149.715666 
L 546.112378 149.715666 
L 546.112378 146.881727 
L 535.915941 146.881727 
z
" clip-path="url(#p93271e2171)" style="fill: #ff7f0e"/>
   </g>
   <g id="patch_81">
    <path d="M 548.661487 125.498371 
L 558.857924 125.498371 
L 558.857924 115.279016 
L 548.661487 115.279016 
z
" clip-path="url(#p93271e2171)" style="fill: #ff7f0e"/>
   </g>
   <g id="patch_82">
    <path d="M 561.407033 124.37579 
L 571.60347 124.37579 
L 571.60347 123.446758 
L 561.407033 123.446758 
z
" clip-path="url(#p93271e2171)" style="fill: #ff7f0e"/>
   </g>
   <g id="patch_83">
    <path d="M 64.330742 65.459661 
L 74.527179 65.459661 
L 74.527179 65.459661 
L 64.330742 65.459661 
z
" clip-path="url(#p93271e2171)" style="fill: #2ca02c"/>
   </g>
   <g id="patch_84">
    <path d="M 77.076288 131.319522 
L 87.272725 131.319522 
L 87.272725 110.363377 
L 77.076288 110.363377 
z
" clip-path="url(#p93271e2171)" style="fill: #2ca02c"/>
   </g>
   <g id="patch_85">
    <path d="M 89.821834 141.945145 
L 100.018271 141.945145 
L 100.018271 140.029016 
L 89.821834 140.029016 
z
" clip-path="url(#p93271e2171)" style="fill: #2ca02c"/>
   </g>
   <g id="patch_86">
    <path d="M 102.56738 107.748965 
L 112.763817 107.748965 
L 112.763817 107.748965 
L 102.56738 107.748965 
z
" clip-path="url(#p93271e2171)" style="fill: #2ca02c"/>
   </g>
   <g id="patch_87">
    <path d="M 115.312926 64.182242 
L 125.509363 64.182242 
L 125.509363 64.182242 
L 115.312926 64.182242 
z
" clip-path="url(#p93271e2171)" style="fill: #2ca02c"/>
   </g>
   <g id="patch_88">
    <path d="M 128.058472 131.9527 
L 138.254909 131.9527 
L 138.254909 123.884789 
L 128.058472 123.884789 
z
" clip-path="url(#p93271e2171)" style="fill: #2ca02c"/>
   </g>
   <g id="patch_89">
    <path d="M 140.804018 139.805468 
L 151.000455 139.805468 
L 151.000455 137.177634 
L 140.804018 137.177634 
z
" clip-path="url(#p93271e2171)" style="fill: #2ca02c"/>
   </g>
   <g id="patch_90">
    <path d="M 153.549564 126.754849 
L 163.746001 126.754849 
L 163.746001 120.053633 
L 153.549564 120.053633 
z
" clip-path="url(#p93271e2171)" style="fill: #2ca02c"/>
   </g>
   <g id="patch_91">
    <path d="M 166.29511 125.498371 
L 176.491547 125.498371 
L 176.491547 125.498371 
L 166.29511 125.498371 
z
" clip-path="url(#p93271e2171)" style="fill: #2ca02c"/>
   </g>
   <g id="patch_92">
    <path d="M 179.040656 174.551274 
L 189.237092 174.551274 
L 189.237092 137.761597 
L 179.040656 137.761597 
z
" clip-path="url(#p93271e2171)" style="fill: #2ca02c"/>
   </g>
   <g id="patch_93">
    <path d="M 191.786202 130.002955 
L 201.982638 130.002955 
L 201.982638 125.968999 
L 191.786202 125.968999 
z
" clip-path="url(#p93271e2171)" style="fill: #2ca02c"/>
   </g>
   <g id="patch_94">
    <path d="M 204.531748 186.8145 
L 214.728184 186.8145 
L 214.728184 86.479016 
L 204.531748 86.479016 
z
" clip-path="url(#p93271e2171)" style="fill: #2ca02c"/>
   </g>
   <g id="patch_95">
    <path d="M 217.277293 186.8145 
L 227.47373 186.8145 
L 227.47373 86.479016 
L 217.277293 86.479016 
z
" clip-path="url(#p93271e2171)" style="fill: #2ca02c"/>
   </g>
   <g id="patch_96">
    <path d="M 230.022839 94.840306 
L 240.219276 94.840306 
L 240.219276 91.668783 
L 230.022839 91.668783 
z
" clip-path="url(#p93271e2171)" style="fill: #2ca02c"/>
   </g>
   <g id="patch_97">
    <path d="M 242.768385 135.717726 
L 252.964822 135.717726 
L 252.964822 135.717726 
L 242.768385 135.717726 
z
" clip-path="url(#p93271e2171)" style="fill: #2ca02c"/>
   </g>
   <g id="patch_98">
    <path d="M 255.513931 94.840306 
L 265.710368 94.840306 
L 265.710368 94.840306 
L 255.513931 94.840306 
z
" clip-path="url(#p93271e2171)" style="fill: #2ca02c"/>
   </g>
   <g id="patch_99">
    <path d="M 268.259477 110.169339 
L 278.455914 110.169339 
L 278.455914 94.840306 
L 268.259477 94.840306 
z
" clip-path="url(#p93271e2171)" style="fill: #2ca02c"/>
   </g>
   <g id="patch_100">
    <path d="M 281.005023 94.840306 
L 291.20146 94.840306 
L 291.20146 94.840306 
L 281.005023 94.840306 
z
" clip-path="url(#p93271e2171)" style="fill: #2ca02c"/>
   </g>
   <g id="patch_101">
    <path d="M 293.750569 130.339118 
L 303.947006 130.339118 
L 303.947006 130.339118 
L 293.750569 130.339118 
z
" clip-path="url(#p93271e2171)" style="fill: #2ca02c"/>
   </g>
   <g id="patch_102">
    <path d="M 306.496115 100.302375 
L 316.692552 100.302375 
L 316.692552 97.483243 
L 306.496115 97.483243 
z
" clip-path="url(#p93271e2171)" style="fill: #2ca02c"/>
   </g>
   <g id="patch_103">
    <path d="M 319.241661 175.382679 
L 329.438097 175.382679 
L 329.438097 133.812422 
L 319.241661 133.812422 
z
" clip-path="url(#p93271e2171)" style="fill: #2ca02c"/>
   </g>
   <g id="patch_104">
    <path d="M 331.987207 125.737887 
L 342.183643 125.737887 
L 342.183643 124.061274 
L 331.987207 124.061274 
z
" clip-path="url(#p93271e2171)" style="fill: #2ca02c"/>
   </g>
   <g id="patch_105">
    <path d="M 344.732753 106.870686 
L 354.929189 106.870686 
L 354.929189 104.154149 
L 344.732753 104.154149 
z
" clip-path="url(#p93271e2171)" style="fill: #2ca02c"/>
   </g>
   <g id="patch_106">
    <path d="M 357.478298 165.049615 
L 367.674735 165.049615 
L 367.674735 137.980026 
L 357.478298 137.980026 
z
" clip-path="url(#p93271e2171)" style="fill: #2ca02c"/>
   </g>
   <g id="patch_107">
    <path d="M 370.223844 116.77668 
L 380.420281 116.77668 
L 380.420281 103.826291 
L 370.223844 103.826291 
z
" clip-path="url(#p93271e2171)" style="fill: #2ca02c"/>
   </g>
   <g id="patch_108">
    <path d="M 382.96939 123.512896 
L 393.165827 123.512896 
L 393.165827 103.366168 
L 382.96939 103.366168 
z
" clip-path="url(#p93271e2171)" style="fill: #2ca02c"/>
   </g>
   <g id="patch_109">
    <path d="M 395.714936 127.390245 
L 405.911373 127.390245 
L 405.911373 102.165255 
L 395.714936 102.165255 
z
" clip-path="url(#p93271e2171)" style="fill: #2ca02c"/>
   </g>
   <g id="patch_110">
    <path d="M 408.460482 136.318864 
L 418.656919 136.318864 
L 418.656919 136.318864 
L 408.460482 136.318864 
z
" clip-path="url(#p93271e2171)" style="fill: #2ca02c"/>
   </g>
   <g id="patch_111">
    <path d="M 421.206028 116.914113 
L 431.402465 116.914113 
L 431.402465 111.395661 
L 421.206028 111.395661 
z
" clip-path="url(#p93271e2171)" style="fill: #2ca02c"/>
   </g>
   <g id="patch_112">
    <path d="M 433.951574 125.498371 
L 444.148011 125.498371 
L 444.148011 105.059661 
L 433.951574 105.059661 
z
" clip-path="url(#p93271e2171)" style="fill: #2ca02c"/>
   </g>
   <g id="patch_113">
    <path d="M 446.69712 137.761597 
L 456.893557 137.761597 
L 456.893557 133.516634 
L 446.69712 133.516634 
z
" clip-path="url(#p93271e2171)" style="fill: #2ca02c"/>
   </g>
   <g id="patch_114">
    <path d="M 459.442666 130.403661 
L 469.639102 130.403661 
L 469.639102 122.739145 
L 459.442666 122.739145 
z
" clip-path="url(#p93271e2171)" style="fill: #2ca02c"/>
   </g>
   <g id="patch_115">
    <path d="M 472.188212 126.930991 
L 482.384648 126.930991 
L 482.384648 116.04308 
L 472.188212 116.04308 
z
" clip-path="url(#p93271e2171)" style="fill: #2ca02c"/>
   </g>
   <g id="patch_116">
    <path d="M 484.933758 154.313601 
L 495.130194 154.313601 
L 495.130194 108.5778 
L 484.933758 108.5778 
z
" clip-path="url(#p93271e2171)" style="fill: #2ca02c"/>
   </g>
   <g id="patch_117">
    <path d="M 497.679303 135.674967 
L 507.87574 135.674967 
L 507.87574 110.532789 
L 497.679303 110.532789 
z
" clip-path="url(#p93271e2171)" style="fill: #2ca02c"/>
   </g>
   <g id="patch_118">
    <path d="M 510.424849 133.359413 
L 520.621286 133.359413 
L 520.621286 112.134599 
L 510.424849 112.134599 
z
" clip-path="url(#p93271e2171)" style="fill: #2ca02c"/>
   </g>
   <g id="patch_119">
    <path d="M 523.170395 139.205283 
L 533.366832 139.205283 
L 533.366832 125.052288 
L 523.170395 125.052288 
z
" clip-path="url(#p93271e2171)" style="fill: #2ca02c"/>
   </g>
   <g id="patch_120">
    <path d="M 535.915941 146.881727 
L 546.112378 146.881727 
L 546.112378 125.283679 
L 535.915941 125.283679 
z
" clip-path="url(#p93271e2171)" style="fill: #2ca02c"/>
   </g>
   <g id="patch_121">
    <path d="M 548.661487 115.279016 
L 558.857924 115.279016 
L 558.857924 115.279016 
L 548.661487 115.279016 
z
" clip-path="url(#p93271e2171)" style="fill: #2ca02c"/>
   </g>
   <g id="patch_122">
    <path d="M 561.407033 123.446758 
L 571.60347 123.446758 
L 571.60347 120.659661 
L 561.407033 120.659661 
z
" clip-path="url(#p93271e2171)" style="fill: #2ca02c"/>
   </g>
   <g id="patch_123">
    <path d="M 64.330742 65.459661 
L 74.527179 65.459661 
L 74.527179 28.4145 
L 64.330742 28.4145 
z
" clip-path="url(#p93271e2171)" style="fill: #d62728"/>
   </g>
   <g id="patch_124">
    <path d="M 77.076288 110.363377 
L 87.272725 110.363377 
L 87.272725 38.569175 
L 77.076288 38.569175 
z
" clip-path="url(#p93271e2171)" style="fill: #d62728"/>
   </g>
   <g id="patch_125">
    <path d="M 89.821834 140.029016 
L 100.018271 140.029016 
L 100.018271 38.95321 
L 89.821834 38.95321 
z
" clip-path="url(#p93271e2171)" style="fill: #d62728"/>
   </g>
   <g id="patch_126">
    <path d="M 102.56738 107.748965 
L 112.763817 107.748965 
L 112.763817 60.955077 
L 102.56738 60.955077 
z
" clip-path="url(#p93271e2171)" style="fill: #d62728"/>
   </g>
   <g id="patch_127">
    <path d="M 115.312926 64.182242 
L 125.509363 64.182242 
L 125.509363 64.182242 
L 115.312926 64.182242 
z
" clip-path="url(#p93271e2171)" style="fill: #d62728"/>
   </g>
   <g id="patch_128">
    <path d="M 128.058472 123.884789 
L 138.254909 123.884789 
L 138.254909 69.291919 
L 128.058472 69.291919 
z
" clip-path="url(#p93271e2171)" style="fill: #d62728"/>
   </g>
   <g id="patch_129">
    <path d="M 140.804018 137.177634 
L 151.000455 137.177634 
L 151.000455 74.401597 
L 140.804018 74.401597 
z
" clip-path="url(#p93271e2171)" style="fill: #d62728"/>
   </g>
   <g id="patch_130">
    <path d="M 153.549564 120.053633 
L 163.746001 120.053633 
L 163.746001 75.029836 
L 153.549564 75.029836 
z
" clip-path="url(#p93271e2171)" style="fill: #d62728"/>
   </g>
   <g id="patch_131">
    <path d="M 166.29511 125.498371 
L 176.491547 125.498371 
L 176.491547 79.511274 
L 166.29511 79.511274 
z
" clip-path="url(#p93271e2171)" style="fill: #d62728"/>
   </g>
   <g id="patch_132">
    <path d="M 179.040656 137.761597 
L 189.237092 137.761597 
L 189.237092 82.577081 
L 179.040656 82.577081 
z
" clip-path="url(#p93271e2171)" style="fill: #d62728"/>
   </g>
   <g id="patch_133">
    <path d="M 191.786202 125.968999 
L 201.982638 125.968999 
L 201.982638 84.688184 
L 191.786202 84.688184 
z
" clip-path="url(#p93271e2171)" style="fill: #d62728"/>
   </g>
   <g id="patch_134">
    <path d="M 204.531748 86.479016 
L 214.728184 86.479016 
L 214.728184 86.479016 
L 204.531748 86.479016 
z
" clip-path="url(#p93271e2171)" style="fill: #d62728"/>
   </g>
   <g id="patch_135">
    <path d="M 217.277293 86.479016 
L 227.47373 86.479016 
L 227.47373 86.479016 
L 217.277293 86.479016 
z
" clip-path="url(#p93271e2171)" style="fill: #d62728"/>
   </g>
   <g id="patch_136">
    <path d="M 230.022839 91.668783 
L 240.219276 91.668783 
L 240.219276 91.404489 
L 230.022839 91.404489 
z
" clip-path="url(#p93271e2171)" style="fill: #d62728"/>
   </g>
   <g id="patch_137">
    <path d="M 242.768385 135.717726 
L 252.964822 135.717726 
L 252.964822 94.840306 
L 242.768385 94.840306 
z
" clip-path="url(#p93271e2171)" style="fill: #d62728"/>
   </g>
   <g id="patch_138">
    <path d="M 255.513931 94.840306 
L 265.710368 94.840306 
L 265.710368 94.840306 
L 255.513931 94.840306 
z
" clip-path="url(#p93271e2171)" style="fill: #d62728"/>
   </g>
   <g id="patch_139">
    <path d="M 268.259477 94.840306 
L 278.455914 94.840306 
L 278.455914 94.840306 
L 268.259477 94.840306 
z
" clip-path="url(#p93271e2171)" style="fill: #d62728"/>
   </g>
   <g id="patch_140">
    <path d="M 281.005023 94.840306 
L 291.20146 94.840306 
L 291.20146 94.840306 
L 281.005023 94.840306 
z
" clip-path="url(#p93271e2171)" style="fill: #d62728"/>
   </g>
   <g id="patch_141">
    <path d="M 293.750569 130.339118 
L 303.947006 130.339118 
L 303.947006 96.184958 
L 293.750569 96.184958 
z
" clip-path="url(#p93271e2171)" style="fill: #d62728"/>
   </g>
   <g id="patch_142">
    <path d="M 306.496115 97.483243 
L 316.692552 97.483243 
L 316.692552 96.77846 
L 306.496115 96.77846 
z
" clip-path="url(#p93271e2171)" style="fill: #d62728"/>
   </g>
   <g id="patch_143">
    <path d="M 319.241661 133.812422 
L 329.438097 133.812422 
L 329.438097 97.958076 
L 319.241661 97.958076 
z
" clip-path="url(#p93271e2171)" style="fill: #d62728"/>
   </g>
   <g id="patch_144">
    <path d="M 331.987207 124.061274 
L 342.183643 124.061274 
L 342.183643 99.750387 
L 331.987207 99.750387 
z
" clip-path="url(#p93271e2171)" style="fill: #d62728"/>
   </g>
   <g id="patch_145">
    <path d="M 344.732753 104.154149 
L 354.929189 104.154149 
L 354.929189 100.661458 
L 344.732753 100.661458 
z
" clip-path="url(#p93271e2171)" style="fill: #d62728"/>
   </g>
   <g id="patch_146">
    <path d="M 357.478298 137.980026 
L 367.674735 137.980026 
L 367.674735 101.003123 
L 357.478298 101.003123 
z
" clip-path="url(#p93271e2171)" style="fill: #d62728"/>
   </g>
   <g id="patch_147">
    <path d="M 370.223844 103.826291 
L 380.420281 103.826291 
L 380.420281 101.711942 
L 370.223844 101.711942 
z
" clip-path="url(#p93271e2171)" style="fill: #d62728"/>
   </g>
   <g id="patch_148">
    <path d="M 382.96939 103.366168 
L 393.165827 103.366168 
L 393.165827 101.964657 
L 382.96939 101.964657 
z
" clip-path="url(#p93271e2171)" style="fill: #d62728"/>
   </g>
   <g id="patch_149">
    <path d="M 395.714936 102.165255 
L 405.911373 102.165255 
L 405.911373 102.165255 
L 395.714936 102.165255 
z
" clip-path="url(#p93271e2171)" style="fill: #d62728"/>
   </g>
   <g id="patch_150">
    <path d="M 408.460482 136.318864 
L 418.656919 136.318864 
L 418.656919 103.857384 
L 408.460482 103.857384 
z
" clip-path="url(#p93271e2171)" style="fill: #d62728"/>
   </g>
   <g id="patch_151">
    <path d="M 421.206028 111.395661 
L 431.402465 111.395661 
L 431.402465 104.497597 
L 421.206028 104.497597 
z
" clip-path="url(#p93271e2171)" style="fill: #d62728"/>
   </g>
   <g id="patch_152">
    <path d="M 433.951574 105.059661 
L 444.148011 105.059661 
L 444.148011 105.059661 
L 433.951574 105.059661 
z
" clip-path="url(#p93271e2171)" style="fill: #d62728"/>
   </g>
   <g id="patch_153">
    <path d="M 446.69712 133.516634 
L 456.893557 133.516634 
L 456.893557 105.688545 
L 446.69712 105.688545 
z
" clip-path="url(#p93271e2171)" style="fill: #d62728"/>
   </g>
   <g id="patch_154">
    <path d="M 459.442666 122.739145 
L 469.639102 122.739145 
L 469.639102 106.694758 
L 459.442666 106.694758 
z
" clip-path="url(#p93271e2171)" style="fill: #d62728"/>
   </g>
   <g id="patch_155">
    <path d="M 472.188212 116.04308 
L 482.384648 116.04308 
L 482.384648 107.733885 
L 472.188212 107.733885 
z
" clip-path="url(#p93271e2171)" style="fill: #d62728"/>
   </g>
   <g id="patch_156">
    <path d="M 484.933758 108.5778 
L 495.130194 108.5778 
L 495.130194 108.5778 
L 484.933758 108.5778 
z
" clip-path="url(#p93271e2171)" style="fill: #d62728"/>
   </g>
   <g id="patch_157">
    <path d="M 497.679303 110.532789 
L 507.87574 110.532789 
L 507.87574 110.276236 
L 497.679303 110.276236 
z
" clip-path="url(#p93271e2171)" style="fill: #d62728"/>
   </g>
   <g id="patch_158">
    <path d="M 510.424849 112.134599 
L 520.621286 112.134599 
L 520.621286 112.134599 
L 510.424849 112.134599 
z
" clip-path="url(#p93271e2171)" style="fill: #d62728"/>
   </g>
   <g id="patch_159">
    <path d="M 523.170395 125.052288 
L 533.366832 125.052288 
L 533.366832 112.967495 
L 523.170395 112.967495 
z
" clip-path="url(#p93271e2171)" style="fill: #d62728"/>
   </g>
   <g id="patch_160">
    <path d="M 535.915941 125.283679 
L 546.112378 125.283679 
L 546.112378 113.046216 
L 535.915941 113.046216 
z
" clip-path="url(#p93271e2171)" style="fill: #d62728"/>
   </g>
   <g id="patch_161">
    <path d="M 548.661487 115.279016 
L 558.857924 115.279016 
L 558.857924 115.279016 
L 548.661487 115.279016 
z
" clip-path="url(#p93271e2171)" style="fill: #d62728"/>
   </g>
   <g id="patch_162">
    <path d="M 561.407033 120.659661 
L 571.60347 120.659661 
L 571.60347 115.820952 
L 561.407033 115.820952 
z
" clip-path="url(#p93271e2171)" style="fill: #d62728"/>
   </g>
   <g id="matplotlib.axis_1">
    <g id="xtick_1">
     <g id="line2d_1">
      <defs>
       <path id="m1e6bbfbc2c" d="M 0 0 
L 0 3.5 
" style="stroke: #000000; stroke-width: 0.8"/>
      </defs>
      <g>
       <use xlink:href="#m1e6bbfbc2c" x="69.428961" y="186.8145" style="stroke: #000000; stroke-width: 0.8"/>
      </g>
     </g>
     <g id="text_1">
      <!-- MSE -->
      <g transform="translate(65.524461 208.116177) rotate(-45) scale(0.07 -0.07)">
       <defs>
        <path id="DejaVuSans-4d" d="M 628 4666 
L 1569 4666 
L 2759 1491 
L 3956 4666 
L 4897 4666 
L 4897 0 
L 4281 0 
L 4281 4097 
L 3078 897 
L 2444 897 
L 1241 4097 
L 1241 0 
L 628 0 
L 628 4666 
z
" transform="scale(0.015625)"/>
        <path id="DejaVuSans-53" d="M 3425 4513 
L 3425 3897 
Q 3066 4069 2747 4153 
Q 2428 4238 2131 4238 
Q 1616 4238 1336 4038 
Q 1056 3838 1056 3469 
Q 1056 3159 1242 3001 
Q 1428 2844 1947 2747 
L 2328 2669 
Q 3034 2534 3370 2195 
Q 3706 1856 3706 1288 
Q 3706 609 3251 259 
Q 2797 -91 1919 -91 
Q 1588 -91 1214 -16 
Q 841 59 441 206 
L 441 856 
Q 825 641 1194 531 
Q 1563 422 1919 422 
Q 2459 422 2753 634 
Q 3047 847 3047 1241 
Q 3047 1584 2836 1778 
Q 2625 1972 2144 2069 
L 1759 2144 
Q 1053 2284 737 2584 
Q 422 2884 422 3419 
Q 422 4038 858 4394 
Q 1294 4750 2059 4750 
Q 2388 4750 2728 4690 
Q 3069 4631 3425 4513 
z
" transform="scale(0.015625)"/>
        <path id="DejaVuSans-45" d="M 628 4666 
L 3578 4666 
L 3578 4134 
L 1259 4134 
L 1259 2753 
L 3481 2753 
L 3481 2222 
L 1259 2222 
L 1259 531 
L 3634 531 
L 3634 0 
L 628 0 
L 628 4666 
z
" transform="scale(0.015625)"/>
       </defs>
       <use xlink:href="#DejaVuSans-4d"/>
       <use xlink:href="#DejaVuSans-53" transform="translate(86.279297 0)"/>
       <use xlink:href="#DejaVuSans-45" transform="translate(149.755859 0)"/>
      </g>
     </g>
    </g>
    <g id="xtick_2">
     <g id="line2d_2">
      <g>
       <use xlink:href="#m1e6bbfbc2c" x="82.174507" y="186.8145" style="stroke: #000000; stroke-width: 0.8"/>
      </g>
     </g>
     <g id="text_2">
      <!-- CIN -->
      <g transform="translate(79.230567 206.195056) rotate(-45) scale(0.07 -0.07)">
       <defs>
        <path id="DejaVuSans-43" d="M 4122 4306 
L 4122 3641 
Q 3803 3938 3442 4084 
Q 3081 4231 2675 4231 
Q 1875 4231 1450 3742 
Q 1025 3253 1025 2328 
Q 1025 1406 1450 917 
Q 1875 428 2675 428 
Q 3081 428 3442 575 
Q 3803 722 4122 1019 
L 4122 359 
Q 3791 134 3420 21 
Q 3050 -91 2638 -91 
Q 1578 -91 968 557 
Q 359 1206 359 2328 
Q 359 3453 968 4101 
Q 1578 4750 2638 4750 
Q 3056 4750 3426 4639 
Q 3797 4528 4122 4306 
z
" transform="scale(0.015625)"/>
        <path id="DejaVuSans-49" d="M 628 4666 
L 1259 4666 
L 1259 0 
L 628 0 
L 628 4666 
z
" transform="scale(0.015625)"/>
        <path id="DejaVuSans-4e" d="M 628 4666 
L 1478 4666 
L 3547 763 
L 3547 4666 
L 4159 4666 
L 4159 0 
L 3309 0 
L 1241 3903 
L 1241 0 
L 628 0 
L 628 4666 
z
" transform="scale(0.015625)"/>
       </defs>
       <use xlink:href="#DejaVuSans-43"/>
       <use xlink:href="#DejaVuSans-49" transform="translate(69.824219 0)"/>
       <use xlink:href="#DejaVuSans-4e" transform="translate(99.316406 0)"/>
      </g>
     </g>
    </g>
    <g id="xtick_3">
     <g id="line2d_3">
      <g>
       <use xlink:href="#m1e6bbfbc2c" x="94.920053" y="186.8145" style="stroke: #000000; stroke-width: 0.8"/>
      </g>
     </g>
     <g id="text_3">
      <!-- BCH -->
      <g transform="translate(91.041848 208.063586) rotate(-45) scale(0.07 -0.07)">
       <defs>
        <path id="DejaVuSans-42" d="M 1259 2228 
L 1259 519 
L 2272 519 
Q 2781 519 3026 730 
Q 3272 941 3272 1375 
Q 3272 1813 3026 2020 
Q 2781 2228 2272 2228 
L 1259 2228 
z
M 1259 4147 
L 1259 2741 
L 2194 2741 
Q 2656 2741 2882 2914 
Q 3109 3088 3109 3444 
Q 3109 3797 2882 3972 
Q 2656 4147 2194 4147 
L 1259 4147 
z
M 628 4666 
L 2241 4666 
Q 2963 4666 3353 4366 
Q 3744 4066 3744 3513 
Q 3744 3084 3544 2831 
Q 3344 2578 2956 2516 
Q 3422 2416 3680 2098 
Q 3938 1781 3938 1306 
Q 3938 681 3513 340 
Q 3088 0 2303 0 
L 628 0 
L 628 4666 
z
" transform="scale(0.015625)"/>
        <path id="DejaVuSans-48" d="M 628 4666 
L 1259 4666 
L 1259 2753 
L 3553 2753 
L 3553 4666 
L 4184 4666 
L 4184 0 
L 3553 0 
L 3553 2222 
L 1259 2222 
L 1259 0 
L 628 0 
L 628 4666 
z
" transform="scale(0.015625)"/>
       </defs>
       <use xlink:href="#DejaVuSans-42"/>
       <use xlink:href="#DejaVuSans-43" transform="translate(66.853516 0)"/>
       <use xlink:href="#DejaVuSans-48" transform="translate(136.677734 0)"/>
      </g>
     </g>
    </g>
    <g id="xtick_4">
     <g id="line2d_4">
      <g>
       <use xlink:href="#m1e6bbfbc2c" x="107.665599" y="186.8145" style="stroke: #000000; stroke-width: 0.8"/>
      </g>
     </g>
     <g id="text_4">
      <!-- NFS -->
      <g transform="translate(104.228618 207.181138) rotate(-45) scale(0.07 -0.07)">
       <defs>
        <path id="DejaVuSans-46" d="M 628 4666 
L 3309 4666 
L 3309 4134 
L 1259 4134 
L 1259 2759 
L 3109 2759 
L 3109 2228 
L 1259 2228 
L 1259 0 
L 628 0 
L 628 4666 
z
" transform="scale(0.015625)"/>
       </defs>
       <use xlink:href="#DejaVuSans-4e"/>
       <use xlink:href="#DejaVuSans-46" transform="translate(74.804688 0)"/>
       <use xlink:href="#DejaVuSans-53" transform="translate(130.574219 0)"/>
      </g>
     </g>
    </g>
    <g id="xtick_5">
     <g id="line2d_5">
      <g>
       <use xlink:href="#m1e6bbfbc2c" x="120.411144" y="186.8145" style="stroke: #000000; stroke-width: 0.8"/>
      </g>
     </g>
     <g id="text_5">
      <!-- JCC -->
      <g transform="translate(117.590562 205.948342) rotate(-45) scale(0.07 -0.07)">
       <defs>
        <path id="DejaVuSans-4a" d="M 628 4666 
L 1259 4666 
L 1259 325 
Q 1259 -519 939 -900 
Q 619 -1281 -91 -1281 
L -331 -1281 
L -331 -750 
L -134 -750 
Q 284 -750 456 -515 
Q 628 -281 628 325 
L 628 4666 
z
" transform="scale(0.015625)"/>
       </defs>
       <use xlink:href="#DejaVuSans-4a"/>
       <use xlink:href="#DejaVuSans-43" transform="translate(29.492188 0)"/>
       <use xlink:href="#DejaVuSans-43" transform="translate(99.316406 0)"/>
      </g>
     </g>
    </g>
    <g id="xtick_6">
     <g id="line2d_6">
      <g>
       <use xlink:href="#m1e6bbfbc2c" x="133.15669" y="186.8145" style="stroke: #000000; stroke-width: 0.8"/>
      </g>
     </g>
     <g id="text_6">
      <!-- IMM -->
      <g transform="translate(129.52172 207.577118) rotate(-45) scale(0.07 -0.07)">
       <use xlink:href="#DejaVuSans-49"/>
       <use xlink:href="#DejaVuSans-4d" transform="translate(29.492188 0)"/>
       <use xlink:href="#DejaVuSans-4d" transform="translate(115.771484 0)"/>
      </g>
     </g>
    </g>
    <g id="xtick_7">
     <g id="line2d_7">
      <g>
       <use xlink:href="#m1e6bbfbc2c" x="145.902236" y="186.8145" style="stroke: #000000; stroke-width: 0.8"/>
      </g>
     </g>
     <g id="text_7">
      <!-- PCL -->
      <g transform="translate(142.668659 206.774331) rotate(-45) scale(0.07 -0.07)">
       <defs>
        <path id="DejaVuSans-50" d="M 1259 4147 
L 1259 2394 
L 2053 2394 
Q 2494 2394 2734 2622 
Q 2975 2850 2975 3272 
Q 2975 3691 2734 3919 
Q 2494 4147 2053 4147 
L 1259 4147 
z
M 628 4666 
L 2053 4666 
Q 2838 4666 3239 4311 
Q 3641 3956 3641 3272 
Q 3641 2581 3239 2228 
Q 2838 1875 2053 1875 
L 1259 1875 
L 1259 0 
L 628 0 
L 628 4666 
z
" transform="scale(0.015625)"/>
        <path id="DejaVuSans-4c" d="M 628 4666 
L 1259 4666 
L 1259 531 
L 3531 531 
L 3531 0 
L 628 0 
L 628 4666 
z
" transform="scale(0.015625)"/>
       </defs>
       <use xlink:href="#DejaVuSans-50"/>
       <use xlink:href="#DejaVuSans-43" transform="translate(60.302734 0)"/>
       <use xlink:href="#DejaVuSans-4c" transform="translate(130.126953 0)"/>
      </g>
     </g>
    </g>
    <g id="xtick_8">
     <g id="line2d_8">
      <g>
       <use xlink:href="#m1e6bbfbc2c" x="158.647782" y="186.8145" style="stroke: #000000; stroke-width: 0.8"/>
      </g>
     </g>
     <g id="text_8">
      <!-- CHM -->
      <g transform="translate(154.288911 209.024919) rotate(-45) scale(0.07 -0.07)">
       <use xlink:href="#DejaVuSans-43"/>
       <use xlink:href="#DejaVuSans-48" transform="translate(69.824219 0)"/>
       <use xlink:href="#DejaVuSans-4d" transform="translate(145.019531 0)"/>
      </g>
     </g>
    </g>
    <g id="xtick_9">
     <g id="line2d_9">
      <g>
       <use xlink:href="#m1e6bbfbc2c" x="171.393328" y="186.8145" style="stroke: #000000; stroke-width: 0.8"/>
      </g>
     </g>
     <g id="text_9">
      <!-- JSC -->
      <g transform="translate(168.729745 205.634342) rotate(-45) scale(0.07 -0.07)">
       <use xlink:href="#DejaVuSans-4a"/>
       <use xlink:href="#DejaVuSans-53" transform="translate(29.492188 0)"/>
       <use xlink:href="#DejaVuSans-43" transform="translate(92.96875 0)"/>
      </g>
     </g>
    </g>
    <g id="xtick_10">
     <g id="line2d_10">
      <g>
       <use xlink:href="#m1e6bbfbc2c" x="184.138874" y="186.8145" style="stroke: #000000; stroke-width: 0.8"/>
      </g>
     </g>
     <g id="text_10">
      <!-- HUN -->
      <g transform="translate(179.980699 208.623526) rotate(-45) scale(0.07 -0.07)">
       <defs>
        <path id="DejaVuSans-55" d="M 556 4666 
L 1191 4666 
L 1191 1831 
Q 1191 1081 1462 751 
Q 1734 422 2344 422 
Q 2950 422 3222 751 
Q 3494 1081 3494 1831 
L 3494 4666 
L 4128 4666 
L 4128 1753 
Q 4128 841 3676 375 
Q 3225 -91 2344 -91 
Q 1459 -91 1007 375 
Q 556 841 556 1753 
L 556 4666 
z
" transform="scale(0.015625)"/>
       </defs>
       <use xlink:href="#DejaVuSans-48"/>
       <use xlink:href="#DejaVuSans-55" transform="translate(75.195312 0)"/>
       <use xlink:href="#DejaVuSans-4e" transform="translate(148.388672 0)"/>
      </g>
     </g>
    </g>
    <g id="xtick_11">
     <g id="line2d_11">
      <g>
       <use xlink:href="#m1e6bbfbc2c" x="196.88442" y="186.8145" style="stroke: #000000; stroke-width: 0.8"/>
      </g>
     </g>
     <g id="text_11">
      <!-- PSL -->
      <g transform="translate(193.807843 206.460331) rotate(-45) scale(0.07 -0.07)">
       <use xlink:href="#DejaVuSans-50"/>
       <use xlink:href="#DejaVuSans-53" transform="translate(60.302734 0)"/>
       <use xlink:href="#DejaVuSans-4c" transform="translate(123.779297 0)"/>
      </g>
     </g>
    </g>
    <g id="xtick_12">
     <g id="line2d_12">
      <g>
       <use xlink:href="#m1e6bbfbc2c" x="209.629966" y="186.8145" style="stroke: #000000; stroke-width: 0.8"/>
      </g>
     </g>
     <g id="text_12">
      <!-- GRK -->
      <g transform="translate(205.73552 208.096068) rotate(-45) scale(0.07 -0.07)">
       <defs>
        <path id="DejaVuSans-47" d="M 3809 666 
L 3809 1919 
L 2778 1919 
L 2778 2438 
L 4434 2438 
L 4434 434 
Q 4069 175 3628 42 
Q 3188 -91 2688 -91 
Q 1594 -91 976 548 
Q 359 1188 359 2328 
Q 359 3472 976 4111 
Q 1594 4750 2688 4750 
Q 3144 4750 3555 4637 
Q 3966 4525 4313 4306 
L 4313 3634 
Q 3963 3931 3569 4081 
Q 3175 4231 2741 4231 
Q 1884 4231 1454 3753 
Q 1025 3275 1025 2328 
Q 1025 1384 1454 906 
Q 1884 428 2741 428 
Q 3075 428 3337 486 
Q 3600 544 3809 666 
z
" transform="scale(0.015625)"/>
        <path id="DejaVuSans-52" d="M 2841 2188 
Q 3044 2119 3236 1894 
Q 3428 1669 3622 1275 
L 4263 0 
L 3584 0 
L 2988 1197 
Q 2756 1666 2539 1819 
Q 2322 1972 1947 1972 
L 1259 1972 
L 1259 0 
L 628 0 
L 628 4666 
L 2053 4666 
Q 2853 4666 3247 4331 
Q 3641 3997 3641 3322 
Q 3641 2881 3436 2590 
Q 3231 2300 2841 2188 
z
M 1259 4147 
L 1259 2491 
L 2053 2491 
Q 2509 2491 2742 2702 
Q 2975 2913 2975 3322 
Q 2975 3731 2742 3939 
Q 2509 4147 2053 4147 
L 1259 4147 
z
" transform="scale(0.015625)"/>
        <path id="DejaVuSans-4b" d="M 628 4666 
L 1259 4666 
L 1259 2694 
L 3353 4666 
L 4166 4666 
L 1850 2491 
L 4331 0 
L 3500 0 
L 1259 2247 
L 1259 0 
L 628 0 
L 628 4666 
z
" transform="scale(0.015625)"/>
       </defs>
       <use xlink:href="#DejaVuSans-47"/>
       <use xlink:href="#DejaVuSans-52" transform="translate(77.490234 0)"/>
       <use xlink:href="#DejaVuSans-4b" transform="translate(146.972656 0)"/>
      </g>
     </g>
    </g>
    <g id="xtick_13">
     <g id="line2d_13">
      <g>
       <use xlink:href="#m1e6bbfbc2c" x="222.375512" y="186.8145" style="stroke: #000000; stroke-width: 0.8"/>
      </g>
     </g>
     <g id="text_13">
      <!-- LAT -->
      <g transform="translate(219.293907 206.470386) rotate(-45) scale(0.07 -0.07)">
       <defs>
        <path id="DejaVuSans-41" d="M 2188 4044 
L 1331 1722 
L 3047 1722 
L 2188 4044 
z
M 1831 4666 
L 2547 4666 
L 4325 0 
L 3669 0 
L 3244 1197 
L 1141 1197 
L 716 0 
L 50 0 
L 1831 4666 
z
" transform="scale(0.015625)"/>
        <path id="DejaVuSans-54" d="M -19 4666 
L 3928 4666 
L 3928 4134 
L 2272 4134 
L 2272 0 
L 1638 0 
L 1638 4134 
L -19 4134 
L -19 4666 
z
" transform="scale(0.015625)"/>
       </defs>
       <use xlink:href="#DejaVuSans-4c"/>
       <use xlink:href="#DejaVuSans-41" transform="translate(57.962891 0)"/>
       <use xlink:href="#DejaVuSans-54" transform="translate(118.621094 0)"/>
      </g>
     </g>
    </g>
    <g id="xtick_14">
     <g id="line2d_14">
      <g>
       <use xlink:href="#m1e6bbfbc2c" x="235.121058" y="186.8145" style="stroke: #000000; stroke-width: 0.8"/>
      </g>
     </g>
     <g id="text_14">
      <!-- ECO -->
      <g transform="translate(231.24672 208.055852) rotate(-45) scale(0.07 -0.07)">
       <defs>
        <path id="DejaVuSans-4f" d="M 2522 4238 
Q 1834 4238 1429 3725 
Q 1025 3213 1025 2328 
Q 1025 1447 1429 934 
Q 1834 422 2522 422 
Q 3209 422 3611 934 
Q 4013 1447 4013 2328 
Q 4013 3213 3611 3725 
Q 3209 4238 2522 4238 
z
M 2522 4750 
Q 3503 4750 4090 4092 
Q 4678 3434 4678 2328 
Q 4678 1225 4090 567 
Q 3503 -91 2522 -91 
Q 1538 -91 948 565 
Q 359 1222 359 2328 
Q 359 3434 948 4092 
Q 1538 4750 2522 4750 
z
" transform="scale(0.015625)"/>
       </defs>
       <use xlink:href="#DejaVuSans-45"/>
       <use xlink:href="#DejaVuSans-43" transform="translate(63.183594 0)"/>
       <use xlink:href="#DejaVuSans-4f" transform="translate(133.007812 0)"/>
      </g>
     </g>
    </g>
    <g id="xtick_15">
     <g id="line2d_15">
      <g>
       <use xlink:href="#m1e6bbfbc2c" x="247.866604" y="186.8145" style="stroke: #000000; stroke-width: 0.8"/>
      </g>
     </g>
     <g id="text_15">
      <!-- JAL -->
      <g transform="translate(245.47371 205.092964) rotate(-45) scale(0.07 -0.07)">
       <use xlink:href="#DejaVuSans-4a"/>
       <use xlink:href="#DejaVuSans-41" transform="translate(27.742188 0)"/>
       <use xlink:href="#DejaVuSans-4c" transform="translate(96.150391 0)"/>
      </g>
     </g>
    </g>
    <g id="xtick_16">
     <g id="line2d_16">
      <g>
       <use xlink:href="#m1e6bbfbc2c" x="260.61215" y="186.8145" style="stroke: #000000; stroke-width: 0.8"/>
      </g>
     </g>
     <g id="text_16">
      <!-- JNR -->
      <g transform="translate(257.676717 206.178041) rotate(-45) scale(0.07 -0.07)">
       <use xlink:href="#DejaVuSans-4a"/>
       <use xlink:href="#DejaVuSans-4e" transform="translate(29.492188 0)"/>
       <use xlink:href="#DejaVuSans-52" transform="translate(104.296875 0)"/>
      </g>
     </g>
    </g>
    <g id="xtick_17">
     <g id="line2d_17">
      <g>
       <use xlink:href="#m1e6bbfbc2c" x="273.357695" y="186.8145" style="stroke: #000000; stroke-width: 0.8"/>
      </g>
     </g>
     <g id="text_17">
      <!-- JPA -->
      <g transform="translate(270.965962 205.090643) rotate(-45) scale(0.07 -0.07)">
       <use xlink:href="#DejaVuSans-4a"/>
       <use xlink:href="#DejaVuSans-50" transform="translate(29.492188 0)"/>
       <use xlink:href="#DejaVuSans-41" transform="translate(83.419922 0)"/>
      </g>
     </g>
    </g>
    <g id="xtick_18">
     <g id="line2d_18">
      <g>
       <use xlink:href="#m1e6bbfbc2c" x="286.103241" y="186.8145" style="stroke: #000000; stroke-width: 0.8"/>
      </g>
     </g>
     <g id="text_18">
      <!-- JPI -->
      <g transform="translate(284.516615 203.480429) rotate(-45) scale(0.07 -0.07)">
       <use xlink:href="#DejaVuSans-4a"/>
       <use xlink:href="#DejaVuSans-50" transform="translate(29.492188 0)"/>
       <use xlink:href="#DejaVuSans-49" transform="translate(89.794922 0)"/>
      </g>
     </g>
    </g>
    <g id="xtick_19">
     <g id="line2d_19">
      <g>
       <use xlink:href="#m1e6bbfbc2c" x="298.848787" y="186.8145" style="stroke: #000000; stroke-width: 0.8"/>
      </g>
     </g>
     <g id="text_19">
      <!-- LMP -->
      <g transform="translate(295.208016 207.588719) rotate(-45) scale(0.07 -0.07)">
       <use xlink:href="#DejaVuSans-4c"/>
       <use xlink:href="#DejaVuSans-4d" transform="translate(55.712891 0)"/>
       <use xlink:href="#DejaVuSans-50" transform="translate(141.992188 0)"/>
      </g>
     </g>
    </g>
    <g id="xtick_20">
     <g id="line2d_20">
      <g>
       <use xlink:href="#m1e6bbfbc2c" x="311.594333" y="186.8145" style="stroke: #000000; stroke-width: 0.8"/>
      </g>
     </g>
     <g id="text_20">
      <!-- MAT -->
      <g transform="translate(307.81203 207.871783) rotate(-45) scale(0.07 -0.07)">
       <use xlink:href="#DejaVuSans-4d"/>
       <use xlink:href="#DejaVuSans-41" transform="translate(86.279297 0)"/>
       <use xlink:href="#DejaVuSans-54" transform="translate(146.9375 0)"/>
      </g>
     </g>
    </g>
    <g id="xtick_21">
     <g id="line2d_21">
      <g>
       <use xlink:href="#m1e6bbfbc2c" x="324.339879" y="186.8145" style="stroke: #000000; stroke-width: 0.8"/>
      </g>
     </g>
     <g id="text_21">
      <!-- GER -->
      <g transform="translate(320.504598 207.977738) rotate(-45) scale(0.07 -0.07)">
       <use xlink:href="#DejaVuSans-47"/>
       <use xlink:href="#DejaVuSans-45" transform="translate(77.490234 0)"/>
       <use xlink:href="#DejaVuSans-52" transform="translate(140.673828 0)"/>
      </g>
     </g>
    </g>
    <g id="xtick_22">
     <g id="line2d_22">
      <g>
       <use xlink:href="#m1e6bbfbc2c" x="337.085425" y="186.8145" style="stroke: #000000; stroke-width: 0.8"/>
      </g>
     </g>
     <g id="text_22">
      <!-- EEB -->
      <g transform="translate(333.625629 207.226769) rotate(-45) scale(0.07 -0.07)">
       <use xlink:href="#DejaVuSans-45"/>
       <use xlink:href="#DejaVuSans-45" transform="translate(63.183594 0)"/>
       <use xlink:href="#DejaVuSans-42" transform="translate(126.367188 0)"/>
      </g>
     </g>
    </g>
    <g id="xtick_23">
     <g id="line2d_23">
      <g>
       <use xlink:href="#m1e6bbfbc2c" x="349.830971" y="186.8145" style="stroke: #000000; stroke-width: 0.8"/>
      </g>
     </g>
     <g id="text_23">
      <!-- CSC -->
      <g transform="translate(346.169318 207.630483) rotate(-45) scale(0.07 -0.07)">
       <use xlink:href="#DejaVuSans-43"/>
       <use xlink:href="#DejaVuSans-53" transform="translate(69.824219 0)"/>
       <use xlink:href="#DejaVuSans-43" transform="translate(133.300781 0)"/>
      </g>
     </g>
    </g>
    <g id="xtick_24">
     <g id="line2d_24">
      <g>
       <use xlink:href="#m1e6bbfbc2c" x="362.576517" y="186.8145" style="stroke: #000000; stroke-width: 0.8"/>
      </g>
     </g>
     <g id="text_24">
      <!-- SLA -->
      <g transform="translate(359.243558 206.973094) rotate(-45) scale(0.07 -0.07)">
       <use xlink:href="#DejaVuSans-53"/>
       <use xlink:href="#DejaVuSans-4c" transform="translate(63.476562 0)"/>
       <use xlink:href="#DejaVuSans-41" transform="translate(121.439453 0)"/>
      </g>
     </g>
    </g>
    <g id="xtick_25">
     <g id="line2d_25">
      <g>
       <use xlink:href="#m1e6bbfbc2c" x="375.322063" y="186.8145" style="stroke: #000000; stroke-width: 0.8"/>
      </g>
     </g>
     <g id="text_25">
      <!-- ENG -->
      <g transform="translate(371.354917 208.241467) rotate(-45) scale(0.07 -0.07)">
       <use xlink:href="#DejaVuSans-45"/>
       <use xlink:href="#DejaVuSans-4e" transform="translate(63.183594 0)"/>
       <use xlink:href="#DejaVuSans-47" transform="translate(137.988281 0)"/>
      </g>
     </g>
    </g>
    <g id="xtick_26">
     <g id="line2d_26">
      <g>
       <use xlink:href="#m1e6bbfbc2c" x="388.067609" y="186.8145" style="stroke: #000000; stroke-width: 0.8"/>
      </g>
     </g>
     <g id="text_26">
      <!-- EAS -->
      <g transform="translate(384.605492 207.231409) rotate(-45) scale(0.07 -0.07)">
       <use xlink:href="#DejaVuSans-45"/>
       <use xlink:href="#DejaVuSans-41" transform="translate(63.183594 0)"/>
       <use xlink:href="#DejaVuSans-53" transform="translate(131.591797 0)"/>
      </g>
     </g>
    </g>
    <g id="xtick_27">
     <g id="line2d_27">
      <g>
       <use xlink:href="#m1e6bbfbc2c" x="400.813155" y="186.8145" style="stroke: #000000; stroke-width: 0.8"/>
      </g>
     </g>
     <g id="text_27">
      <!-- PHL -->
      <g transform="translate(397.446553 207.04038) rotate(-45) scale(0.07 -0.07)">
       <use xlink:href="#DejaVuSans-50"/>
       <use xlink:href="#DejaVuSans-48" transform="translate(60.302734 0)"/>
       <use xlink:href="#DejaVuSans-4c" transform="translate(135.498047 0)"/>
      </g>
     </g>
    </g>
    <g id="xtick_28">
     <g id="line2d_28">
      <g>
       <use xlink:href="#m1e6bbfbc2c" x="413.5587" y="186.8145" style="stroke: #000000; stroke-width: 0.8"/>
      </g>
     </g>
     <g id="text_28">
      <!-- MUS -->
      <g transform="translate(409.406713 208.611151) rotate(-45) scale(0.07 -0.07)">
       <use xlink:href="#DejaVuSans-4d"/>
       <use xlink:href="#DejaVuSans-55" transform="translate(86.279297 0)"/>
       <use xlink:href="#DejaVuSans-53" transform="translate(159.472656 0)"/>
      </g>
     </g>
    </g>
    <g id="xtick_29">
     <g id="line2d_29">
      <g>
       <use xlink:href="#m1e6bbfbc2c" x="426.304246" y="186.8145" style="stroke: #000000; stroke-width: 0.8"/>
      </g>
     </g>
     <g id="text_29">
      <!-- STA -->
      <g transform="translate(423.086137 206.743395) rotate(-45) scale(0.07 -0.07)">
       <use xlink:href="#DejaVuSans-53"/>
       <use xlink:href="#DejaVuSans-54" transform="translate(63.476562 0)"/>
       <use xlink:href="#DejaVuSans-41" transform="translate(116.810547 0)"/>
      </g>
     </g>
    </g>
    <g id="xtick_30">
     <g id="line2d_30">
      <g>
       <use xlink:href="#m1e6bbfbc2c" x="439.049792" y="186.8145" style="stroke: #000000; stroke-width: 0.8"/>
      </g>
     </g>
     <g id="text_30">
      <!-- JLP -->
      <g transform="translate(436.814285 204.778191) rotate(-45) scale(0.07 -0.07)">
       <use xlink:href="#DejaVuSans-4a"/>
       <use xlink:href="#DejaVuSans-4c" transform="translate(29.492188 0)"/>
       <use xlink:href="#DejaVuSans-50" transform="translate(85.205078 0)"/>
      </g>
     </g>
    </g>
    <g id="xtick_31">
     <g id="line2d_31">
      <g>
       <use xlink:href="#m1e6bbfbc2c" x="451.795338" y="186.8145" style="stroke: #000000; stroke-width: 0.8"/>
      </g>
     </g>
     <g id="text_31">
      <!-- PHY -->
      <g transform="translate(448.296099 207.305655) rotate(-45) scale(0.07 -0.07)">
       <defs>
        <path id="DejaVuSans-59" d="M -13 4666 
L 666 4666 
L 1959 2747 
L 3244 4666 
L 3922 4666 
L 2272 2222 
L 2272 0 
L 1638 0 
L 1638 2222 
L -13 4666 
z
" transform="scale(0.015625)"/>
       </defs>
       <use xlink:href="#DejaVuSans-50"/>
       <use xlink:href="#DejaVuSans-48" transform="translate(60.302734 0)"/>
       <use xlink:href="#DejaVuSans-59" transform="translate(135.498047 0)"/>
      </g>
     </g>
    </g>
    <g id="xtick_32">
     <g id="line2d_32">
      <g>
       <use xlink:href="#m1e6bbfbc2c" x="464.540884" y="186.8145" style="stroke: #000000; stroke-width: 0.8"/>
      </g>
     </g>
     <g id="text_32">
      <!-- FOR -->
      <g transform="translate(460.815426 207.758093) rotate(-45) scale(0.07 -0.07)">
       <use xlink:href="#DejaVuSans-46"/>
       <use xlink:href="#DejaVuSans-4f" transform="translate(57.519531 0)"/>
       <use xlink:href="#DejaVuSans-52" transform="translate(136.230469 0)"/>
      </g>
     </g>
    </g>
    <g id="xtick_33">
     <g id="line2d_33">
      <g>
       <use xlink:href="#m1e6bbfbc2c" x="477.28643" y="186.8145" style="stroke: #000000; stroke-width: 0.8"/>
      </g>
     </g>
     <g id="text_33">
      <!-- PSY -->
      <g transform="translate(474.077215 206.725607) rotate(-45) scale(0.07 -0.07)">
       <use xlink:href="#DejaVuSans-50"/>
       <use xlink:href="#DejaVuSans-53" transform="translate(60.302734 0)"/>
       <use xlink:href="#DejaVuSans-59" transform="translate(123.779297 0)"/>
      </g>
     </g>
    </g>
    <g id="xtick_34">
     <g id="line2d_34">
      <g>
       <use xlink:href="#m1e6bbfbc2c" x="490.031976" y="186.8145" style="stroke: #000000; stroke-width: 0.8"/>
      </g>
     </g>
     <g id="text_34">
      <!-- CLA -->
      <g transform="translate(486.542017 207.287094) rotate(-45) scale(0.07 -0.07)">
       <use xlink:href="#DejaVuSans-43"/>
       <use xlink:href="#DejaVuSans-4c" transform="translate(69.824219 0)"/>
       <use xlink:href="#DejaVuSans-41" transform="translate(127.787109 0)"/>
      </g>
     </g>
    </g>
    <g id="xtick_35">
     <g id="line2d_35">
      <g>
       <use xlink:href="#m1e6bbfbc2c" x="502.777522" y="186.8145" style="stroke: #000000; stroke-width: 0.8"/>
      </g>
     </g>
     <g id="text_35">
      <!-- HIS -->
      <g transform="translate(499.980915 205.900391) rotate(-45) scale(0.07 -0.07)">
       <use xlink:href="#DejaVuSans-48"/>
       <use xlink:href="#DejaVuSans-49" transform="translate(75.195312 0)"/>
       <use xlink:href="#DejaVuSans-53" transform="translate(104.6875 0)"/>
      </g>
     </g>
    </g>
    <g id="xtick_36">
     <g id="line2d_36">
      <g>
       <use xlink:href="#m1e6bbfbc2c" x="515.523068" y="186.8145" style="stroke: #000000; stroke-width: 0.8"/>
      </g>
     </g>
     <g id="text_36">
      <!-- MST -->
      <g transform="translate(511.670772 208.011768) rotate(-45) scale(0.07 -0.07)">
       <use xlink:href="#DejaVuSans-4d"/>
       <use xlink:href="#DejaVuSans-53" transform="translate(86.279297 0)"/>
       <use xlink:href="#DejaVuSans-54" transform="translate(149.755859 0)"/>
      </g>
     </g>
    </g>
    <g id="xtick_37">
     <g id="line2d_37">
      <g>
       <use xlink:href="#m1e6bbfbc2c" x="528.268614" y="186.8145" style="stroke: #000000; stroke-width: 0.8"/>
      </g>
     </g>
     <g id="text_37">
      <!-- CSB -->
      <g transform="translate(524.637123 207.570158) rotate(-45) scale(0.07 -0.07)">
       <use xlink:href="#DejaVuSans-43"/>
       <use xlink:href="#DejaVuSans-53" transform="translate(69.824219 0)"/>
       <use xlink:href="#DejaVuSans-42" transform="translate(133.300781 0)"/>
      </g>
     </g>
    </g>
    <g id="xtick_38">
     <g id="line2d_38">
      <g>
       <use xlink:href="#m1e6bbfbc2c" x="541.01416" y="186.8145" style="stroke: #000000; stroke-width: 0.8"/>
      </g>
     </g>
     <g id="text_38">
      <!-- ANT -->
      <g transform="translate(537.323891 207.687714) rotate(-45) scale(0.07 -0.07)">
       <use xlink:href="#DejaVuSans-41"/>
       <use xlink:href="#DejaVuSans-4e" transform="translate(68.408203 0)"/>
       <use xlink:href="#DejaVuSans-54" transform="translate(143.212891 0)"/>
      </g>
     </g>
    </g>
    <g id="xtick_39">
     <g id="line2d_39">
      <g>
       <use xlink:href="#m1e6bbfbc2c" x="553.759705" y="186.8145" style="stroke: #000000; stroke-width: 0.8"/>
      </g>
     </g>
     <g id="text_39">
      <!-- JHA -->
      <g transform="translate(550.841288 206.144012) rotate(-45) scale(0.07 -0.07)">
       <use xlink:href="#DejaVuSans-4a"/>
       <use xlink:href="#DejaVuSans-48" transform="translate(29.492188 0)"/>
       <use xlink:href="#DejaVuSans-41" transform="translate(104.6875 0)"/>
      </g>
     </g>
    </g>
    <g id="xtick_40">
     <g id="line2d_40">
      <g>
       <use xlink:href="#m1e6bbfbc2c" x="566.505251" y="186.8145" style="stroke: #000000; stroke-width: 0.8"/>
      </g>
     </g>
     <g id="text_40">
      <!-- SPA -->
      <g transform="translate(563.272448 206.772784) rotate(-45) scale(0.07 -0.07)">
       <use xlink:href="#DejaVuSans-53"/>
       <use xlink:href="#DejaVuSans-50" transform="translate(63.476562 0)"/>
       <use xlink:href="#DejaVuSans-41" transform="translate(117.404297 0)"/>
      </g>
     </g>
    </g>
    <g id="text_41">
     <!-- Department -->
     <g transform="translate(287.710856 221.65275) scale(0.1 -0.1)">
      <defs>
       <path id="DejaVuSans-44" d="M 1259 4147 
L 1259 519 
L 2022 519 
Q 2988 519 3436 956 
Q 3884 1394 3884 2338 
Q 3884 3275 3436 3711 
Q 2988 4147 2022 4147 
L 1259 4147 
z
M 628 4666 
L 1925 4666 
Q 3281 4666 3915 4102 
Q 4550 3538 4550 2338 
Q 4550 1131 3912 565 
Q 3275 0 1925 0 
L 628 0 
L 628 4666 
z
" transform="scale(0.015625)"/>
       <path id="DejaVuSans-65" d="M 3597 1894 
L 3597 1613 
L 953 1613 
Q 991 1019 1311 708 
Q 1631 397 2203 397 
Q 2534 397 2845 478 
Q 3156 559 3463 722 
L 3463 178 
Q 3153 47 2828 -22 
Q 2503 -91 2169 -91 
Q 1331 -91 842 396 
Q 353 884 353 1716 
Q 353 2575 817 3079 
Q 1281 3584 2069 3584 
Q 2775 3584 3186 3129 
Q 3597 2675 3597 1894 
z
M 3022 2063 
Q 3016 2534 2758 2815 
Q 2500 3097 2075 3097 
Q 1594 3097 1305 2825 
Q 1016 2553 972 2059 
L 3022 2063 
z
" transform="scale(0.015625)"/>
       <path id="DejaVuSans-70" d="M 1159 525 
L 1159 -1331 
L 581 -1331 
L 581 3500 
L 1159 3500 
L 1159 2969 
Q 1341 3281 1617 3432 
Q 1894 3584 2278 3584 
Q 2916 3584 3314 3078 
Q 3713 2572 3713 1747 
Q 3713 922 3314 415 
Q 2916 -91 2278 -91 
Q 1894 -91 1617 61 
Q 1341 213 1159 525 
z
M 3116 1747 
Q 3116 2381 2855 2742 
Q 2594 3103 2138 3103 
Q 1681 3103 1420 2742 
Q 1159 2381 1159 1747 
Q 1159 1113 1420 752 
Q 1681 391 2138 391 
Q 2594 391 2855 752 
Q 3116 1113 3116 1747 
z
" transform="scale(0.015625)"/>
       <path id="DejaVuSans-61" d="M 2194 1759 
Q 1497 1759 1228 1600 
Q 959 1441 959 1056 
Q 959 750 1161 570 
Q 1363 391 1709 391 
Q 2188 391 2477 730 
Q 2766 1069 2766 1631 
L 2766 1759 
L 2194 1759 
z
M 3341 1997 
L 3341 0 
L 2766 0 
L 2766 531 
Q 2569 213 2275 61 
Q 1981 -91 1556 -91 
Q 1019 -91 701 211 
Q 384 513 384 1019 
Q 384 1609 779 1909 
Q 1175 2209 1959 2209 
L 2766 2209 
L 2766 2266 
Q 2766 2663 2505 2880 
Q 2244 3097 1772 3097 
Q 1472 3097 1187 3025 
Q 903 2953 641 2809 
L 641 3341 
Q 956 3463 1253 3523 
Q 1550 3584 1831 3584 
Q 2591 3584 2966 3190 
Q 3341 2797 3341 1997 
z
" transform="scale(0.015625)"/>
       <path id="DejaVuSans-72" d="M 2631 2963 
Q 2534 3019 2420 3045 
Q 2306 3072 2169 3072 
Q 1681 3072 1420 2755 
Q 1159 2438 1159 1844 
L 1159 0 
L 581 0 
L 581 3500 
L 1159 3500 
L 1159 2956 
Q 1341 3275 1631 3429 
Q 1922 3584 2338 3584 
Q 2397 3584 2469 3576 
Q 2541 3569 2628 3553 
L 2631 2963 
z
" transform="scale(0.015625)"/>
       <path id="DejaVuSans-74" d="M 1172 4494 
L 1172 3500 
L 2356 3500 
L 2356 3053 
L 1172 3053 
L 1172 1153 
Q 1172 725 1289 603 
Q 1406 481 1766 481 
L 2356 481 
L 2356 0 
L 1766 0 
Q 1100 0 847 248 
Q 594 497 594 1153 
L 594 3053 
L 172 3053 
L 172 3500 
L 594 3500 
L 594 4494 
L 1172 4494 
z
" transform="scale(0.015625)"/>
       <path id="DejaVuSans-6d" d="M 3328 2828 
Q 3544 3216 3844 3400 
Q 4144 3584 4550 3584 
Q 5097 3584 5394 3201 
Q 5691 2819 5691 2113 
L 5691 0 
L 5113 0 
L 5113 2094 
Q 5113 2597 4934 2840 
Q 4756 3084 4391 3084 
Q 3944 3084 3684 2787 
Q 3425 2491 3425 1978 
L 3425 0 
L 2847 0 
L 2847 2094 
Q 2847 2600 2669 2842 
Q 2491 3084 2119 3084 
Q 1678 3084 1418 2786 
Q 1159 2488 1159 1978 
L 1159 0 
L 581 0 
L 581 3500 
L 1159 3500 
L 1159 2956 
Q 1356 3278 1631 3431 
Q 1906 3584 2284 3584 
Q 2666 3584 2933 3390 
Q 3200 3197 3328 2828 
z
" transform="scale(0.015625)"/>
       <path id="DejaVuSans-6e" d="M 3513 2113 
L 3513 0 
L 2938 0 
L 2938 2094 
Q 2938 2591 2744 2837 
Q 2550 3084 2163 3084 
Q 1697 3084 1428 2787 
Q 1159 2491 1159 1978 
L 1159 0 
L 581 0 
L 581 3500 
L 1159 3500 
L 1159 2956 
Q 1366 3272 1645 3428 
Q 1925 3584 2291 3584 
Q 2894 3584 3203 3211 
Q 3513 2838 3513 2113 
z
" transform="scale(0.015625)"/>
      </defs>
      <use xlink:href="#DejaVuSans-44"/>
      <use xlink:href="#DejaVuSans-65" transform="translate(77.001953 0)"/>
      <use xlink:href="#DejaVuSans-70" transform="translate(138.525391 0)"/>
      <use xlink:href="#DejaVuSans-61" transform="translate(202.001953 0)"/>
      <use xlink:href="#DejaVuSans-72" transform="translate(263.28125 0)"/>
      <use xlink:href="#DejaVuSans-74" transform="translate(304.394531 0)"/>
      <use xlink:href="#DejaVuSans-6d" transform="translate(343.603516 0)"/>
      <use xlink:href="#DejaVuSans-65" transform="translate(441.015625 0)"/>
      <use xlink:href="#DejaVuSans-6e" transform="translate(502.539062 0)"/>
      <use xlink:href="#DejaVuSans-74" transform="translate(565.917969 0)"/>
     </g>
    </g>
   </g>
   <g id="matplotlib.axis_2">
    <g id="ytick_1">
     <g id="line2d_41">
      <defs>
       <path id="mcd122f5356" d="M 0 0 
L -3.5 0 
" style="stroke: #000000; stroke-width: 0.8"/>
      </defs>
      <g>
       <use xlink:href="#mcd122f5356" x="38.967106" y="186.8145" style="stroke: #000000; stroke-width: 0.8"/>
      </g>
     </g>
     <g id="text_42">
      <!-- 0 -->
      <g transform="translate(27.788437 191.065358) rotate(-45) scale(0.07 -0.07)">
       <defs>
        <path id="DejaVuSans-30" d="M 2034 4250 
Q 1547 4250 1301 3770 
Q 1056 3291 1056 2328 
Q 1056 1369 1301 889 
Q 1547 409 2034 409 
Q 2525 409 2770 889 
Q 3016 1369 3016 2328 
Q 3016 3291 2770 3770 
Q 2525 4250 2034 4250 
z
M 2034 4750 
Q 2819 4750 3233 4129 
Q 3647 3509 3647 2328 
Q 3647 1150 3233 529 
Q 2819 -91 2034 -91 
Q 1250 -91 836 529 
Q 422 1150 422 2328 
Q 422 3509 836 4129 
Q 1250 4750 2034 4750 
z
" transform="scale(0.015625)"/>
       </defs>
       <use xlink:href="#DejaVuSans-30"/>
      </g>
     </g>
    </g>
    <g id="ytick_2">
     <g id="line2d_42">
      <g>
       <use xlink:href="#mcd122f5356" x="38.967106" y="161.266113" style="stroke: #000000; stroke-width: 0.8"/>
      </g>
     </g>
     <g id="text_43">
      <!-- 10 -->
      <g transform="translate(24.63916 168.666248) rotate(-45) scale(0.07 -0.07)">
       <defs>
        <path id="DejaVuSans-31" d="M 794 531 
L 1825 531 
L 1825 4091 
L 703 3866 
L 703 4441 
L 1819 4666 
L 2450 4666 
L 2450 531 
L 3481 531 
L 3481 0 
L 794 0 
L 794 531 
z
" transform="scale(0.015625)"/>
       </defs>
       <use xlink:href="#DejaVuSans-31"/>
       <use xlink:href="#DejaVuSans-30" transform="translate(63.623047 0)"/>
      </g>
     </g>
    </g>
    <g id="ytick_3">
     <g id="line2d_43">
      <g>
       <use xlink:href="#mcd122f5356" x="38.967106" y="135.717726" style="stroke: #000000; stroke-width: 0.8"/>
      </g>
     </g>
     <g id="text_44">
      <!-- 20 -->
      <g transform="translate(24.63916 143.117861) rotate(-45) scale(0.07 -0.07)">
       <defs>
        <path id="DejaVuSans-32" d="M 1228 531 
L 3431 531 
L 3431 0 
L 469 0 
L 469 531 
Q 828 903 1448 1529 
Q 2069 2156 2228 2338 
Q 2531 2678 2651 2914 
Q 2772 3150 2772 3378 
Q 2772 3750 2511 3984 
Q 2250 4219 1831 4219 
Q 1534 4219 1204 4116 
Q 875 4013 500 3803 
L 500 4441 
Q 881 4594 1212 4672 
Q 1544 4750 1819 4750 
Q 2544 4750 2975 4387 
Q 3406 4025 3406 3419 
Q 3406 3131 3298 2873 
Q 3191 2616 2906 2266 
Q 2828 2175 2409 1742 
Q 1991 1309 1228 531 
z
" transform="scale(0.015625)"/>
       </defs>
       <use xlink:href="#DejaVuSans-32"/>
       <use xlink:href="#DejaVuSans-30" transform="translate(63.623047 0)"/>
      </g>
     </g>
    </g>
    <g id="ytick_4">
     <g id="line2d_44">
      <g>
       <use xlink:href="#mcd122f5356" x="38.967106" y="110.169339" style="stroke: #000000; stroke-width: 0.8"/>
      </g>
     </g>
     <g id="text_45">
      <!-- 30 -->
      <g transform="translate(24.63916 117.569474) rotate(-45) scale(0.07 -0.07)">
       <defs>
        <path id="DejaVuSans-33" d="M 2597 2516 
Q 3050 2419 3304 2112 
Q 3559 1806 3559 1356 
Q 3559 666 3084 287 
Q 2609 -91 1734 -91 
Q 1441 -91 1130 -33 
Q 819 25 488 141 
L 488 750 
Q 750 597 1062 519 
Q 1375 441 1716 441 
Q 2309 441 2620 675 
Q 2931 909 2931 1356 
Q 2931 1769 2642 2001 
Q 2353 2234 1838 2234 
L 1294 2234 
L 1294 2753 
L 1863 2753 
Q 2328 2753 2575 2939 
Q 2822 3125 2822 3475 
Q 2822 3834 2567 4026 
Q 2313 4219 1838 4219 
Q 1578 4219 1281 4162 
Q 984 4106 628 3988 
L 628 4550 
Q 988 4650 1302 4700 
Q 1616 4750 1894 4750 
Q 2613 4750 3031 4423 
Q 3450 4097 3450 3541 
Q 3450 3153 3228 2886 
Q 3006 2619 2597 2516 
z
" transform="scale(0.015625)"/>
       </defs>
       <use xlink:href="#DejaVuSans-33"/>
       <use xlink:href="#DejaVuSans-30" transform="translate(63.623047 0)"/>
      </g>
     </g>
    </g>
    <g id="ytick_5">
     <g id="line2d_45">
      <g>
       <use xlink:href="#mcd122f5356" x="38.967106" y="84.620952" style="stroke: #000000; stroke-width: 0.8"/>
      </g>
     </g>
     <g id="text_46">
      <!-- 40 -->
      <g transform="translate(24.63916 92.021087) rotate(-45) scale(0.07 -0.07)">
       <defs>
        <path id="DejaVuSans-34" d="M 2419 4116 
L 825 1625 
L 2419 1625 
L 2419 4116 
z
M 2253 4666 
L 3047 4666 
L 3047 1625 
L 3713 1625 
L 3713 1100 
L 3047 1100 
L 3047 0 
L 2419 0 
L 2419 1100 
L 313 1100 
L 313 1709 
L 2253 4666 
z
" transform="scale(0.015625)"/>
       </defs>
       <use xlink:href="#DejaVuSans-34"/>
       <use xlink:href="#DejaVuSans-30" transform="translate(63.623047 0)"/>
      </g>
     </g>
    </g>
    <g id="ytick_6">
     <g id="line2d_46">
      <g>
       <use xlink:href="#mcd122f5356" x="38.967106" y="59.072565" style="stroke: #000000; stroke-width: 0.8"/>
      </g>
     </g>
     <g id="text_47">
      <!-- 50 -->
      <g transform="translate(24.63916 66.4727) rotate(-45) scale(0.07 -0.07)">
       <defs>
        <path id="DejaVuSans-35" d="M 691 4666 
L 3169 4666 
L 3169 4134 
L 1269 4134 
L 1269 2991 
Q 1406 3038 1543 3061 
Q 1681 3084 1819 3084 
Q 2600 3084 3056 2656 
Q 3513 2228 3513 1497 
Q 3513 744 3044 326 
Q 2575 -91 1722 -91 
Q 1428 -91 1123 -41 
Q 819 9 494 109 
L 494 744 
Q 775 591 1075 516 
Q 1375 441 1709 441 
Q 2250 441 2565 725 
Q 2881 1009 2881 1497 
Q 2881 1984 2565 2268 
Q 2250 2553 1709 2553 
Q 1456 2553 1204 2497 
Q 953 2441 691 2322 
L 691 4666 
z
" transform="scale(0.015625)"/>
       </defs>
       <use xlink:href="#DejaVuSans-35"/>
       <use xlink:href="#DejaVuSans-30" transform="translate(63.623047 0)"/>
      </g>
     </g>
    </g>
    <g id="ytick_7">
     <g id="line2d_47">
      <g>
       <use xlink:href="#mcd122f5356" x="38.967106" y="33.524177" style="stroke: #000000; stroke-width: 0.8"/>
      </g>
     </g>
     <g id="text_48">
      <!-- 60 -->
      <g transform="translate(24.63916 40.924313) rotate(-45) scale(0.07 -0.07)">
       <defs>
        <path id="DejaVuSans-36" d="M 2113 2584 
Q 1688 2584 1439 2293 
Q 1191 2003 1191 1497 
Q 1191 994 1439 701 
Q 1688 409 2113 409 
Q 2538 409 2786 701 
Q 3034 994 3034 1497 
Q 3034 2003 2786 2293 
Q 2538 2584 2113 2584 
z
M 3366 4563 
L 3366 3988 
Q 3128 4100 2886 4159 
Q 2644 4219 2406 4219 
Q 1781 4219 1451 3797 
Q 1122 3375 1075 2522 
Q 1259 2794 1537 2939 
Q 1816 3084 2150 3084 
Q 2853 3084 3261 2657 
Q 3669 2231 3669 1497 
Q 3669 778 3244 343 
Q 2819 -91 2113 -91 
Q 1303 -91 875 529 
Q 447 1150 447 2328 
Q 447 3434 972 4092 
Q 1497 4750 2381 4750 
Q 2619 4750 2861 4703 
Q 3103 4656 3366 4563 
z
" transform="scale(0.015625)"/>
       </defs>
       <use xlink:href="#DejaVuSans-36"/>
       <use xlink:href="#DejaVuSans-30" transform="translate(63.623047 0)"/>
      </g>
     </g>
    </g>
    <g id="text_49">
     <!-- Hours -->
     <g transform="translate(14.798437 118.302938) rotate(-90) scale(0.1 -0.1)">
      <defs>
       <path id="DejaVuSans-6f" d="M 1959 3097 
Q 1497 3097 1228 2736 
Q 959 2375 959 1747 
Q 959 1119 1226 758 
Q 1494 397 1959 397 
Q 2419 397 2687 759 
Q 2956 1122 2956 1747 
Q 2956 2369 2687 2733 
Q 2419 3097 1959 3097 
z
M 1959 3584 
Q 2709 3584 3137 3096 
Q 3566 2609 3566 1747 
Q 3566 888 3137 398 
Q 2709 -91 1959 -91 
Q 1206 -91 779 398 
Q 353 888 353 1747 
Q 353 2609 779 3096 
Q 1206 3584 1959 3584 
z
" transform="scale(0.015625)"/>
       <path id="DejaVuSans-75" d="M 544 1381 
L 544 3500 
L 1119 3500 
L 1119 1403 
Q 1119 906 1312 657 
Q 1506 409 1894 409 
Q 2359 409 2629 706 
Q 2900 1003 2900 1516 
L 2900 3500 
L 3475 3500 
L 3475 0 
L 2900 0 
L 2900 538 
Q 2691 219 2414 64 
Q 2138 -91 1772 -91 
Q 1169 -91 856 284 
Q 544 659 544 1381 
z
M 1991 3584 
L 1991 3584 
z
" transform="scale(0.015625)"/>
       <path id="DejaVuSans-73" d="M 2834 3397 
L 2834 2853 
Q 2591 2978 2328 3040 
Q 2066 3103 1784 3103 
Q 1356 3103 1142 2972 
Q 928 2841 928 2578 
Q 928 2378 1081 2264 
Q 1234 2150 1697 2047 
L 1894 2003 
Q 2506 1872 2764 1633 
Q 3022 1394 3022 966 
Q 3022 478 2636 193 
Q 2250 -91 1575 -91 
Q 1294 -91 989 -36 
Q 684 19 347 128 
L 347 722 
Q 666 556 975 473 
Q 1284 391 1588 391 
Q 1994 391 2212 530 
Q 2431 669 2431 922 
Q 2431 1156 2273 1281 
Q 2116 1406 1581 1522 
L 1381 1569 
Q 847 1681 609 1914 
Q 372 2147 372 2553 
Q 372 3047 722 3315 
Q 1072 3584 1716 3584 
Q 2034 3584 2315 3537 
Q 2597 3491 2834 3397 
z
" transform="scale(0.015625)"/>
      </defs>
      <use xlink:href="#DejaVuSans-48"/>
      <use xlink:href="#DejaVuSans-6f" transform="translate(75.195312 0)"/>
      <use xlink:href="#DejaVuSans-75" transform="translate(136.376953 0)"/>
      <use xlink:href="#DejaVuSans-72" transform="translate(199.755859 0)"/>
      <use xlink:href="#DejaVuSans-73" transform="translate(240.869141 0)"/>
     </g>
    </g>
   </g>
   <g id="patch_163">
    <path d="M 38.967106 186.8145 
L 38.967106 20.4945 
" style="fill: none; stroke: #000000; stroke-width: 0.8; stroke-linejoin: miter; stroke-linecap: square"/>
   </g>
   <g id="patch_164">
    <path d="M 596.967106 186.8145 
L 596.967106 20.4945 
" style="fill: none; stroke: #000000; stroke-width: 0.8; stroke-linejoin: miter; stroke-linecap: square"/>
   </g>
   <g id="patch_165">
    <path d="M 38.967106 186.8145 
L 596.967106 186.8145 
" style="fill: none; stroke: #000000; stroke-width: 0.8; stroke-linejoin: miter; stroke-linecap: square"/>
   </g>
   <g id="patch_166">
    <path d="M 38.967106 20.4945 
L 596.967106 20.4945 
" style="fill: none; stroke: #000000; stroke-width: 0.8; stroke-linejoin: miter; stroke-linecap: square"/>
   </g>
   <g id="text_50">
    <!-- Departments with hours (40/72 shown) -->
    <g transform="translate(223.615606 14.4945) scale(0.096 -0.096)">
     <defs>
      <path id="DejaVuSans-20" transform="scale(0.015625)"/>
      <path id="DejaVuSans-77" d="M 269 3500 
L 844 3500 
L 1563 769 
L 2278 3500 
L 2956 3500 
L 3675 769 
L 4391 3500 
L 4966 3500 
L 4050 0 
L 3372 0 
L 2619 2869 
L 1863 0 
L 1184 0 
L 269 3500 
z
" transform="scale(0.015625)"/>
      <path id="DejaVuSans-69" d="M 603 3500 
L 1178 3500 
L 1178 0 
L 603 0 
L 603 3500 
z
M 603 4863 
L 1178 4863 
L 1178 4134 
L 603 4134 
L 603 4863 
z
" transform="scale(0.015625)"/>
      <path id="DejaVuSans-68" d="M 3513 2113 
L 3513 0 
L 2938 0 
L 2938 2094 
Q 2938 2591 2744 2837 
Q 2550 3084 2163 3084 
Q 1697 3084 1428 2787 
Q 1159 2491 1159 1978 
L 1159 0 
L 581 0 
L 581 4863 
L 1159 4863 
L 1159 2956 
Q 1366 3272 1645 3428 
Q 1925 3584 2291 3584 
Q 2894 3584 3203 3211 
Q 3513 2838 3513 2113 
z
" transform="scale(0.015625)"/>
      <path id="DejaVuSans-28" d="M 1984 4856 
Q 1566 4138 1362 3434 
Q 1159 2731 1159 2009 
Q 1159 1288 1364 580 
Q 1569 -128 1984 -844 
L 1484 -844 
Q 1016 -109 783 600 
Q 550 1309 550 2009 
Q 550 2706 781 3412 
Q 1013 4119 1484 4856 
L 1984 4856 
z
" transform="scale(0.015625)"/>
      <path id="DejaVuSans-2f" d="M 1625 4666 
L 2156 4666 
L 531 -594 
L 0 -594 
L 1625 4666 
z
" transform="scale(0.015625)"/>
      <path id="DejaVuSans-37" d="M 525 4666 
L 3525 4666 
L 3525 4397 
L 1831 0 
L 1172 0 
L 2766 4134 
L 525 4134 
L 525 4666 
z
" transform="scale(0.015625)"/>
      <path id="DejaVuSans-29" d="M 513 4856 
L 1013 4856 
Q 1481 4119 1714 3412 
Q 1947 2706 1947 2009 
Q 1947 1309 1714 600 
Q 1481 -109 1013 -844 
L 513 -844 
Q 928 -128 1133 580 
Q 1338 1288 1338 2009 
Q 1338 2731 1133 3434 
Q 928 4138 513 4856 
z
" transform="scale(0.015625)"/>
     </defs>
     <use xlink:href="#DejaVuSans-44"/>
     <use xlink:href="#DejaVuSans-65" transform="translate(77.001953 0)"/>
     <use xlink:href="#DejaVuSans-70" transform="translate(138.525391 0)"/>
     <use xlink:href="#DejaVuSans-61" transform="translate(202.001953 0)"/>
     <use xlink:href="#DejaVuSans-72" transform="translate(263.28125 0)"/>
     <use xlink:href="#DejaVuSans-74" transform="translate(304.394531 0)"/>
     <use xlink:href="#DejaVuSans-6d" transform="translate(343.603516 0)"/>
     <use xlink:href="#DejaVuSans-65" transform="translate(441.015625 0)"/>
     <use xlink:href="#DejaVuSans-6e" transform="translate(502.539062 0)"/>
     <use xlink:href="#DejaVuSans-74" transform="translate(565.917969 0)"/>
     <use xlink:href="#DejaVuSans-73" transform="translate(605.126953 0)"/>
     <use xlink:href="#DejaVuSans-20" transform="translate(657.226562 0)"/>
     <use xlink:href="#DejaVuSans-77" transform="translate(689.013672 0)"/>
     <use xlink:href="#DejaVuSans-69" transform="translate(770.800781 0)"/>
     <use xlink:href="#DejaVuSans-74" transform="translate(798.583984 0)"/>
     <use xlink:href="#DejaVuSans-68" transform="translate(837.792969 0)"/>
     <use xlink:href="#DejaVuSans-20" transform="translate(901.171875 0)"/>
     <use xlink:href="#DejaVuSans-68" transform="translate(932.958984 0)"/>
     <use xlink:href="#DejaVuSans-6f" transform="translate(996.337891 0)"/>
     <use xlink:href="#DejaVuSans-75" transform="translate(1057.519531 0)"/>
     <use xlink:href="#DejaVuSans-72" transform="translate(1120.898438 0)"/>
     <use xlink:href="#DejaVuSans-73" transform="translate(1162.011719 0)"/>
     <use xlink:href="#DejaVuSans-20" transform="translate(1214.111328 0)"/>
     <use xlink:href="#DejaVuSans-28" transform="translate(1245.898438 0)"/>
     <use xlink:href="#DejaVuSans-34" transform="translate(1284.912109 0)"/>
     <use xlink:href="#DejaVuSans-30" transform="translate(1348.535156 0)"/>
     <use xlink:href="#DejaVuSans-2f" transform="translate(1412.158203 0)"/>
     <use xlink:href="#DejaVuSans-37" transform="translate(1445.849609 0)"/>
     <use xlink:href="#DejaVuSans-32" transform="translate(1509.472656 0)"/>
     <use xlink:href="#DejaVuSans-20" transform="translate(1573.095703 0)"/>
     <use xlink:href="#DejaVuSans-73" transform="translate(1604.882812 0)"/>
     <use xlink:href="#DejaVuSans-68" transform="translate(1656.982422 0)"/>
     <use xlink:href="#DejaVuSans-6f" transform="translate(1720.361328 0)"/>
     <use xlink:href="#DejaVuSans-77" transform="translate(1781.542969 0)"/>
     <use xlink:href="#DejaVuSans-6e" transform="translate(1863.330078 0)"/>
     <use xlink:href="#DejaVuSans-29" transform="translate(1926.708984 0)"/>
    </g>
   </g>
   <g id="legend_1">
    <g id="patch_167">
     <path d="M 531.215856 73.8645 
L 591.367106 73.8645 
Q 592.967106 73.8645 592.967106 72.2645 
L 592.967106 26.0945 
Q 592.967106 24.4945 591.367106 24.4945 
L 531.215856 24.4945 
Q 529.615856 24.4945 529.615856 26.0945 
L 529.615856 72.2645 
Q 529.615856 73.8645 531.215856 73.8645 
z
" style="fill: #ffffff; opacity: 0.8; stroke: #cccccc; stroke-linejoin: miter"/>
    </g>
    <g id="patch_168">
     <path d="M 532.815856 33.77325 
L 548.815856 33.77325 
L 548.815856 28.17325 
L 532.815856 28.17325 
z
" style="fill: #1f77b4"/>
    </g>
    <g id="text_51">
     <!-- lecture -->
     <g transform="translate(555.215856 33.77325) scale(0.08 -0.08)">
      <defs>
       <path id="DejaVuSans-6c" d="M 603 4863 
L 1178 4863 
L 1178 0 
L 603 0 
L 603 4863 
z
" transform="scale(0.015625)"/>
       <path id="DejaVuSans-63" d="M 3122 3366 
L 3122 2828 
Q 2878 2963 2633 3030 
Q 2388 3097 2138 3097 
Q 1578 3097 1268 2742 
Q 959 2388 959 1747 
Q 959 1106 1268 751 
Q 1578 397 2138 397 
Q 2388 397 2633 464 
Q 2878 531 3122 666 
L 3122 134 
Q 2881 22 2623 -34 
Q 2366 -91 2075 -91 
Q 1284 -91 818 406 
Q 353 903 353 1747 
Q 353 2603 823 3093 
Q 1294 3584 2113 3584 
Q 2378 3584 2631 3529 
Q 2884 3475 3122 3366 
z
" transform="scale(0.015625)"/>
      </defs>
      <use xlink:href="#DejaVuSans-6c"/>
      <use xlink:href="#DejaVuSans-65" transform="translate(27.783203 0)"/>
      <use xlink:href="#DejaVuSans-63" transform="translate(89.306641 0)"/>
      <use xlink:href="#DejaVuSans-74" transform="translate(144.287109 0)"/>
      <use xlink:href="#DejaVuSans-75" transform="translate(183.496094 0)"/>
      <use xlink:href="#DejaVuSans-72" transform="translate(246.875 0)"/>
      <use xlink:href="#DejaVuSans-65" transform="translate(285.738281 0)"/>
     </g>
    </g>
    <g id="patch_169">
     <path d="M 532.815856 45.51575 
L 548.815856 45.51575 
L 548.815856 39.91575 
L 532.815856 39.91575 
z
" style="fill: #ff7f0e"/>
    </g>
    <g id="text_52">
     <!-- tutorial -->
     <g transform="translate(555.215856 45.51575) scale(0.08 -0.08)">
      <use xlink:href="#DejaVuSans-74"/>
      <use xlink:href="#DejaVuSans-75" transform="translate(39.208984 0)"/>
      <use xlink:href="#DejaVuSans-74" transform="translate(102.587891 0)"/>
      <use xlink:href="#DejaVuSans-6f" transform="translate(141.796875 0)"/>
      <use xlink:href="#DejaVuSans-72" transform="translate(202.978516 0)"/>
      <use xlink:href="#DejaVuSans-69" transform="translate(244.091797 0)"/>
      <use xlink:href="#DejaVuSans-61" transform="translate(271.875 0)"/>
      <use xlink:href="#DejaVuSans-6c" transform="translate(333.154297 0)"/>
     </g>
    </g>
    <g id="patch_170">
     <path d="M 532.815856 57.25825 
L 548.815856 57.25825 
L 548.815856 51.65825 
L 532.815856 51.65825 
z
" style="fill: #2ca02c"/>
    </g>
    <g id="text_53">
     <!-- seminar -->
     <g transform="translate(555.215856 57.25825) scale(0.08 -0.08)">
      <use xlink:href="#DejaVuSans-73"/>
      <use xlink:href="#DejaVuSans-65" transform="translate(52.099609 0)"/>
      <use xlink:href="#DejaVuSans-6d" transform="translate(113.623047 0)"/>
      <use xlink:href="#DejaVuSans-69" transform="translate(211.035156 0)"/>
      <use xlink:href="#DejaVuSans-6e" transform="translate(238.818359 0)"/>
      <use xlink:href="#DejaVuSans-61" transform="translate(302.197266 0)"/>
      <use xlink:href="#DejaVuSans-72" transform="translate(363.476562 0)"/>
     </g>
    </g>
    <g id="patch_171">
     <path d="M 532.815856 69.00075 
L 548.815856 69.00075 
L 548.815856 63.40075 
L 532.815856 63.40075 
z
" style="fill: #d62728"/>
    </g>
    <g id="text_54">
     <!-- practical -->
     <g transform="translate(555.215856 69.00075) scale(0.08 -0.08)">
      <use xlink:href="#DejaVuSans-70"/>
      <use xlink:href="#DejaVuSans-72" transform="translate(63.476562 0)"/>
      <use xlink:href="#DejaVuSans-61" transform="translate(104.589844 0)"/>
      <use xlink:href="#DejaVuSans-63" transform="translate(165.869141 0)"/>
      <use xlink:href="#DejaVuSans-74" transform="translate(220.849609 0)"/>
      <use xlink:href="#DejaVuSans-69" transform="translate(260.058594 0)"/>
      <use xlink:href="#DejaVuSans-63" transform="translate(287.841797 0)"/>
      <use xlink:href="#DejaVuSans-61" transform="translate(342.822266 0)"/>
      <use xlink:href="#DejaVuSans-6c" transform="translate(404.101562 0)"/>
     </g>
    </g>
   </g>
  </g>
 </g>
 <defs>
  <clipPath id="p93271e2171">
   <rect x="38.967106" y="20.4945" width="558" height="166.32"/>
  </clipPath>
 </defs>
</svg>
