<?xml version="1.0" encoding="utf-8" standalone="no"?>
<!DOCTYPE svg PUBLIC "-//W3C//DTD SVG 1.1//EN"
  "http://www.w3.org/Graphics/SVG/1.1/DTD/svg11.dtd">
<svg xmlns:xlink="http://www.w3.org/1999/xlink" width="605.380758pt" height="229.419087pt" viewBox="0 0 605.380758 229.419087" xmlns="http://www.w3.org/2000/svg" version="1.1">
 <metadata>
  <rdf:RDF xmlns:dc="http://purl.org/dc/elements/1.1/" xmlns:cc="http://creativecommons.org/ns#" xmlns:rdf="http://www.w3.org/1999/02/22-rdf-syntax-ns#">
   <cc:Work>
    <dc:type rdf:resource="http://purl.org/dc/dcmitype/StillImage"/>
    <dc:date>2026-05-02T12:56:22.465687</dc:date>
    <dc:format>image/svg+xml</dc:format>
    <dc:creator>
     <cc:Agent>
      <dc:title>Matplotlib v3.10.8, https://matplotlib.org/</dc:title>
     </cc:Agent>
    </dc:creator>
   </cc:Work>
  </rdf:RDF>
 </metadata>
 <defs>
  <style type="text/css">*{stroke-linejoin: round; stroke-linecap: butt}</style>
 </defs>
 <g id="figure_1">
  <g id="patch_1">
   <path d="M 0 229.419087 
L 605.380758 229.419087 
L 605.380758 -0 
L 0 -0 
L 0 229.419087 
z
" style="fill: none"/>
  </g>
  <g id="axes_1">
   <g id="patch_2">
    <path d="M 40.180758 186.8145 
L 598.180758 186.8145 
L 598.180758 20.4945 
L 40.180758 20.4945 
L 40.180758 186.8145 
z
" style="fill: none"/>
   </g>
   <g id="patch_3">
    <path d="M 65.544394 186.8145 
L 75.740831 186.8145 
L 75.740831 172.896508 
L 65.544394 172.896508 
z
" clip-path="url(#p29c779437c)" style="fill: #1f77b4"/>
   </g>
   <g id="patch_4">
    <path d="M 78.28994 186.8145 
L 88.486377 186.8145 
L 88.486377 176.873077 
L 78.28994 176.873077 
z
" clip-path="url(#p29c779437c)" style="fill: #1f77b4"/>
   </g>
   <g id="patch_5">
    <path d="M 91.035486 186.8145 
L 101.231923 186.8145 
L 101.231923 176.210316 
L 91.035486 176.210316 
z
" clip-path="url(#p29c779437c)" style="fill: #1f77b4"/>
   </g>
   <g id="patch_6">
    <path d="M 103.781032 186.8145 
L 113.977469 186.8145 
L 113.977469 182.837931 
L 103.781032 182.837931 
z
" clip-path="url(#p29c779437c)" style="fill: #1f77b4"/>
   </g>
   <g id="patch_7">
    <path d="M 116.526578 186.8145 
L 126.723015 186.8145 
L 126.723015 182.837931 
L 116.526578 182.837931 
z
" clip-path="url(#p29c779437c)" style="fill: #1f77b4"/>
   </g>
   <g id="patch_8">
    <path d="M 129.272124 186.8145 
L 139.468561 186.8145 
L 139.468561 179.524123 
L 129.272124 179.524123 
z
" clip-path="url(#p29c779437c)" style="fill: #1f77b4"/>
   </g>
   <g id="patch_9">
    <path d="M 142.01767 186.8145 
L 152.214107 186.8145 
L 152.214107 180.849646 
L 142.01767 180.849646 
z
" clip-path="url(#p29c779437c)" style="fill: #1f77b4"/>
   </g>
   <g id="patch_10">
    <path d="M 154.763216 186.8145 
L 164.959652 186.8145 
L 164.959652 181.512408 
L 154.763216 181.512408 
z
" clip-path="url(#p29c779437c)" style="fill: #1f77b4"/>
   </g>
   <g id="patch_11">
    <path d="M 167.508762 186.8145 
L 177.705198 186.8145 
L 177.705198 172.896508 
L 167.508762 172.896508 
z
" clip-path="url(#p29c779437c)" style="fill: #1f77b4"/>
   </g>
   <g id="patch_12">
    <path d="M 180.254308 186.8145 
L 190.450744 186.8145 
L 190.450744 181.512408 
L 180.254308 181.512408 
z
" clip-path="url(#p29c779437c)" style="fill: #1f77b4"/>
   </g>
   <g id="patch_13">
    <path d="M 192.999853 186.8145 
L 203.19629 186.8145 
L 203.19629 182.175169 
L 192.999853 182.175169 
z
" clip-path="url(#p29c779437c)" style="fill: #1f77b4"/>
   </g>
   <g id="patch_14">
    <path d="M 205.745399 186.8145 
L 215.941836 186.8145 
L 215.941836 180.849646 
L 205.745399 180.849646 
z
" clip-path="url(#p29c779437c)" style="fill: #1f77b4"/>
   </g>
   <g id="patch_15">
    <path d="M 218.490945 186.8145 
L 228.687382 186.8145 
L 228.687382 182.837931 
L 218.490945 182.837931 
z
" clip-path="url(#p29c779437c)" style="fill: #1f77b4"/>
   </g>
   <g id="patch_16">
    <path d="M 231.236491 186.8145 
L 241.432928 186.8145 
L 241.432928 180.849646 
L 231.236491 180.849646 
z
" clip-path="url(#p29c779437c)" style="fill: #1f77b4"/>
   </g>
   <g id="patch_17">
    <path d="M 243.982037 186.8145 
L 254.178474 186.8145 
L 254.178474 178.1986 
L 243.982037 178.1986 
z
" clip-path="url(#p29c779437c)" style="fill: #1f77b4"/>
   </g>
   <g id="patch_18">
    <path d="M 256.727583 186.8145 
L 266.92402 186.8145 
L 266.92402 184.826215 
L 256.727583 184.826215 
z
" clip-path="url(#p29c779437c)" style="fill: #1f77b4"/>
   </g>
   <g id="patch_19">
    <path d="M 269.473129 186.8145 
L 279.669566 186.8145 
L 279.669566 180.186885 
L 269.473129 180.186885 
z
" clip-path="url(#p29c779437c)" style="fill: #1f77b4"/>
   </g>
   <g id="patch_20">
    <path d="M 282.218675 186.8145 
L 292.415112 186.8145 
L 292.415112 181.512408 
L 282.218675 181.512408 
z
" clip-path="url(#p29c779437c)" style="fill: #1f77b4"/>
   </g>
   <g id="patch_21">
    <path d="M 294.964221 186.8145 
L 305.160657 186.8145 
L 305.160657 184.826215 
L 294.964221 184.826215 
z
" clip-path="url(#p29c779437c)" style="fill: #1f77b4"/>
   </g>
   <g id="patch_22">
    <path d="M 307.709767 186.8145 
L 317.906203 186.8145 
L 317.906203 182.837931 
L 307.709767 182.837931 
z
" clip-path="url(#p29c779437c)" style="fill: #1f77b4"/>
   </g>
   <g id="patch_23">
    <path d="M 320.455313 186.8145 
L 330.651749 186.8145 
L 330.651749 182.175169 
L 320.455313 182.175169 
z
" clip-path="url(#p29c779437c)" style="fill: #1f77b4"/>
   </g>
   <g id="patch_24">
    <path d="M 333.200858 186.8145 
L 343.397295 186.8145 
L 343.397295 180.186885 
L 333.200858 180.186885 
z
" clip-path="url(#p29c779437c)" style="fill: #1f77b4"/>
   </g>
   <g id="patch_25">
    <path d="M 345.946404 186.8145 
L 356.142841 186.8145 
L 356.142841 183.500692 
L 345.946404 183.500692 
z
" clip-path="url(#p29c779437c)" style="fill: #1f77b4"/>
   </g>
   <g id="patch_26">
    <path d="M 358.69195 186.8145 
L 368.888387 186.8145 
L 368.888387 183.500692 
L 358.69195 183.500692 
z
" clip-path="url(#p29c779437c)" style="fill: #1f77b4"/>
   </g>
   <g id="patch_27">
    <path d="M 371.437496 186.8145 
L 381.633933 186.8145 
L 381.633933 180.186885 
L 371.437496 180.186885 
z
" clip-path="url(#p29c779437c)" style="fill: #1f77b4"/>
   </g>
   <g id="patch_28">
    <path d="M 384.183042 186.8145 
L 394.379479 186.8145 
L 394.379479 182.175169 
L 384.183042 182.175169 
z
" clip-path="url(#p29c779437c)" style="fill: #1f77b4"/>
   </g>
   <g id="patch_29">
    <path d="M 396.928588 186.8145 
L 407.125025 186.8145 
L 407.125025 180.186885 
L 396.928588 180.186885 
z
" clip-path="url(#p29c779437c)" style="fill: #1f77b4"/>
   </g>
   <g id="patch_30">
    <path d="M 409.674134 186.8145 
L 419.870571 186.8145 
L 419.870571 182.837931 
L 409.674134 182.837931 
z
" clip-path="url(#p29c779437c)" style="fill: #1f77b4"/>
   </g>
   <g id="patch_31">
    <path d="M 422.41968 186.8145 
L 432.616117 186.8145 
L 432.616117 186.151738 
L 422.41968 186.151738 
z
" clip-path="url(#p29c779437c)" style="fill: #1f77b4"/>
   </g>
   <g id="patch_32">
    <path d="M 435.165226 186.8145 
L 445.361662 186.8145 
L 445.361662 186.151738 
L 435.165226 186.151738 
z
" clip-path="url(#p29c779437c)" style="fill: #1f77b4"/>
   </g>
   <g id="patch_33">
    <path d="M 447.910772 186.8145 
L 458.107208 186.8145 
L 458.107208 184.163454 
L 447.910772 184.163454 
z
" clip-path="url(#p29c779437c)" style="fill: #1f77b4"/>
   </g>
   <g id="patch_34">
    <path d="M 460.656318 186.8145 
L 470.852754 186.8145 
L 470.852754 186.8145 
L 460.656318 186.8145 
z
" clip-path="url(#p29c779437c)" style="fill: #1f77b4"/>
   </g>
   <g id="patch_35">
    <path d="M 473.401863 186.8145 
L 483.5983 186.8145 
L 483.5983 186.151738 
L 473.401863 186.151738 
z
" clip-path="url(#p29c779437c)" style="fill: #1f77b4"/>
   </g>
   <g id="patch_36">
    <path d="M 486.147409 186.8145 
L 496.343846 186.8145 
L 496.343846 186.151738 
L 486.147409 186.151738 
z
" clip-path="url(#p29c779437c)" style="fill: #1f77b4"/>
   </g>
   <g id="patch_37">
    <path d="M 498.892955 186.8145 
L 509.089392 186.8145 
L 509.089392 186.151738 
L 498.892955 186.151738 
z
" clip-path="url(#p29c779437c)" style="fill: #1f77b4"/>
   </g>
   <g id="patch_38">
    <path d="M 511.638501 186.8145 
L 521.834938 186.8145 
L 521.834938 184.163454 
L 511.638501 184.163454 
z
" clip-path="url(#p29c779437c)" style="fill: #1f77b4"/>
   </g>
   <g id="patch_39">
    <path d="M 524.384047 186.8145 
L 534.580484 186.8145 
L 534.580484 186.8145 
L 524.384047 186.8145 
z
" clip-path="url(#p29c779437c)" style="fill: #1f77b4"/>
   </g>
   <g id="patch_40">
    <path d="M 537.129593 186.8145 
L 547.32603 186.8145 
L 547.32603 186.151738 
L 537.129593 186.151738 
z
" clip-path="url(#p29c779437c)" style="fill: #1f77b4"/>
   </g>
   <g id="patch_41">
    <path d="M 549.875139 186.8145 
L 560.071576 186.8145 
L 560.071576 186.151738 
L 549.875139 186.151738 
z
" clip-path="url(#p29c779437c)" style="fill: #1f77b4"/>
   </g>
   <g id="patch_42">
    <path d="M 562.620685 186.8145 
L 572.817122 186.8145 
L 572.817122 184.163454 
L 562.620685 184.163454 
z
" clip-path="url(#p29c779437c)" style="fill: #1f77b4"/>
   </g>
   <g id="patch_43">
    <path d="M 65.544394 172.896508 
L 75.740831 172.896508 
L 75.740831 146.386048 
L 65.544394 146.386048 
z
" clip-path="url(#p29c779437c)" style="fill: #ff7f0e"/>
   </g>
   <g id="patch_44">
    <path d="M 78.28994 176.873077 
L 88.486377 176.873077 
L 88.486377 153.676425 
L 78.28994 153.676425 
z
" clip-path="url(#p29c779437c)" style="fill: #ff7f0e"/>
   </g>
   <g id="patch_45">
    <path d="M 91.035486 176.210316 
L 101.231923 176.210316 
L 101.231923 147.711571 
L 91.035486 147.711571 
z
" clip-path="url(#p29c779437c)" style="fill: #ff7f0e"/>
   </g>
   <g id="patch_46">
    <path d="M 103.781032 182.837931 
L 113.977469 182.837931 
L 113.977469 160.966801 
L 103.781032 160.966801 
z
" clip-path="url(#p29c779437c)" style="fill: #ff7f0e"/>
   </g>
   <g id="patch_47">
    <path d="M 116.526578 182.837931 
L 126.723015 182.837931 
L 126.723015 157.652994 
L 116.526578 157.652994 
z
" clip-path="url(#p29c779437c)" style="fill: #ff7f0e"/>
   </g>
   <g id="patch_48">
    <path d="M 129.272124 179.524123 
L 139.468561 179.524123 
L 139.468561 169.582701 
L 129.272124 169.582701 
z
" clip-path="url(#p29c779437c)" style="fill: #ff7f0e"/>
   </g>
   <g id="patch_49">
    <path d="M 142.01767 180.849646 
L 152.214107 180.849646 
L 152.214107 148.374333 
L 142.01767 148.374333 
z
" clip-path="url(#p29c779437c)" style="fill: #ff7f0e"/>
   </g>
   <g id="patch_50">
    <path d="M 154.763216 181.512408 
L 164.959652 181.512408 
L 164.959652 164.94337 
L 154.763216 164.94337 
z
" clip-path="url(#p29c779437c)" style="fill: #ff7f0e"/>
   </g>
   <g id="patch_51">
    <path d="M 167.508762 172.896508 
L 177.705198 172.896508 
L 177.705198 141.083956 
L 167.508762 141.083956 
z
" clip-path="url(#p29c779437c)" style="fill: #ff7f0e"/>
   </g>
   <g id="patch_52">
    <path d="M 180.254308 181.512408 
L 190.450744 181.512408 
L 190.450744 174.222031 
L 180.254308 174.222031 
z
" clip-path="url(#p29c779437c)" style="fill: #ff7f0e"/>
   </g>
   <g id="patch_53">
    <path d="M 192.999853 182.175169 
L 203.19629 182.175169 
L 203.19629 169.582701 
L 192.999853 169.582701 
z
" clip-path="url(#p29c779437c)" style="fill: #ff7f0e"/>
   </g>
   <g id="patch_54">
    <path d="M 205.745399 180.849646 
L 215.941836 180.849646 
L 215.941836 161.629563 
L 205.745399 161.629563 
z
" clip-path="url(#p29c779437c)" style="fill: #ff7f0e"/>
   </g>
   <g id="patch_55">
    <path d="M 218.490945 182.837931 
L 228.687382 182.837931 
L 228.687382 173.55927 
L 218.490945 173.55927 
z
" clip-path="url(#p29c779437c)" style="fill: #ff7f0e"/>
   </g>
   <g id="patch_56">
    <path d="M 231.236491 180.849646 
L 241.432928 180.849646 
L 241.432928 169.582701 
L 231.236491 169.582701 
z
" clip-path="url(#p29c779437c)" style="fill: #ff7f0e"/>
   </g>
   <g id="patch_57">
    <path d="M 243.982037 178.1986 
L 254.178474 178.1986 
L 254.178474 165.606132 
L 243.982037 165.606132 
z
" clip-path="url(#p29c779437c)" style="fill: #ff7f0e"/>
   </g>
   <g id="patch_58">
    <path d="M 256.727583 184.826215 
L 266.92402 184.826215 
L 266.92402 175.547554 
L 256.727583 175.547554 
z
" clip-path="url(#p29c779437c)" style="fill: #ff7f0e"/>
   </g>
   <g id="patch_59">
    <path d="M 269.473129 180.186885 
L 279.669566 180.186885 
L 279.669566 173.55927 
L 269.473129 173.55927 
z
" clip-path="url(#p29c779437c)" style="fill: #ff7f0e"/>
   </g>
   <g id="patch_60">
    <path d="M 282.218675 181.512408 
L 292.415112 181.512408 
L 292.415112 174.222031 
L 282.218675 174.222031 
z
" clip-path="url(#p29c779437c)" style="fill: #ff7f0e"/>
   </g>
   <g id="patch_61">
    <path d="M 294.964221 184.826215 
L 305.160657 184.826215 
L 305.160657 171.570985 
L 294.964221 171.570985 
z
" clip-path="url(#p29c779437c)" style="fill: #ff7f0e"/>
   </g>
   <g id="patch_62">
    <path d="M 307.709767 182.837931 
L 317.906203 182.837931 
L 317.906203 177.535839 
L 307.709767 177.535839 
z
" clip-path="url(#p29c779437c)" style="fill: #ff7f0e"/>
   </g>
   <g id="patch_63">
    <path d="M 320.455313 182.175169 
L 330.651749 182.175169 
L 330.651749 174.884793 
L 320.455313 174.884793 
z
" clip-path="url(#p29c779437c)" style="fill: #ff7f0e"/>
   </g>
   <g id="patch_64">
    <path d="M 333.200858 180.186885 
L 343.397295 180.186885 
L 343.397295 172.896508 
L 333.200858 172.896508 
z
" clip-path="url(#p29c779437c)" style="fill: #ff7f0e"/>
   </g>
   <g id="patch_65">
    <path d="M 345.946404 183.500692 
L 356.142841 183.500692 
L 356.142841 174.884793 
L 345.946404 174.884793 
z
" clip-path="url(#p29c779437c)" style="fill: #ff7f0e"/>
   </g>
   <g id="patch_66">
    <path d="M 358.69195 183.500692 
L 368.888387 183.500692 
L 368.888387 180.186885 
L 358.69195 180.186885 
z
" clip-path="url(#p29c779437c)" style="fill: #ff7f0e"/>
   </g>
   <g id="patch_67">
    <path d="M 371.437496 180.186885 
L 381.633933 180.186885 
L 381.633933 170.908224 
L 371.437496 170.908224 
z
" clip-path="url(#p29c779437c)" style="fill: #ff7f0e"/>
   </g>
   <g id="patch_68">
    <path d="M 384.183042 182.175169 
L 394.379479 182.175169 
L 394.379479 170.245462 
L 384.183042 170.245462 
z
" clip-path="url(#p29c779437c)" style="fill: #ff7f0e"/>
   </g>
   <g id="patch_69">
    <path d="M 396.928588 180.186885 
L 407.125025 180.186885 
L 407.125025 168.919939 
L 396.928588 168.919939 
z
" clip-path="url(#p29c779437c)" style="fill: #ff7f0e"/>
   </g>
   <g id="patch_70">
    <path d="M 409.674134 182.837931 
L 419.870571 182.837931 
L 419.870571 172.896508 
L 409.674134 172.896508 
z
" clip-path="url(#p29c779437c)" style="fill: #ff7f0e"/>
   </g>
   <g id="patch_71">
    <path d="M 422.41968 186.151738 
L 432.616117 186.151738 
L 432.616117 182.175169 
L 422.41968 182.175169 
z
" clip-path="url(#p29c779437c)" style="fill: #ff7f0e"/>
   </g>
   <g id="patch_72">
    <path d="M 435.165226 186.151738 
L 445.361662 186.151738 
L 445.361662 182.175169 
L 435.165226 182.175169 
z
" clip-path="url(#p29c779437c)" style="fill: #ff7f0e"/>
   </g>
   <g id="patch_73">
    <path d="M 447.910772 184.163454 
L 458.107208 184.163454 
L 458.107208 174.884793 
L 447.910772 174.884793 
z
" clip-path="url(#p29c779437c)" style="fill: #ff7f0e"/>
   </g>
   <g id="patch_74">
    <path d="M 460.656318 186.8145 
L 470.852754 186.8145 
L 470.852754 181.512408 
L 460.656318 181.512408 
z
" clip-path="url(#p29c779437c)" style="fill: #ff7f0e"/>
   </g>
   <g id="patch_75">
    <path d="M 473.401863 186.151738 
L 483.5983 186.151738 
L 483.5983 176.873077 
L 473.401863 176.873077 
z
" clip-path="url(#p29c779437c)" style="fill: #ff7f0e"/>
   </g>
   <g id="patch_76">
    <path d="M 486.147409 186.151738 
L 496.343846 186.151738 
L 496.343846 183.500692 
L 486.147409 183.500692 
z
" clip-path="url(#p29c779437c)" style="fill: #ff7f0e"/>
   </g>
   <g id="patch_77">
    <path d="M 498.892955 186.151738 
L 509.089392 186.151738 
L 509.089392 181.512408 
L 498.892955 181.512408 
z
" clip-path="url(#p29c779437c)" style="fill: #ff7f0e"/>
   </g>
   <g id="patch_78">
    <path d="M 511.638501 184.163454 
L 521.834938 184.163454 
L 521.834938 173.55927 
L 511.638501 173.55927 
z
" clip-path="url(#p29c779437c)" style="fill: #ff7f0e"/>
   </g>
   <g id="patch_79">
    <path d="M 524.384047 186.8145 
L 534.580484 186.8145 
L 534.580484 184.163454 
L 524.384047 184.163454 
z
" clip-path="url(#p29c779437c)" style="fill: #ff7f0e"/>
   </g>
   <g id="patch_80">
    <path d="M 537.129593 186.151738 
L 547.32603 186.151738 
L 547.32603 182.837931 
L 537.129593 182.837931 
z
" clip-path="url(#p29c779437c)" style="fill: #ff7f0e"/>
   </g>
   <g id="patch_81">
    <path d="M 549.875139 186.151738 
L 560.071576 186.151738 
L 560.071576 183.500692 
L 549.875139 183.500692 
z
" clip-path="url(#p29c779437c)" style="fill: #ff7f0e"/>
   </g>
   <g id="patch_82">
    <path d="M 562.620685 184.163454 
L 572.817122 184.163454 
L 572.817122 179.524123 
L 562.620685 179.524123 
z
" clip-path="url(#p29c779437c)" style="fill: #ff7f0e"/>
   </g>
   <g id="patch_83">
    <path d="M 65.544394 146.386048 
L 75.740831 146.386048 
L 75.740831 84.086467 
L 65.544394 84.086467 
z
" clip-path="url(#p29c779437c)" style="fill: #2ca02c"/>
   </g>
   <g id="patch_84">
    <path d="M 78.28994 153.676425 
L 88.486377 153.676425 
L 88.486377 96.016174 
L 78.28994 96.016174 
z
" clip-path="url(#p29c779437c)" style="fill: #2ca02c"/>
   </g>
   <g id="patch_85">
    <path d="M 91.035486 147.711571 
L 101.231923 147.711571 
L 101.231923 107.945881 
L 91.035486 107.945881 
z
" clip-path="url(#p29c779437c)" style="fill: #2ca02c"/>
   </g>
   <g id="patch_86">
    <path d="M 103.781032 160.966801 
L 113.977469 160.966801 
L 113.977469 114.573496 
L 103.781032 114.573496 
z
" clip-path="url(#p29c779437c)" style="fill: #2ca02c"/>
   </g>
   <g id="patch_87">
    <path d="M 116.526578 157.652994 
L 126.723015 157.652994 
L 126.723015 107.945881 
L 116.526578 107.945881 
z
" clip-path="url(#p29c779437c)" style="fill: #2ca02c"/>
   </g>
   <g id="patch_88">
    <path d="M 129.272124 169.582701 
L 139.468561 169.582701 
L 139.468561 126.503203 
L 129.272124 126.503203 
z
" clip-path="url(#p29c779437c)" style="fill: #2ca02c"/>
   </g>
   <g id="patch_89">
    <path d="M 142.01767 148.374333 
L 152.214107 148.374333 
L 152.214107 111.92245 
L 142.01767 111.92245 
z
" clip-path="url(#p29c779437c)" style="fill: #2ca02c"/>
   </g>
   <g id="patch_90">
    <path d="M 154.763216 164.94337 
L 164.959652 164.94337 
L 164.959652 128.491487 
L 154.763216 128.491487 
z
" clip-path="url(#p29c779437c)" style="fill: #2ca02c"/>
   </g>
   <g id="patch_91">
    <path d="M 167.508762 141.083956 
L 177.705198 141.083956 
L 177.705198 118.550065 
L 167.508762 118.550065 
z
" clip-path="url(#p29c779437c)" style="fill: #2ca02c"/>
   </g>
   <g id="patch_92">
    <path d="M 180.254308 174.222031 
L 190.450744 174.222031 
L 190.450744 143.072241 
L 180.254308 143.072241 
z
" clip-path="url(#p29c779437c)" style="fill: #2ca02c"/>
   </g>
   <g id="patch_93">
    <path d="M 192.999853 169.582701 
L 203.19629 169.582701 
L 203.19629 138.43291 
L 192.999853 138.43291 
z
" clip-path="url(#p29c779437c)" style="fill: #2ca02c"/>
   </g>
   <g id="patch_94">
    <path d="M 205.745399 161.629563 
L 215.941836 161.629563 
L 215.941836 119.212826 
L 205.745399 119.212826 
z
" clip-path="url(#p29c779437c)" style="fill: #2ca02c"/>
   </g>
   <g id="patch_95">
    <path d="M 218.490945 173.55927 
L 228.687382 173.55927 
L 228.687382 143.072241 
L 218.490945 143.072241 
z
" clip-path="url(#p29c779437c)" style="fill: #2ca02c"/>
   </g>
   <g id="patch_96">
    <path d="M 231.236491 169.582701 
L 241.432928 169.582701 
L 241.432928 139.758433 
L 231.236491 139.758433 
z
" clip-path="url(#p29c779437c)" style="fill: #2ca02c"/>
   </g>
   <g id="patch_97">
    <path d="M 243.982037 165.606132 
L 254.178474 165.606132 
L 254.178474 146.386048 
L 243.982037 146.386048 
z
" clip-path="url(#p29c779437c)" style="fill: #2ca02c"/>
   </g>
   <g id="patch_98">
    <path d="M 256.727583 175.547554 
L 266.92402 175.547554 
L 266.92402 148.374333 
L 256.727583 148.374333 
z
" clip-path="url(#p29c779437c)" style="fill: #2ca02c"/>
   </g>
   <g id="patch_99">
    <path d="M 269.473129 173.55927 
L 279.669566 173.55927 
L 279.669566 155.001948 
L 269.473129 155.001948 
z
" clip-path="url(#p29c779437c)" style="fill: #2ca02c"/>
   </g>
   <g id="patch_100">
    <path d="M 282.218675 174.222031 
L 292.415112 174.222031 
L 292.415112 154.339186 
L 282.218675 154.339186 
z
" clip-path="url(#p29c779437c)" style="fill: #2ca02c"/>
   </g>
   <g id="patch_101">
    <path d="M 294.964221 171.570985 
L 305.160657 171.570985 
L 305.160657 155.001948 
L 294.964221 155.001948 
z
" clip-path="url(#p29c779437c)" style="fill: #2ca02c"/>
   </g>
   <g id="patch_102">
    <path d="M 307.709767 177.535839 
L 317.906203 177.535839 
L 317.906203 155.664709 
L 307.709767 155.664709 
z
" clip-path="url(#p29c779437c)" style="fill: #2ca02c"/>
   </g>
   <g id="patch_103">
    <path d="M 320.455313 174.884793 
L 330.651749 174.884793 
L 330.651749 155.001948 
L 320.455313 155.001948 
z
" clip-path="url(#p29c779437c)" style="fill: #2ca02c"/>
   </g>
   <g id="patch_104">
    <path d="M 333.200858 172.896508 
L 343.397295 172.896508 
L 343.397295 159.641278 
L 333.200858 159.641278 
z
" clip-path="url(#p29c779437c)" style="fill: #2ca02c"/>
   </g>
   <g id="patch_105">
    <path d="M 345.946404 174.884793 
L 356.142841 174.884793 
L 356.142841 158.315755 
L 345.946404 158.315755 
z
" clip-path="url(#p29c779437c)" style="fill: #2ca02c"/>
   </g>
   <g id="patch_106">
    <path d="M 358.69195 180.186885 
L 368.888387 180.186885 
L 368.888387 166.268893 
L 358.69195 166.268893 
z
" clip-path="url(#p29c779437c)" style="fill: #2ca02c"/>
   </g>
   <g id="patch_107">
    <path d="M 371.437496 170.908224 
L 381.633933 170.908224 
L 381.633933 158.978517 
L 371.437496 158.978517 
z
" clip-path="url(#p29c779437c)" style="fill: #2ca02c"/>
   </g>
   <g id="patch_108">
    <path d="M 384.183042 170.245462 
L 394.379479 170.245462 
L 394.379479 149.037094 
L 384.183042 149.037094 
z
" clip-path="url(#p29c779437c)" style="fill: #2ca02c"/>
   </g>
   <g id="patch_109">
    <path d="M 396.928588 168.919939 
L 407.125025 168.919939 
L 407.125025 158.978517 
L 396.928588 158.978517 
z
" clip-path="url(#p29c779437c)" style="fill: #2ca02c"/>
   </g>
   <g id="patch_110">
    <path d="M 409.674134 172.896508 
L 419.870571 172.896508 
L 419.870571 154.339186 
L 409.674134 154.339186 
z
" clip-path="url(#p29c779437c)" style="fill: #2ca02c"/>
   </g>
   <g id="patch_111">
    <path d="M 422.41968 182.175169 
L 432.616117 182.175169 
L 432.616117 164.280609 
L 422.41968 164.280609 
z
" clip-path="url(#p29c779437c)" style="fill: #2ca02c"/>
   </g>
   <g id="patch_112">
    <path d="M 435.165226 182.175169 
L 445.361662 182.175169 
L 445.361662 164.280609 
L 435.165226 164.280609 
z
" clip-path="url(#p29c779437c)" style="fill: #2ca02c"/>
   </g>
   <g id="patch_113">
    <path d="M 447.910772 174.884793 
L 458.107208 174.884793 
L 458.107208 166.268893 
L 447.910772 166.268893 
z
" clip-path="url(#p29c779437c)" style="fill: #2ca02c"/>
   </g>
   <g id="patch_114">
    <path d="M 460.656318 181.512408 
L 470.852754 181.512408 
L 470.852754 166.268893 
L 460.656318 166.268893 
z
" clip-path="url(#p29c779437c)" style="fill: #2ca02c"/>
   </g>
   <g id="patch_115">
    <path d="M 473.401863 176.873077 
L 483.5983 176.873077 
L 483.5983 168.257178 
L 473.401863 168.257178 
z
" clip-path="url(#p29c779437c)" style="fill: #2ca02c"/>
   </g>
   <g id="patch_116">
    <path d="M 486.147409 183.500692 
L 496.343846 183.500692 
L 496.343846 174.884793 
L 486.147409 174.884793 
z
" clip-path="url(#p29c779437c)" style="fill: #2ca02c"/>
   </g>
   <g id="patch_117">
    <path d="M 498.892955 181.512408 
L 509.089392 181.512408 
L 509.089392 172.896508 
L 498.892955 172.896508 
z
" clip-path="url(#p29c779437c)" style="fill: #2ca02c"/>
   </g>
   <g id="patch_118">
    <path d="M 511.638501 173.55927 
L 521.834938 173.55927 
L 521.834938 164.94337 
L 511.638501 164.94337 
z
" clip-path="url(#p29c779437c)" style="fill: #2ca02c"/>
   </g>
   <g id="patch_119">
    <path d="M 524.384047 184.163454 
L 534.580484 184.163454 
L 534.580484 176.873077 
L 524.384047 176.873077 
z
" clip-path="url(#p29c779437c)" style="fill: #2ca02c"/>
   </g>
   <g id="patch_120">
    <path d="M 537.129593 182.837931 
L 547.32603 182.837931 
L 547.32603 172.896508 
L 537.129593 172.896508 
z
" clip-path="url(#p29c779437c)" style="fill: #2ca02c"/>
   </g>
   <g id="patch_121">
    <path d="M 549.875139 183.500692 
L 560.071576 183.500692 
L 560.071576 176.210316 
L 549.875139 176.210316 
z
" clip-path="url(#p29c779437c)" style="fill: #2ca02c"/>
   </g>
   <g id="patch_122">
    <path d="M 562.620685 179.524123 
L 572.817122 179.524123 
L 572.817122 173.55927 
L 562.620685 173.55927 
z
" clip-path="url(#p29c779437c)" style="fill: #2ca02c"/>
   </g>
   <g id="patch_123">
    <path d="M 65.544394 84.086467 
L 75.740831 84.086467 
L 75.740831 28.4145 
L 65.544394 28.4145 
z
" clip-path="url(#p29c779437c)" style="fill: #d62728"/>
   </g>
   <g id="patch_124">
    <path d="M 78.28994 96.016174 
L 88.486377 96.016174 
L 88.486377 62.215337 
L 78.28994 62.215337 
z
" clip-path="url(#p29c779437c)" style="fill: #d62728"/>
   </g>
   <g id="patch_125">
    <path d="M 91.035486 107.945881 
L 101.231923 107.945881 
L 101.231923 70.831236 
L 91.035486 70.831236 
z
" clip-path="url(#p29c779437c)" style="fill: #d62728"/>
   </g>
   <g id="patch_126">
    <path d="M 103.781032 114.573496 
L 113.977469 114.573496 
L 113.977469 82.098182 
L 103.781032 82.098182 
z
" clip-path="url(#p29c779437c)" style="fill: #d62728"/>
   </g>
   <g id="patch_127">
    <path d="M 116.526578 107.945881 
L 126.723015 107.945881 
L 126.723015 86.074751 
L 116.526578 86.074751 
z
" clip-path="url(#p29c779437c)" style="fill: #d62728"/>
   </g>
   <g id="patch_128">
    <path d="M 129.272124 126.503203 
L 139.468561 126.503203 
L 139.468561 86.737513 
L 129.272124 86.737513 
z
" clip-path="url(#p29c779437c)" style="fill: #d62728"/>
   </g>
   <g id="patch_129">
    <path d="M 142.01767 111.92245 
L 152.214107 111.92245 
L 152.214107 88.725797 
L 142.01767 88.725797 
z
" clip-path="url(#p29c779437c)" style="fill: #d62728"/>
   </g>
   <g id="patch_130">
    <path d="M 154.763216 128.491487 
L 164.959652 128.491487 
L 164.959652 99.992743 
L 154.763216 99.992743 
z
" clip-path="url(#p29c779437c)" style="fill: #d62728"/>
   </g>
   <g id="patch_131">
    <path d="M 167.508762 118.550065 
L 177.705198 118.550065 
L 177.705198 99.992743 
L 167.508762 99.992743 
z
" clip-path="url(#p29c779437c)" style="fill: #d62728"/>
   </g>
   <g id="patch_132">
    <path d="M 180.254308 143.072241 
L 190.450744 143.072241 
L 190.450744 107.945881 
L 180.254308 107.945881 
z
" clip-path="url(#p29c779437c)" style="fill: #d62728"/>
   </g>
   <g id="patch_133">
    <path d="M 192.999853 138.43291 
L 203.19629 138.43291 
L 203.19629 109.934165 
L 192.999853 109.934165 
z
" clip-path="url(#p29c779437c)" style="fill: #d62728"/>
   </g>
   <g id="patch_134">
    <path d="M 205.745399 119.212826 
L 215.941836 119.212826 
L 215.941836 109.934165 
L 205.745399 109.934165 
z
" clip-path="url(#p29c779437c)" style="fill: #d62728"/>
   </g>
   <g id="patch_135">
    <path d="M 218.490945 143.072241 
L 228.687382 143.072241 
L 228.687382 115.899019 
L 218.490945 115.899019 
z
" clip-path="url(#p29c779437c)" style="fill: #d62728"/>
   </g>
   <g id="patch_136">
    <path d="M 231.236491 139.758433 
L 241.432928 139.758433 
L 241.432928 118.550065 
L 231.236491 118.550065 
z
" clip-path="url(#p29c779437c)" style="fill: #d62728"/>
   </g>
   <g id="patch_137">
    <path d="M 243.982037 146.386048 
L 254.178474 146.386048 
L 254.178474 129.154249 
L 243.982037 129.154249 
z
" clip-path="url(#p29c779437c)" style="fill: #d62728"/>
   </g>
   <g id="patch_138">
    <path d="M 256.727583 148.374333 
L 266.92402 148.374333 
L 266.92402 134.456341 
L 256.727583 134.456341 
z
" clip-path="url(#p29c779437c)" style="fill: #d62728"/>
   </g>
   <g id="patch_139">
    <path d="M 269.473129 155.001948 
L 279.669566 155.001948 
L 279.669566 134.456341 
L 269.473129 134.456341 
z
" clip-path="url(#p29c779437c)" style="fill: #d62728"/>
   </g>
   <g id="patch_140">
    <path d="M 282.218675 154.339186 
L 292.415112 154.339186 
L 292.415112 140.421195 
L 282.218675 140.421195 
z
" clip-path="url(#p29c779437c)" style="fill: #d62728"/>
   </g>
   <g id="patch_141">
    <path d="M 294.964221 155.001948 
L 305.160657 155.001948 
L 305.160657 141.746718 
L 294.964221 141.746718 
z
" clip-path="url(#p29c779437c)" style="fill: #d62728"/>
   </g>
   <g id="patch_142">
    <path d="M 307.709767 155.664709 
L 317.906203 155.664709 
L 317.906203 142.409479 
L 307.709767 142.409479 
z
" clip-path="url(#p29c779437c)" style="fill: #d62728"/>
   </g>
   <g id="patch_143">
    <path d="M 320.455313 155.001948 
L 330.651749 155.001948 
L 330.651749 143.072241 
L 320.455313 143.072241 
z
" clip-path="url(#p29c779437c)" style="fill: #d62728"/>
   </g>
   <g id="patch_144">
    <path d="M 333.200858 159.641278 
L 343.397295 159.641278 
L 343.397295 143.735002 
L 333.200858 143.735002 
z
" clip-path="url(#p29c779437c)" style="fill: #d62728"/>
   </g>
   <g id="patch_145">
    <path d="M 345.946404 158.315755 
L 356.142841 158.315755 
L 356.142841 144.397764 
L 345.946404 144.397764 
z
" clip-path="url(#p29c779437c)" style="fill: #d62728"/>
   </g>
   <g id="patch_146">
    <path d="M 358.69195 166.268893 
L 368.888387 166.268893 
L 368.888387 145.060525 
L 358.69195 145.060525 
z
" clip-path="url(#p29c779437c)" style="fill: #d62728"/>
   </g>
   <g id="patch_147">
    <path d="M 371.437496 158.978517 
L 381.633933 158.978517 
L 381.633933 146.386048 
L 371.437496 146.386048 
z
" clip-path="url(#p29c779437c)" style="fill: #d62728"/>
   </g>
   <g id="patch_148">
    <path d="M 384.183042 149.037094 
L 394.379479 149.037094 
L 394.379479 146.386048 
L 384.183042 146.386048 
z
" clip-path="url(#p29c779437c)" style="fill: #d62728"/>
   </g>
   <g id="patch_149">
    <path d="M 396.928588 158.978517 
L 407.125025 158.978517 
L 407.125025 147.04881 
L 396.928588 147.04881 
z
" clip-path="url(#p29c779437c)" style="fill: #d62728"/>
   </g>
   <g id="patch_150">
    <path d="M 409.674134 154.339186 
L 419.870571 154.339186 
L 419.870571 147.711571 
L 409.674134 147.711571 
z
" clip-path="url(#p29c779437c)" style="fill: #d62728"/>
   </g>
   <g id="patch_151">
    <path d="M 422.41968 164.280609 
L 432.616117 164.280609 
L 432.616117 151.68814 
L 422.41968 151.68814 
z
" clip-path="url(#p29c779437c)" style="fill: #d62728"/>
   </g>
   <g id="patch_152">
    <path d="M 435.165226 164.280609 
L 445.361662 164.280609 
L 445.361662 152.350902 
L 435.165226 152.350902 
z
" clip-path="url(#p29c779437c)" style="fill: #d62728"/>
   </g>
   <g id="patch_153">
    <path d="M 447.910772 166.268893 
L 458.107208 166.268893 
L 458.107208 153.676425 
L 447.910772 153.676425 
z
" clip-path="url(#p29c779437c)" style="fill: #d62728"/>
   </g>
   <g id="patch_154">
    <path d="M 460.656318 166.268893 
L 470.852754 166.268893 
L 470.852754 156.990232 
L 460.656318 156.990232 
z
" clip-path="url(#p29c779437c)" style="fill: #d62728"/>
   </g>
   <g id="patch_155">
    <path d="M 473.401863 168.257178 
L 483.5983 168.257178 
L 483.5983 160.966801 
L 473.401863 160.966801 
z
" clip-path="url(#p29c779437c)" style="fill: #d62728"/>
   </g>
   <g id="patch_156">
    <path d="M 486.147409 174.884793 
L 496.343846 174.884793 
L 496.343846 161.629563 
L 486.147409 161.629563 
z
" clip-path="url(#p29c779437c)" style="fill: #d62728"/>
   </g>
   <g id="patch_157">
    <path d="M 498.892955 172.896508 
L 509.089392 172.896508 
L 509.089392 163.617847 
L 498.892955 163.617847 
z
" clip-path="url(#p29c779437c)" style="fill: #d62728"/>
   </g>
   <g id="patch_158">
    <path d="M 511.638501 164.94337 
L 521.834938 164.94337 
L 521.834938 164.280609 
L 511.638501 164.280609 
z
" clip-path="url(#p29c779437c)" style="fill: #d62728"/>
   </g>
   <g id="patch_159">
    <path d="M 524.384047 176.873077 
L 534.580484 176.873077 
L 534.580484 165.606132 
L 524.384047 165.606132 
z
" clip-path="url(#p29c779437c)" style="fill: #d62728"/>
   </g>
   <g id="patch_160">
    <path d="M 537.129593 172.896508 
L 547.32603 172.896508 
L 547.32603 167.594416 
L 537.129593 167.594416 
z
" clip-path="url(#p29c779437c)" style="fill: #d62728"/>
   </g>
   <g id="patch_161">
    <path d="M 549.875139 176.210316 
L 560.071576 176.210316 
L 560.071576 169.582701 
L 549.875139 169.582701 
z
" clip-path="url(#p29c779437c)" style="fill: #d62728"/>
   </g>
   <g id="patch_162">
    <path d="M 562.620685 173.55927 
L 572.817122 173.55927 
L 572.817122 170.245462 
L 562.620685 170.245462 
z
" clip-path="url(#p29c779437c)" style="fill: #d62728"/>
   </g>
   <g id="matplotlib.axis_1">
    <g id="xtick_1">
     <g id="line2d_1">
      <defs>
       <path id="m6197c6bdcc" d="M 0 0 
L 0 3.5 
" style="stroke: #000000; stroke-width: 0.8"/>
      </defs>
      <g>
       <use xlink:href="#m6197c6bdcc" x="70.642613" y="186.8145" style="stroke: #000000; stroke-width: 0.8"/>
      </g>
     </g>
     <g id="text_1">
      <!-- HIS -->
      <g transform="translate(67.846005 205.900391) rotate(-45) scale(0.07 -0.07)">
       <defs>
        <path id="DejaVuSans-48" d="M 628 4666 
L 1259 4666 
L 1259 2753 
L 3553 2753 
L 3553 4666 
L 4184 4666 
L 4184 0 
L 3553 0 
L 3553 2222 
L 1259 2222 
L 1259 0 
L 628 0 
L 628 4666 
z
" transform="scale(0.015625)"/>
        <path id="DejaVuSans-49" d="M 628 4666 
L 1259 4666 
L 1259 0 
L 628 0 
L 628 4666 
z
" transform="scale(0.015625)"/>
        <path id="DejaVuSans-53" d="M 3425 4513 
L 3425 3897 
Q 3066 4069 2747 4153 
Q 2428 4238 2131 4238 
Q 1616 4238 1336 4038 
Q 1056 3838 1056 3469 
Q 1056 3159 1242 3001 
Q 1428 2844 1947 2747 
L 2328 2669 
Q 3034 2534 3370 2195 
Q 3706 1856 3706 1288 
Q 3706 609 3251 259 
Q 2797 -91 1919 -91 
Q 1588 -91 1214 -16 
Q 841 59 441 206 
L 441 856 
Q 825 641 1194 531 
Q 1563 422 1919 422 
Q 2459 422 2753 634 
Q 3047 847 3047 1241 
Q 3047 1584 2836 1778 
Q 2625 1972 2144 2069 
L 1759 2144 
Q 1053 2284 737 2584 
Q 422 2884 422 3419 
Q 422 4038 858 4394 
Q 1294 4750 2059 4750 
Q 2388 4750 2728 4690 
Q 3069 4631 3425 4513 
z
" transform="scale(0.015625)"/>
       </defs>
       <use xlink:href="#DejaVuSans-48"/>
       <use xlink:href="#DejaVuSans-49" transform="translate(75.195312 0)"/>
       <use xlink:href="#DejaVuSans-53" transform="translate(104.6875 0)"/>
      </g>
     </g>
    </g>
    <g id="xtick_2">
     <g id="line2d_2">
      <g>
       <use xlink:href="#m6197c6bdcc" x="83.388159" y="186.8145" style="stroke: #000000; stroke-width: 0.8"/>
      </g>
     </g>
     <g id="text_2">
      <!-- RLG -->
      <g transform="translate(79.73772 207.608054) rotate(-45) scale(0.07 -0.07)">
       <defs>
        <path id="DejaVuSans-52" d="M 2841 2188 
Q 3044 2119 3236 1894 
Q 3428 1669 3622 1275 
L 4263 0 
L 3584 0 
L 2988 1197 
Q 2756 1666 2539 1819 
Q 2322 1972 1947 1972 
L 1259 1972 
L 1259 0 
L 628 0 
L 628 4666 
L 2053 4666 
Q 2853 4666 3247 4331 
Q 3641 3997 3641 3322 
Q 3641 2881 3436 2590 
Q 3231 2300 2841 2188 
z
M 1259 4147 
L 1259 2491 
L 2053 2491 
Q 2509 2491 2742 2702 
Q 2975 2913 2975 3322 
Q 2975 3731 2742 3939 
Q 2509 4147 2053 4147 
L 1259 4147 
z
" transform="scale(0.015625)"/>
        <path id="DejaVuSans-4c" d="M 628 4666 
L 1259 4666 
L 1259 531 
L 3531 531 
L 3531 0 
L 628 0 
L 628 4666 
z
" transform="scale(0.015625)"/>
        <path id="DejaVuSans-47" d="M 3809 666 
L 3809 1919 
L 2778 1919 
L 2778 2438 
L 4434 2438 
L 4434 434 
Q 4069 175 3628 42 
Q 3188 -91 2688 -91 
Q 1594 -91 976 548 
Q 359 1188 359 2328 
Q 359 3472 976 4111 
Q 1594 4750 2688 4750 
Q 3144 4750 3555 4637 
Q 3966 4525 4313 4306 
L 4313 3634 
Q 3963 3931 3569 4081 
Q 3175 4231 2741 4231 
Q 1884 4231 1454 3753 
Q 1025 3275 1025 2328 
Q 1025 1384 1454 906 
Q 1884 428 2741 428 
Q 3075 428 3337 486 
Q 3600 544 3809 666 
z
" transform="scale(0.015625)"/>
       </defs>
       <use xlink:href="#DejaVuSans-52"/>
       <use xlink:href="#DejaVuSans-4c" transform="translate(69.482422 0)"/>
       <use xlink:href="#DejaVuSans-47" transform="translate(125.195312 0)"/>
      </g>
     </g>
    </g>
    <g id="xtick_3">
     <g id="line2d_3">
      <g>
       <use xlink:href="#m6197c6bdcc" x="96.133705" y="186.8145" style="stroke: #000000; stroke-width: 0.8"/>
      </g>
     </g>
     <g id="text_3">
      <!-- EAS -->
      <g transform="translate(92.671588 207.231409) rotate(-45) scale(0.07 -0.07)">
       <defs>
        <path id="DejaVuSans-45" d="M 628 4666 
L 3578 4666 
L 3578 4134 
L 1259 4134 
L 1259 2753 
L 3481 2753 
L 3481 2222 
L 1259 2222 
L 1259 531 
L 3634 531 
L 3634 0 
L 628 0 
L 628 4666 
z
" transform="scale(0.015625)"/>
        <path id="DejaVuSans-41" d="M 2188 4044 
L 1331 1722 
L 3047 1722 
L 2188 4044 
z
M 1831 4666 
L 2547 4666 
L 4325 0 
L 3669 0 
L 3244 1197 
L 1141 1197 
L 716 0 
L 50 0 
L 1831 4666 
z
" transform="scale(0.015625)"/>
       </defs>
       <use xlink:href="#DejaVuSans-45"/>
       <use xlink:href="#DejaVuSans-41" transform="translate(63.183594 0)"/>
       <use xlink:href="#DejaVuSans-53" transform="translate(131.591797 0)"/>
      </g>
     </g>
    </g>
    <g id="xtick_4">
     <g id="line2d_4">
      <g>
       <use xlink:href="#m6197c6bdcc" x="108.87925" y="186.8145" style="stroke: #000000; stroke-width: 0.8"/>
      </g>
     </g>
     <g id="text_4">
      <!-- PHL -->
      <g transform="translate(105.512649 207.04038) rotate(-45) scale(0.07 -0.07)">
       <defs>
        <path id="DejaVuSans-50" d="M 1259 4147 
L 1259 2394 
L 2053 2394 
Q 2494 2394 2734 2622 
Q 2975 2850 2975 3272 
Q 2975 3691 2734 3919 
Q 2494 4147 2053 4147 
L 1259 4147 
z
M 628 4666 
L 2053 4666 
Q 2838 4666 3239 4311 
Q 3641 3956 3641 3272 
Q 3641 2581 3239 2228 
Q 2838 1875 2053 1875 
L 1259 1875 
L 1259 0 
L 628 0 
L 628 4666 
z
" transform="scale(0.015625)"/>
       </defs>
       <use xlink:href="#DejaVuSans-50"/>
       <use xlink:href="#DejaVuSans-48" transform="translate(60.302734 0)"/>
       <use xlink:href="#DejaVuSans-4c" transform="translate(135.498047 0)"/>
      </g>
     </g>
    </g>
    <g id="xtick_5">
     <g id="line2d_5">
      <g>
       <use xlink:href="#m6197c6bdcc" x="121.624796" y="186.8145" style="stroke: #000000; stroke-width: 0.8"/>
      </g>
     </g>
     <g id="text_5">
      <!-- SOC -->
      <g transform="translate(117.743112 208.070546) rotate(-45) scale(0.07 -0.07)">
       <defs>
        <path id="DejaVuSans-4f" d="M 2522 4238 
Q 1834 4238 1429 3725 
Q 1025 3213 1025 2328 
Q 1025 1447 1429 934 
Q 1834 422 2522 422 
Q 3209 422 3611 934 
Q 4013 1447 4013 2328 
Q 4013 3213 3611 3725 
Q 3209 4238 2522 4238 
z
M 2522 4750 
Q 3503 4750 4090 4092 
Q 4678 3434 4678 2328 
Q 4678 1225 4090 567 
Q 3503 -91 2522 -91 
Q 1538 -91 948 565 
Q 359 1222 359 2328 
Q 359 3434 948 4092 
Q 1538 4750 2522 4750 
z
" transform="scale(0.015625)"/>
        <path id="DejaVuSans-43" d="M 4122 4306 
L 4122 3641 
Q 3803 3938 3442 4084 
Q 3081 4231 2675 4231 
Q 1875 4231 1450 3742 
Q 1025 3253 1025 2328 
Q 1025 1406 1450 917 
Q 1875 428 2675 428 
Q 3081 428 3442 575 
Q 3803 722 4122 1019 
L 4122 359 
Q 3791 134 3420 21 
Q 3050 -91 2638 -91 
Q 1578 -91 968 557 
Q 359 1206 359 2328 
Q 359 3453 968 4101 
Q 1578 4750 2638 4750 
Q 3056 4750 3426 4639 
Q 3797 4528 4122 4306 
z
" transform="scale(0.015625)"/>
       </defs>
       <use xlink:href="#DejaVuSans-53"/>
       <use xlink:href="#DejaVuSans-4f" transform="translate(63.476562 0)"/>
       <use xlink:href="#DejaVuSans-43" transform="translate(142.1875 0)"/>
      </g>
     </g>
    </g>
    <g id="xtick_6">
     <g id="line2d_6">
      <g>
       <use xlink:href="#m6197c6bdcc" x="134.370342" y="186.8145" style="stroke: #000000; stroke-width: 0.8"/>
      </g>
     </g>
     <g id="text_6">
      <!-- POL -->
      <g transform="translate(130.916733 207.214394) rotate(-45) scale(0.07 -0.07)">
       <use xlink:href="#DejaVuSans-50"/>
       <use xlink:href="#DejaVuSans-4f" transform="translate(60.302734 0)"/>
       <use xlink:href="#DejaVuSans-4c" transform="translate(139.013672 0)"/>
      </g>
     </g>
    </g>
    <g id="xtick_7">
     <g id="line2d_7">
      <g>
       <use xlink:href="#m6197c6bdcc" x="147.115888" y="186.8145" style="stroke: #000000; stroke-width: 0.8"/>
      </g>
     </g>
     <g id="text_7">
      <!-- NMC -->
      <g transform="translate(142.766684 209.005584) rotate(-45) scale(0.07 -0.07)">
       <defs>
        <path id="DejaVuSans-4e" d="M 628 4666 
L 1478 4666 
L 3547 763 
L 3547 4666 
L 4159 4666 
L 4159 0 
L 3309 0 
L 1241 3903 
L 1241 0 
L 628 0 
L 628 4666 
z
" transform="scale(0.015625)"/>
        <path id="DejaVuSans-4d" d="M 628 4666 
L 1569 4666 
L 2759 1491 
L 3956 4666 
L 4897 4666 
L 4897 0 
L 4281 0 
L 4281 4097 
L 3078 897 
L 2444 897 
L 1241 4097 
L 1241 0 
L 628 0 
L 628 4666 
z
" transform="scale(0.015625)"/>
       </defs>
       <use xlink:href="#DejaVuSans-4e"/>
       <use xlink:href="#DejaVuSans-4d" transform="translate(74.804688 0)"/>
       <use xlink:href="#DejaVuSans-43" transform="translate(161.083984 0)"/>
      </g>
     </g>
    </g>
    <g id="xtick_8">
     <g id="line2d_8">
      <g>
       <use xlink:href="#m6197c6bdcc" x="159.861434" y="186.8145" style="stroke: #000000; stroke-width: 0.8"/>
      </g>
     </g>
     <g id="text_8">
      <!-- FAH -->
      <g transform="translate(156.475497 207.07905) rotate(-45) scale(0.07 -0.07)">
       <defs>
        <path id="DejaVuSans-46" d="M 628 4666 
L 3309 4666 
L 3309 4134 
L 1259 4134 
L 1259 2759 
L 3109 2759 
L 3109 2228 
L 1259 2228 
L 1259 0 
L 628 0 
L 628 4666 
z
" transform="scale(0.015625)"/>
       </defs>
       <use xlink:href="#DejaVuSans-46"/>
       <use xlink:href="#DejaVuSans-41" transform="translate(48.394531 0)"/>
       <use xlink:href="#DejaVuSans-48" transform="translate(116.802734 0)"/>
      </g>
     </g>
    </g>
    <g id="xtick_9">
     <g id="line2d_9">
      <g>
       <use xlink:href="#m6197c6bdcc" x="172.60698" y="186.8145" style="stroke: #000000; stroke-width: 0.8"/>
      </g>
     </g>
     <g id="text_9">
      <!-- SLA -->
      <g transform="translate(169.274021 206.973094) rotate(-45) scale(0.07 -0.07)">
       <use xlink:href="#DejaVuSans-53"/>
       <use xlink:href="#DejaVuSans-4c" transform="translate(63.476562 0)"/>
       <use xlink:href="#DejaVuSans-41" transform="translate(121.439453 0)"/>
      </g>
     </g>
    </g>
    <g id="xtick_10">
     <g id="line2d_10">
      <g>
       <use xlink:href="#m6197c6bdcc" x="185.352526" y="186.8145" style="stroke: #000000; stroke-width: 0.8"/>
      </g>
     </g>
     <g id="text_10">
      <!-- ANT -->
      <g transform="translate(181.662257 207.687714) rotate(-45) scale(0.07 -0.07)">
       <defs>
        <path id="DejaVuSans-54" d="M -19 4666 
L 3928 4666 
L 3928 4134 
L 2272 4134 
L 2272 0 
L 1638 0 
L 1638 4134 
L -19 4134 
L -19 4666 
z
" transform="scale(0.015625)"/>
       </defs>
       <use xlink:href="#DejaVuSans-41"/>
       <use xlink:href="#DejaVuSans-4e" transform="translate(68.408203 0)"/>
       <use xlink:href="#DejaVuSans-54" transform="translate(143.212891 0)"/>
      </g>
     </g>
    </g>
    <g id="xtick_11">
     <g id="line2d_11">
      <g>
       <use xlink:href="#m6197c6bdcc" x="198.098072" y="186.8145" style="stroke: #000000; stroke-width: 0.8"/>
      </g>
     </g>
     <g id="text_11">
      <!-- ECO -->
      <g transform="translate(194.223734 208.055852) rotate(-45) scale(0.07 -0.07)">
       <use xlink:href="#DejaVuSans-45"/>
       <use xlink:href="#DejaVuSans-43" transform="translate(63.183594 0)"/>
       <use xlink:href="#DejaVuSans-4f" transform="translate(133.007812 0)"/>
      </g>
     </g>
    </g>
    <g id="xtick_12">
     <g id="line2d_12">
      <g>
       <use xlink:href="#m6197c6bdcc" x="210.843618" y="186.8145" style="stroke: #000000; stroke-width: 0.8"/>
      </g>
     </g>
     <g id="text_12">
      <!-- ENG -->
      <g transform="translate(206.876472 208.241467) rotate(-45) scale(0.07 -0.07)">
       <use xlink:href="#DejaVuSans-45"/>
       <use xlink:href="#DejaVuSans-4e" transform="translate(63.183594 0)"/>
       <use xlink:href="#DejaVuSans-47" transform="translate(137.988281 0)"/>
      </g>
     </g>
    </g>
    <g id="xtick_13">
     <g id="line2d_13">
      <g>
       <use xlink:href="#m6197c6bdcc" x="223.589164" y="186.8145" style="stroke: #000000; stroke-width: 0.8"/>
      </g>
     </g>
     <g id="text_13">
      <!-- PSY -->
      <g transform="translate(220.379948 206.725607) rotate(-45) scale(0.07 -0.07)">
       <defs>
        <path id="DejaVuSans-59" d="M -13 4666 
L 666 4666 
L 1959 2747 
L 3244 4666 
L 3922 4666 
L 2272 2222 
L 2272 0 
L 1638 0 
L 1638 2222 
L -13 4666 
z
" transform="scale(0.015625)"/>
       </defs>
       <use xlink:href="#DejaVuSans-50"/>
       <use xlink:href="#DejaVuSans-53" transform="translate(60.302734 0)"/>
       <use xlink:href="#DejaVuSans-59" transform="translate(123.779297 0)"/>
      </g>
     </g>
    </g>
    <g id="xtick_14">
     <g id="line2d_14">
      <g>
       <use xlink:href="#m6197c6bdcc" x="236.33471" y="186.8145" style="stroke: #000000; stroke-width: 0.8"/>
      </g>
     </g>
     <g id="text_14">
      <!-- GGR -->
      <g transform="translate(232.145599 208.685398) rotate(-45) scale(0.07 -0.07)">
       <use xlink:href="#DejaVuSans-47"/>
       <use xlink:href="#DejaVuSans-47" transform="translate(77.490234 0)"/>
       <use xlink:href="#DejaVuSans-52" transform="translate(154.980469 0)"/>
      </g>
     </g>
    </g>
    <g id="xtick_15">
     <g id="line2d_15">
      <g>
       <use xlink:href="#m6197c6bdcc" x="249.080255" y="186.8145" style="stroke: #000000; stroke-width: 0.8"/>
      </g>
     </g>
     <g id="text_15">
      <!-- MAT -->
      <g transform="translate(245.297952 207.871783) rotate(-45) scale(0.07 -0.07)">
       <use xlink:href="#DejaVuSans-4d"/>
       <use xlink:href="#DejaVuSans-41" transform="translate(86.279297 0)"/>
       <use xlink:href="#DejaVuSans-54" transform="translate(146.9375 0)"/>
      </g>
     </g>
    </g>
    <g id="xtick_16">
     <g id="line2d_16">
      <g>
       <use xlink:href="#m6197c6bdcc" x="261.825801" y="186.8145" style="stroke: #000000; stroke-width: 0.8"/>
      </g>
     </g>
     <g id="text_16">
      <!-- CIN -->
      <g transform="translate(258.881862 206.195056) rotate(-45) scale(0.07 -0.07)">
       <use xlink:href="#DejaVuSans-43"/>
       <use xlink:href="#DejaVuSans-49" transform="translate(69.824219 0)"/>
       <use xlink:href="#DejaVuSans-4e" transform="translate(99.316406 0)"/>
      </g>
     </g>
    </g>
    <g id="xtick_17">
     <g id="line2d_17">
      <g>
       <use xlink:href="#m6197c6bdcc" x="274.571347" y="186.8145" style="stroke: #000000; stroke-width: 0.8"/>
      </g>
     </g>
     <g id="text_17">
      <!-- CSC -->
      <g transform="translate(270.909694 207.630483) rotate(-45) scale(0.07 -0.07)">
       <use xlink:href="#DejaVuSans-43"/>
       <use xlink:href="#DejaVuSans-53" transform="translate(69.824219 0)"/>
       <use xlink:href="#DejaVuSans-43" transform="translate(133.300781 0)"/>
      </g>
     </g>
    </g>
    <g id="xtick_18">
     <g id="line2d_18">
      <g>
       <use xlink:href="#m6197c6bdcc" x="287.316893" y="186.8145" style="stroke: #000000; stroke-width: 0.8"/>
      </g>
     </g>
     <g id="text_18">
      <!-- ENV -->
      <g transform="translate(283.57442 207.792123) rotate(-45) scale(0.07 -0.07)">
       <defs>
        <path id="DejaVuSans-56" d="M 1831 0 
L 50 4666 
L 709 4666 
L 2188 738 
L 3669 4666 
L 4325 4666 
L 2547 0 
L 1831 0 
z
" transform="scale(0.015625)"/>
       </defs>
       <use xlink:href="#DejaVuSans-45"/>
       <use xlink:href="#DejaVuSans-4e" transform="translate(63.183594 0)"/>
       <use xlink:href="#DejaVuSans-56" transform="translate(137.988281 0)"/>
      </g>
     </g>
    </g>
    <g id="xtick_19">
     <g id="line2d_19">
      <g>
       <use xlink:href="#m6197c6bdcc" x="300.062439" y="186.8145" style="stroke: #000000; stroke-width: 0.8"/>
      </g>
     </g>
     <g id="text_19">
      <!-- HPS -->
      <g transform="translate(296.503648 207.424759) rotate(-45) scale(0.07 -0.07)">
       <use xlink:href="#DejaVuSans-48"/>
       <use xlink:href="#DejaVuSans-50" transform="translate(75.195312 0)"/>
       <use xlink:href="#DejaVuSans-53" transform="translate(135.498047 0)"/>
      </g>
     </g>
    </g>
    <g id="xtick_20">
     <g id="line2d_20">
      <g>
       <use xlink:href="#m6197c6bdcc" x="312.807985" y="186.8145" style="stroke: #000000; stroke-width: 0.8"/>
      </g>
     </g>
     <g id="text_20">
      <!-- ITA -->
      <g transform="translate(310.430946 205.061254) rotate(-45) scale(0.07 -0.07)">
       <use xlink:href="#DejaVuSans-49"/>
       <use xlink:href="#DejaVuSans-54" transform="translate(29.492188 0)"/>
       <use xlink:href="#DejaVuSans-41" transform="translate(82.826172 0)"/>
      </g>
     </g>
    </g>
    <g id="xtick_21">
     <g id="line2d_21">
      <g>
       <use xlink:href="#m6197c6bdcc" x="325.553531" y="186.8145" style="stroke: #000000; stroke-width: 0.8"/>
      </g>
     </g>
     <g id="text_21">
      <!-- SPA -->
      <g transform="translate(322.320727 206.772784) rotate(-45) scale(0.07 -0.07)">
       <use xlink:href="#DejaVuSans-53"/>
       <use xlink:href="#DejaVuSans-50" transform="translate(63.476562 0)"/>
       <use xlink:href="#DejaVuSans-41" transform="translate(117.404297 0)"/>
      </g>
     </g>
    </g>
    <g id="xtick_22">
     <g id="line2d_22">
      <g>
       <use xlink:href="#m6197c6bdcc" x="338.299077" y="186.8145" style="stroke: #000000; stroke-width: 0.8"/>
      </g>
     </g>
     <g id="text_22">
      <!-- PHY -->
      <g transform="translate(334.799837 207.305655) rotate(-45) scale(0.07 -0.07)">
       <use xlink:href="#DejaVuSans-50"/>
       <use xlink:href="#DejaVuSans-48" transform="translate(60.302734 0)"/>
       <use xlink:href="#DejaVuSans-59" transform="translate(135.498047 0)"/>
      </g>
     </g>
    </g>
    <g id="xtick_23">
     <g id="line2d_23">
      <g>
       <use xlink:href="#m6197c6bdcc" x="351.044623" y="186.8145" style="stroke: #000000; stroke-width: 0.8"/>
      </g>
     </g>
     <g id="text_23">
      <!-- EEB -->
      <g transform="translate(347.584827 207.226769) rotate(-45) scale(0.07 -0.07)">
       <defs>
        <path id="DejaVuSans-42" d="M 1259 2228 
L 1259 519 
L 2272 519 
Q 2781 519 3026 730 
Q 3272 941 3272 1375 
Q 3272 1813 3026 2020 
Q 2781 2228 2272 2228 
L 1259 2228 
z
M 1259 4147 
L 1259 2741 
L 2194 2741 
Q 2656 2741 2882 2914 
Q 3109 3088 3109 3444 
Q 3109 3797 2882 3972 
Q 2656 4147 2194 4147 
L 1259 4147 
z
M 628 4666 
L 2241 4666 
Q 2963 4666 3353 4366 
Q 3744 4066 3744 3513 
Q 3744 3084 3544 2831 
Q 3344 2578 2956 2516 
Q 3422 2416 3680 2098 
Q 3938 1781 3938 1306 
Q 3938 681 3513 340 
Q 3088 0 2303 0 
L 628 0 
L 628 4666 
z
" transform="scale(0.015625)"/>
       </defs>
       <use xlink:href="#DejaVuSans-45"/>
       <use xlink:href="#DejaVuSans-45" transform="translate(63.183594 0)"/>
       <use xlink:href="#DejaVuSans-42" transform="translate(126.367188 0)"/>
      </g>
     </g>
    </g>
    <g id="xtick_24">
     <g id="line2d_24">
      <g>
       <use xlink:href="#m6197c6bdcc" x="363.790169" y="186.8145" style="stroke: #000000; stroke-width: 0.8"/>
      </g>
     </g>
     <g id="text_24">
      <!-- CSB -->
      <g transform="translate(360.158678 207.570158) rotate(-45) scale(0.07 -0.07)">
       <use xlink:href="#DejaVuSans-43"/>
       <use xlink:href="#DejaVuSans-53" transform="translate(69.824219 0)"/>
       <use xlink:href="#DejaVuSans-42" transform="translate(133.300781 0)"/>
      </g>
     </g>
    </g>
    <g id="xtick_25">
     <g id="line2d_25">
      <g>
       <use xlink:href="#m6197c6bdcc" x="376.535715" y="186.8145" style="stroke: #000000; stroke-width: 0.8"/>
      </g>
     </g>
     <g id="text_25">
      <!-- CHM -->
      <g transform="translate(372.176843 209.024919) rotate(-45) scale(0.07 -0.07)">
       <use xlink:href="#DejaVuSans-43"/>
       <use xlink:href="#DejaVuSans-48" transform="translate(69.824219 0)"/>
       <use xlink:href="#DejaVuSans-4d" transform="translate(145.019531 0)"/>
      </g>
     </g>
    </g>
    <g id="xtick_26">
     <g id="line2d_26">
      <g>
       <use xlink:href="#m6197c6bdcc" x="389.28126" y="186.8145" style="stroke: #000000; stroke-width: 0.8"/>
      </g>
     </g>
     <g id="text_26">
      <!-- CLA -->
      <g transform="translate(385.791302 207.287094) rotate(-45) scale(0.07 -0.07)">
       <use xlink:href="#DejaVuSans-43"/>
       <use xlink:href="#DejaVuSans-4c" transform="translate(69.824219 0)"/>
       <use xlink:href="#DejaVuSans-41" transform="translate(127.787109 0)"/>
      </g>
     </g>
    </g>
    <g id="xtick_27">
     <g id="line2d_27">
      <g>
       <use xlink:href="#m6197c6bdcc" x="402.026806" y="186.8145" style="stroke: #000000; stroke-width: 0.8"/>
      </g>
     </g>
     <g id="text_27">
      <!-- LIN -->
      <g transform="translate(399.432056 205.496677) rotate(-45) scale(0.07 -0.07)">
       <use xlink:href="#DejaVuSans-4c"/>
       <use xlink:href="#DejaVuSans-49" transform="translate(55.712891 0)"/>
       <use xlink:href="#DejaVuSans-4e" transform="translate(85.205078 0)"/>
      </g>
     </g>
    </g>
    <g id="xtick_28">
     <g id="line2d_28">
      <g>
       <use xlink:href="#m6197c6bdcc" x="414.772352" y="186.8145" style="stroke: #000000; stroke-width: 0.8"/>
      </g>
     </g>
     <g id="text_28">
      <!-- GER -->
      <g transform="translate(410.937071 207.977738) rotate(-45) scale(0.07 -0.07)">
       <use xlink:href="#DejaVuSans-47"/>
       <use xlink:href="#DejaVuSans-45" transform="translate(77.490234 0)"/>
       <use xlink:href="#DejaVuSans-52" transform="translate(140.673828 0)"/>
      </g>
     </g>
    </g>
    <g id="xtick_29">
     <g id="line2d_29">
      <g>
       <use xlink:href="#m6197c6bdcc" x="427.517898" y="186.8145" style="stroke: #000000; stroke-width: 0.8"/>
      </g>
     </g>
     <g id="text_29">
      <!-- WGS -->
      <g transform="translate(422.947889 209.447195) rotate(-45) scale(0.07 -0.07)">
       <defs>
        <path id="DejaVuSans-57" d="M 213 4666 
L 850 4666 
L 1831 722 
L 2809 4666 
L 3519 4666 
L 4500 722 
L 5478 4666 
L 6119 4666 
L 4947 0 
L 4153 0 
L 3169 4050 
L 2175 0 
L 1381 0 
L 213 4666 
z
" transform="scale(0.015625)"/>
       </defs>
       <use xlink:href="#DejaVuSans-57"/>
       <use xlink:href="#DejaVuSans-47" transform="translate(98.876953 0)"/>
       <use xlink:href="#DejaVuSans-53" transform="translate(176.367188 0)"/>
      </g>
     </g>
    </g>
    <g id="xtick_30">
     <g id="line2d_30">
      <g>
       <use xlink:href="#m6197c6bdcc" x="440.263444" y="186.8145" style="stroke: #000000; stroke-width: 0.8"/>
      </g>
     </g>
     <g id="text_30">
      <!-- CRI -->
      <g transform="translate(437.451369 205.931327) rotate(-45) scale(0.07 -0.07)">
       <use xlink:href="#DejaVuSans-43"/>
       <use xlink:href="#DejaVuSans-52" transform="translate(69.824219 0)"/>
       <use xlink:href="#DejaVuSans-49" transform="translate(139.306641 0)"/>
      </g>
     </g>
    </g>
    <g id="xtick_31">
     <g id="line2d_31">
      <g>
       <use xlink:href="#m6197c6bdcc" x="453.00899" y="186.8145" style="stroke: #000000; stroke-width: 0.8"/>
      </g>
     </g>
     <g id="text_31">
      <!-- STA -->
      <g transform="translate(449.790881 206.743395) rotate(-45) scale(0.07 -0.07)">
       <use xlink:href="#DejaVuSans-53"/>
       <use xlink:href="#DejaVuSans-54" transform="translate(63.476562 0)"/>
       <use xlink:href="#DejaVuSans-41" transform="translate(116.810547 0)"/>
      </g>
     </g>
    </g>
    <g id="xtick_32">
     <g id="line2d_32">
      <g>
       <use xlink:href="#m6197c6bdcc" x="465.754536" y="186.8145" style="stroke: #000000; stroke-width: 0.8"/>
      </g>
     </g>
     <g id="text_32">
      <!-- FRE -->
      <g transform="translate(462.413456 206.989336) rotate(-45) scale(0.07 -0.07)">
       <use xlink:href="#DejaVuSans-46"/>
       <use xlink:href="#DejaVuSans-52" transform="translate(57.519531 0)"/>
       <use xlink:href="#DejaVuSans-45" transform="translate(127.001953 0)"/>
      </g>
     </g>
    </g>
    <g id="xtick_33">
     <g id="line2d_33">
      <g>
       <use xlink:href="#m6197c6bdcc" x="478.500082" y="186.8145" style="stroke: #000000; stroke-width: 0.8"/>
      </g>
     </g>
     <g id="text_33">
      <!-- MST -->
      <g transform="translate(474.647786 208.011768) rotate(-45) scale(0.07 -0.07)">
       <use xlink:href="#DejaVuSans-4d"/>
       <use xlink:href="#DejaVuSans-53" transform="translate(86.279297 0)"/>
       <use xlink:href="#DejaVuSans-54" transform="translate(149.755859 0)"/>
      </g>
     </g>
    </g>
    <g id="xtick_34">
     <g id="line2d_34">
      <g>
       <use xlink:href="#m6197c6bdcc" x="491.245628" y="186.8145" style="stroke: #000000; stroke-width: 0.8"/>
      </g>
     </g>
     <g id="text_34">
      <!-- PSL -->
      <g transform="translate(488.16905 206.460331) rotate(-45) scale(0.07 -0.07)">
       <use xlink:href="#DejaVuSans-50"/>
       <use xlink:href="#DejaVuSans-53" transform="translate(60.302734 0)"/>
       <use xlink:href="#DejaVuSans-4c" transform="translate(123.779297 0)"/>
      </g>
     </g>
    </g>
    <g id="xtick_35">
     <g id="line2d_35">
      <g>
       <use xlink:href="#m6197c6bdcc" x="503.991174" y="186.8145" style="stroke: #000000; stroke-width: 0.8"/>
      </g>
     </g>
     <g id="text_35">
      <!-- PCL -->
      <g transform="translate(500.757596 206.774331) rotate(-45) scale(0.07 -0.07)">
       <use xlink:href="#DejaVuSans-50"/>
       <use xlink:href="#DejaVuSans-43" transform="translate(60.302734 0)"/>
       <use xlink:href="#DejaVuSans-4c" transform="translate(130.126953 0)"/>
      </g>
     </g>
    </g>
    <g id="xtick_36">
     <g id="line2d_36">
      <g>
       <use xlink:href="#m6197c6bdcc" x="516.73672" y="186.8145" style="stroke: #000000; stroke-width: 0.8"/>
      </g>
     </g>
     <g id="text_36">
      <!-- MUS -->
      <g transform="translate(512.584732 208.611151) rotate(-45) scale(0.07 -0.07)">
       <defs>
        <path id="DejaVuSans-55" d="M 556 4666 
L 1191 4666 
L 1191 1831 
Q 1191 1081 1462 751 
Q 1734 422 2344 422 
Q 2950 422 3222 751 
Q 3494 1081 3494 1831 
L 3494 4666 
L 4128 4666 
L 4128 1753 
Q 4128 841 3676 375 
Q 3225 -91 2344 -91 
Q 1459 -91 1007 375 
Q 556 841 556 1753 
L 556 4666 
z
" transform="scale(0.015625)"/>
       </defs>
       <use xlink:href="#DejaVuSans-4d"/>
       <use xlink:href="#DejaVuSans-55" transform="translate(86.279297 0)"/>
       <use xlink:href="#DejaVuSans-53" transform="translate(159.472656 0)"/>
      </g>
     </g>
    </g>
    <g id="xtick_37">
     <g id="line2d_37">
      <g>
       <use xlink:href="#m6197c6bdcc" x="529.482265" y="186.8145" style="stroke: #000000; stroke-width: 0.8"/>
      </g>
     </g>
     <g id="text_37">
      <!-- BCH -->
      <g transform="translate(525.604061 208.063586) rotate(-45) scale(0.07 -0.07)">
       <use xlink:href="#DejaVuSans-42"/>
       <use xlink:href="#DejaVuSans-43" transform="translate(66.853516 0)"/>
       <use xlink:href="#DejaVuSans-48" transform="translate(136.677734 0)"/>
      </g>
     </g>
    </g>
    <g id="xtick_38">
     <g id="line2d_38">
      <g>
       <use xlink:href="#m6197c6bdcc" x="542.227811" y="186.8145" style="stroke: #000000; stroke-width: 0.8"/>
      </g>
     </g>
     <g id="text_38">
      <!-- IRE -->
      <g transform="translate(539.580083 205.602633) rotate(-45) scale(0.07 -0.07)">
       <use xlink:href="#DejaVuSans-49"/>
       <use xlink:href="#DejaVuSans-52" transform="translate(29.492188 0)"/>
       <use xlink:href="#DejaVuSans-45" transform="translate(98.974609 0)"/>
      </g>
     </g>
    </g>
    <g id="xtick_39">
     <g id="line2d_39">
      <g>
       <use xlink:href="#m6197c6bdcc" x="554.973357" y="186.8145" style="stroke: #000000; stroke-width: 0.8"/>
      </g>
     </g>
     <g id="text_39">
      <!-- SDS -->
      <g transform="translate(551.291209 207.671473) rotate(-45) scale(0.07 -0.07)">
       <defs>
        <path id="DejaVuSans-44" d="M 1259 4147 
L 1259 519 
L 2022 519 
Q 2988 519 3436 956 
Q 3884 1394 3884 2338 
Q 3884 3275 3436 3711 
Q 2988 4147 2022 4147 
L 1259 4147 
z
M 628 4666 
L 1925 4666 
Q 3281 4666 3915 4102 
Q 4550 3538 4550 2338 
Q 4550 1131 3912 565 
Q 3275 0 1925 0 
L 628 0 
L 628 4666 
z
" transform="scale(0.015625)"/>
       </defs>
       <use xlink:href="#DejaVuSans-53"/>
       <use xlink:href="#DejaVuSans-44" transform="translate(63.476562 0)"/>
       <use xlink:href="#DejaVuSans-53" transform="translate(140.478516 0)"/>
      </g>
     </g>
    </g>
    <g id="xtick_40">
     <g id="line2d_40">
      <g>
       <use xlink:href="#m6197c6bdcc" x="567.718903" y="186.8145" style="stroke: #000000; stroke-width: 0.8"/>
      </g>
     </g>
     <g id="text_40">
      <!-- AST -->
      <g transform="translate(564.308991 207.127) rotate(-45) scale(0.07 -0.07)">
       <use xlink:href="#DejaVuSans-41"/>
       <use xlink:href="#DejaVuSans-53" transform="translate(68.408203 0)"/>
       <use xlink:href="#DejaVuSans-54" transform="translate(131.884766 0)"/>
      </g>
     </g>
    </g>
    <g id="text_41">
     <!-- Department -->
     <g transform="translate(294.975758 220.555337) scale(0.08 -0.08)">
      <defs>
       <path id="DejaVuSans-65" d="M 3597 1894 
L 3597 1613 
L 953 1613 
Q 991 1019 1311 708 
Q 1631 397 2203 397 
Q 2534 397 2845 478 
Q 3156 559 3463 722 
L 3463 178 
Q 3153 47 2828 -22 
Q 2503 -91 2169 -91 
Q 1331 -91 842 396 
Q 353 884 353 1716 
Q 353 2575 817 3079 
Q 1281 3584 2069 3584 
Q 2775 3584 3186 3129 
Q 3597 2675 3597 1894 
z
M 3022 2063 
Q 3016 2534 2758 2815 
Q 2500 3097 2075 3097 
Q 1594 3097 1305 2825 
Q 1016 2553 972 2059 
L 3022 2063 
z
" transform="scale(0.015625)"/>
       <path id="DejaVuSans-70" d="M 1159 525 
L 1159 -1331 
L 581 -1331 
L 581 3500 
L 1159 3500 
L 1159 2969 
Q 1341 3281 1617 3432 
Q 1894 3584 2278 3584 
Q 2916 3584 3314 3078 
Q 3713 2572 3713 1747 
Q 3713 922 3314 415 
Q 2916 -91 2278 -91 
Q 1894 -91 1617 61 
Q 1341 213 1159 525 
z
M 3116 1747 
Q 3116 2381 2855 2742 
Q 2594 3103 2138 3103 
Q 1681 3103 1420 2742 
Q 1159 2381 1159 1747 
Q 1159 1113 1420 752 
Q 1681 391 2138 391 
Q 2594 391 2855 752 
Q 3116 1113 3116 1747 
z
" transform="scale(0.015625)"/>
       <path id="DejaVuSans-61" d="M 2194 1759 
Q 1497 1759 1228 1600 
Q 959 1441 959 1056 
Q 959 750 1161 570 
Q 1363 391 1709 391 
Q 2188 391 2477 730 
Q 2766 1069 2766 1631 
L 2766 1759 
L 2194 1759 
z
M 3341 1997 
L 3341 0 
L 2766 0 
L 2766 531 
Q 2569 213 2275 61 
Q 1981 -91 1556 -91 
Q 1019 -91 701 211 
Q 384 513 384 1019 
Q 384 1609 779 1909 
Q 1175 2209 1959 2209 
L 2766 2209 
L 2766 2266 
Q 2766 2663 2505 2880 
Q 2244 3097 1772 3097 
Q 1472 3097 1187 3025 
Q 903 2953 641 2809 
L 641 3341 
Q 956 3463 1253 3523 
Q 1550 3584 1831 3584 
Q 2591 3584 2966 3190 
Q 3341 2797 3341 1997 
z
" transform="scale(0.015625)"/>
       <path id="DejaVuSans-72" d="M 2631 2963 
Q 2534 3019 2420 3045 
Q 2306 3072 2169 3072 
Q 1681 3072 1420 2755 
Q 1159 2438 1159 1844 
L 1159 0 
L 581 0 
L 581 3500 
L 1159 3500 
L 1159 2956 
Q 1341 3275 1631 3429 
Q 1922 3584 2338 3584 
Q 2397 3584 2469 3576 
Q 2541 3569 2628 3553 
L 2631 2963 
z
" transform="scale(0.015625)"/>
       <path id="DejaVuSans-74" d="M 1172 4494 
L 1172 3500 
L 2356 3500 
L 2356 3053 
L 1172 3053 
L 1172 1153 
Q 1172 725 1289 603 
Q 1406 481 1766 481 
L 2356 481 
L 2356 0 
L 1766 0 
Q 1100 0 847 248 
Q 594 497 594 1153 
L 594 3053 
L 172 3053 
L 172 3500 
L 594 3500 
L 594 4494 
L 1172 4494 
z
" transform="scale(0.015625)"/>
       <path id="DejaVuSans-6d" d="M 3328 2828 
Q 3544 3216 3844 3400 
Q 4144 3584 4550 3584 
Q 5097 3584 5394 3201 
Q 5691 2819 5691 2113 
L 5691 0 
L 5113 0 
L 5113 2094 
Q 5113 2597 4934 2840 
Q 4756 3084 4391 3084 
Q 3944 3084 3684 2787 
Q 3425 2491 3425 1978 
L 3425 0 
L 2847 0 
L 2847 2094 
Q 2847 2600 2669 2842 
Q 2491 3084 2119 3084 
Q 1678 3084 1418 2786 
Q 1159 2488 1159 1978 
L 1159 0 
L 581 0 
L 581 3500 
L 1159 3500 
L 1159 2956 
Q 1356 3278 1631 3431 
Q 1906 3584 2284 3584 
Q 2666 3584 2933 3390 
Q 3200 3197 3328 2828 
z
" transform="scale(0.015625)"/>
       <path id="DejaVuSans-6e" d="M 3513 2113 
L 3513 0 
L 2938 0 
L 2938 2094 
Q 2938 2591 2744 2837 
Q 2550 3084 2163 3084 
Q 1697 3084 1428 2787 
Q 1159 2491 1159 1978 
L 1159 0 
L 581 0 
L 581 3500 
L 1159 3500 
L 1159 2956 
Q 1366 3272 1645 3428 
Q 1925 3584 2291 3584 
Q 2894 3584 3203 3211 
Q 3513 2838 3513 2113 
z
" transform="scale(0.015625)"/>
      </defs>
      <use xlink:href="#DejaVuSans-44"/>
      <use xlink:href="#DejaVuSans-65" transform="translate(77.001953 0)"/>
      <use xlink:href="#DejaVuSans-70" transform="translate(138.525391 0)"/>
      <use xlink:href="#DejaVuSans-61" transform="translate(202.001953 0)"/>
      <use xlink:href="#DejaVuSans-72" transform="translate(263.28125 0)"/>
      <use xlink:href="#DejaVuSans-74" transform="translate(304.394531 0)"/>
      <use xlink:href="#DejaVuSans-6d" transform="translate(343.603516 0)"/>
      <use xlink:href="#DejaVuSans-65" transform="translate(441.015625 0)"/>
      <use xlink:href="#DejaVuSans-6e" transform="translate(502.539062 0)"/>
      <use xlink:href="#DejaVuSans-74" transform="translate(565.917969 0)"/>
     </g>
    </g>
   </g>
   <g id="matplotlib.axis_2">
    <g id="ytick_1">
     <g id="line2d_41">
      <defs>
       <path id="m07d23a4799" d="M 0 0 
L -3.5 0 
" style="stroke: #000000; stroke-width: 0.8"/>
      </defs>
      <g>
       <use xlink:href="#m07d23a4799" x="40.180758" y="186.8145" style="stroke: #000000; stroke-width: 0.8"/>
      </g>
     </g>
     <g id="text_42">
      <!-- 0 -->
      <g transform="translate(29.002088 191.065358) rotate(-45) scale(0.07 -0.07)">
       <defs>
        <path id="DejaVuSans-30" d="M 2034 4250 
Q 1547 4250 1301 3770 
Q 1056 3291 1056 2328 
Q 1056 1369 1301 889 
Q 1547 409 2034 409 
Q 2525 409 2770 889 
Q 3016 1369 3016 2328 
Q 3016 3291 2770 3770 
Q 2525 4250 2034 4250 
z
M 2034 4750 
Q 2819 4750 3233 4129 
Q 3647 3509 3647 2328 
Q 3647 1150 3233 529 
Q 2819 -91 2034 -91 
Q 1250 -91 836 529 
Q 422 1150 422 2328 
Q 422 3509 836 4129 
Q 1250 4750 2034 4750 
z
" transform="scale(0.015625)"/>
       </defs>
       <use xlink:href="#DejaVuSans-30"/>
      </g>
     </g>
    </g>
    <g id="ytick_2">
     <g id="line2d_42">
      <g>
       <use xlink:href="#m07d23a4799" x="40.180758" y="153.676425" style="stroke: #000000; stroke-width: 0.8"/>
      </g>
     </g>
     <g id="text_43">
      <!-- 50 -->
      <g transform="translate(25.852812 161.07656) rotate(-45) scale(0.07 -0.07)">
       <defs>
        <path id="DejaVuSans-35" d="M 691 4666 
L 3169 4666 
L 3169 4134 
L 1269 4134 
L 1269 2991 
Q 1406 3038 1543 3061 
Q 1681 3084 1819 3084 
Q 2600 3084 3056 2656 
Q 3513 2228 3513 1497 
Q 3513 744 3044 326 
Q 2575 -91 1722 -91 
Q 1428 -91 1123 -41 
Q 819 9 494 109 
L 494 744 
Q 775 591 1075 516 
Q 1375 441 1709 441 
Q 2250 441 2565 725 
Q 2881 1009 2881 1497 
Q 2881 1984 2565 2268 
Q 2250 2553 1709 2553 
Q 1456 2553 1204 2497 
Q 953 2441 691 2322 
L 691 4666 
z
" transform="scale(0.015625)"/>
       </defs>
       <use xlink:href="#DejaVuSans-35"/>
       <use xlink:href="#DejaVuSans-30" transform="translate(63.623047 0)"/>
      </g>
     </g>
    </g>
    <g id="ytick_3">
     <g id="line2d_43">
      <g>
       <use xlink:href="#m07d23a4799" x="40.180758" y="120.538349" style="stroke: #000000; stroke-width: 0.8"/>
      </g>
     </g>
     <g id="text_44">
      <!-- 100 -->
      <g transform="translate(22.703535 131.087761) rotate(-45) scale(0.07 -0.07)">
       <defs>
        <path id="DejaVuSans-31" d="M 794 531 
L 1825 531 
L 1825 4091 
L 703 3866 
L 703 4441 
L 1819 4666 
L 2450 4666 
L 2450 531 
L 3481 531 
L 3481 0 
L 794 0 
L 794 531 
z
" transform="scale(0.015625)"/>
       </defs>
       <use xlink:href="#DejaVuSans-31"/>
       <use xlink:href="#DejaVuSans-30" transform="translate(63.623047 0)"/>
       <use xlink:href="#DejaVuSans-30" transform="translate(127.246094 0)"/>
      </g>
     </g>
    </g>
    <g id="ytick_4">
     <g id="line2d_44">
      <g>
       <use xlink:href="#m07d23a4799" x="40.180758" y="87.400274" style="stroke: #000000; stroke-width: 0.8"/>
      </g>
     </g>
     <g id="text_45">
      <!-- 150 -->
      <g transform="translate(22.703535 97.949686) rotate(-45) scale(0.07 -0.07)">
       <use xlink:href="#DejaVuSans-31"/>
       <use xlink:href="#DejaVuSans-35" transform="translate(63.623047 0)"/>
       <use xlink:href="#DejaVuSans-30" transform="translate(127.246094 0)"/>
      </g>
     </g>
    </g>
    <g id="ytick_5">
     <g id="line2d_45">
      <g>
       <use xlink:href="#m07d23a4799" x="40.180758" y="54.262199" style="stroke: #000000; stroke-width: 0.8"/>
      </g>
     </g>
     <g id="text_46">
      <!-- 200 -->
      <g transform="translate(22.703535 64.811611) rotate(-45) scale(0.07 -0.07)">
       <defs>
        <path id="DejaVuSans-32" d="M 1228 531 
L 3431 531 
L 3431 0 
L 469 0 
L 469 531 
Q 828 903 1448 1529 
Q 2069 2156 2228 2338 
Q 2531 2678 2651 2914 
Q 2772 3150 2772 3378 
Q 2772 3750 2511 3984 
Q 2250 4219 1831 4219 
Q 1534 4219 1204 4116 
Q 875 4013 500 3803 
L 500 4441 
Q 881 4594 1212 4672 
Q 1544 4750 1819 4750 
Q 2544 4750 2975 4387 
Q 3406 4025 3406 3419 
Q 3406 3131 3298 2873 
Q 3191 2616 2906 2266 
Q 2828 2175 2409 1742 
Q 1991 1309 1228 531 
z
" transform="scale(0.015625)"/>
       </defs>
       <use xlink:href="#DejaVuSans-32"/>
       <use xlink:href="#DejaVuSans-30" transform="translate(63.623047 0)"/>
       <use xlink:href="#DejaVuSans-30" transform="translate(127.246094 0)"/>
      </g>
     </g>
    </g>
    <g id="ytick_6">
     <g id="line2d_46">
      <g>
       <use xlink:href="#m07d23a4799" x="40.180758" y="21.124123" style="stroke: #000000; stroke-width: 0.8"/>
      </g>
     </g>
     <g id="text_47">
      <!-- 250 -->
      <g transform="translate(22.703535 31.673535) rotate(-45) scale(0.07 -0.07)">
       <use xlink:href="#DejaVuSans-32"/>
       <use xlink:href="#DejaVuSans-35" transform="translate(63.623047 0)"/>
       <use xlink:href="#DejaVuSans-30" transform="translate(127.246094 0)"/>
      </g>
     </g>
    </g>
    <g id="text_48">
     <!-- Courses -->
     <g transform="translate(13.27875 119.70325) rotate(-90) scale(0.08 -0.08)">
      <defs>
       <path id="DejaVuSans-6f" d="M 1959 3097 
Q 1497 3097 1228 2736 
Q 959 2375 959 1747 
Q 959 1119 1226 758 
Q 1494 397 1959 397 
Q 2419 397 2687 759 
Q 2956 1122 2956 1747 
Q 2956 2369 2687 2733 
Q 2419 3097 1959 3097 
z
M 1959 3584 
Q 2709 3584 3137 3096 
Q 3566 2609 3566 1747 
Q 3566 888 3137 398 
Q 2709 -91 1959 -91 
Q 1206 -91 779 398 
Q 353 888 353 1747 
Q 353 2609 779 3096 
Q 1206 3584 1959 3584 
z
" transform="scale(0.015625)"/>
       <path id="DejaVuSans-75" d="M 544 1381 
L 544 3500 
L 1119 3500 
L 1119 1403 
Q 1119 906 1312 657 
Q 1506 409 1894 409 
Q 2359 409 2629 706 
Q 2900 1003 2900 1516 
L 2900 3500 
L 3475 3500 
L 3475 0 
L 2900 0 
L 2900 538 
Q 2691 219 2414 64 
Q 2138 -91 1772 -91 
Q 1169 -91 856 284 
Q 544 659 544 1381 
z
M 1991 3584 
L 1991 3584 
z
" transform="scale(0.015625)"/>
       <path id="DejaVuSans-73" d="M 2834 3397 
L 2834 2853 
Q 2591 2978 2328 3040 
Q 2066 3103 1784 3103 
Q 1356 3103 1142 2972 
Q 928 2841 928 2578 
Q 928 2378 1081 2264 
Q 1234 2150 1697 2047 
L 1894 2003 
Q 2506 1872 2764 1633 
Q 3022 1394 3022 966 
Q 3022 478 2636 193 
Q 2250 -91 1575 -91 
Q 1294 -91 989 -36 
Q 684 19 347 128 
L 347 722 
Q 666 556 975 473 
Q 1284 391 1588 391 
Q 1994 391 2212 530 
Q 2431 669 2431 922 
Q 2431 1156 2273 1281 
Q 2116 1406 1581 1522 
L 1381 1569 
Q 847 1681 609 1914 
Q 372 2147 372 2553 
Q 372 3047 722 3315 
Q 1072 3584 1716 3584 
Q 2034 3584 2315 3537 
Q 2597 3491 2834 3397 
z
" transform="scale(0.015625)"/>
      </defs>
      <use xlink:href="#DejaVuSans-43"/>
      <use xlink:href="#DejaVuSans-6f" transform="translate(69.824219 0)"/>
      <use xlink:href="#DejaVuSans-75" transform="translate(131.005859 0)"/>
      <use xlink:href="#DejaVuSans-72" transform="translate(194.384766 0)"/>
      <use xlink:href="#DejaVuSans-73" transform="translate(235.498047 0)"/>
      <use xlink:href="#DejaVuSans-65" transform="translate(287.597656 0)"/>
      <use xlink:href="#DejaVuSans-73" transform="translate(349.121094 0)"/>
     </g>
    </g>
   </g>
   <g id="patch_163">
    <path d="M 40.180758 186.8145 
L 40.180758 20.4945 
" style="fill: none; stroke: #000000; stroke-width: 0.8; stroke-linejoin: miter; stroke-linecap: square"/>
   </g>
   <g id="patch_164">
    <path d="M 598.180758 186.8145 
L 598.180758 20.4945 
" style="fill: none; stroke: #000000; stroke-width: 0.8; stroke-linejoin: miter; stroke-linecap: square"/>
   </g>
   <g id="patch_165">
    <path d="M 40.180758 186.8145 
L 598.180758 186.8145 
" style="fill: none; stroke: #000000; stroke-width: 0.8; stroke-linejoin: miter; stroke-linecap: square"/>
   </g>
   <g id="patch_166">
    <path d="M 40.180758 20.4945 
L 598.180758 20.4945 
" style="fill: none; stroke: #000000; stroke-width: 0.8; stroke-linejoin: miter; stroke-linecap: square"/>
   </g>
   <g id="text_49">
    <!-- Departments with most ArtSci courses (40/73 shown) -->
    <g transform="translate(190.573758 14.4945) scale(0.096 -0.096)">
     <defs>
      <path id="DejaVuSans-20" transform="scale(0.015625)"/>
      <path id="DejaVuSans-77" d="M 269 3500 
L 844 3500 
L 1563 769 
L 2278 3500 
L 2956 3500 
L 3675 769 
L 4391 3500 
L 4966 3500 
L 4050 0 
L 3372 0 
L 2619 2869 
L 1863 0 
L 1184 0 
L 269 3500 
z
" transform="scale(0.015625)"/>
      <path id="DejaVuSans-69" d="M 603 3500 
L 1178 3500 
L 1178 0 
L 603 0 
L 603 3500 
z
M 603 4863 
L 1178 4863 
L 1178 4134 
L 603 4134 
L 603 4863 
z
" transform="scale(0.015625)"/>
      <path id="DejaVuSans-68" d="M 3513 2113 
L 3513 0 
L 2938 0 
L 2938 2094 
Q 2938 2591 2744 2837 
Q 2550 3084 2163 3084 
Q 1697 3084 1428 2787 
Q 1159 2491 1159 1978 
L 1159 0 
L 581 0 
L 581 4863 
L 1159 4863 
L 1159 2956 
Q 1366 3272 1645 3428 
Q 1925 3584 2291 3584 
Q 2894 3584 3203 3211 
Q 3513 2838 3513 2113 
z
" transform="scale(0.015625)"/>
      <path id="DejaVuSans-63" d="M 3122 3366 
L 3122 2828 
Q 2878 2963 2633 3030 
Q 2388 3097 2138 3097 
Q 1578 3097 1268 2742 
Q 959 2388 959 1747 
Q 959 1106 1268 751 
Q 1578 397 2138 397 
Q 2388 397 2633 464 
Q 2878 531 3122 666 
L 3122 134 
Q 2881 22 2623 -34 
Q 2366 -91 2075 -91 
Q 1284 -91 818 406 
Q 353 903 353 1747 
Q 353 2603 823 3093 
Q 1294 3584 2113 3584 
Q 2378 3584 2631 3529 
Q 2884 3475 3122 3366 
z
" transform="scale(0.015625)"/>
      <path id="DejaVuSans-28" d="M 1984 4856 
Q 1566 4138 1362 3434 
Q 1159 2731 1159 2009 
Q 1159 1288 1364 580 
Q 1569 -128 1984 -844 
L 1484 -844 
Q 1016 -109 783 600 
Q 550 1309 550 2009 
Q 550 2706 781 3412 
Q 1013 4119 1484 4856 
L 1984 4856 
z
" transform="scale(0.015625)"/>
      <path id="DejaVuSans-34" d="M 2419 4116 
L 825 1625 
L 2419 1625 
L 2419 4116 
z
M 2253 4666 
L 3047 4666 
L 3047 1625 
L 3713 1625 
L 3713 1100 
L 3047 1100 
L 3047 0 
L 2419 0 
L 2419 1100 
L 313 1100 
L 313 1709 
L 2253 4666 
z
" transform="scale(0.015625)"/>
      <path id="DejaVuSans-2f" d="M 1625 4666 
L 2156 4666 
L 531 -594 
L 0 -594 
L 1625 4666 
z
" transform="scale(0.015625)"/>
      <path id="DejaVuSans-37" d="M 525 4666 
L 3525 4666 
L 3525 4397 
L 1831 0 
L 1172 0 
L 2766 4134 
L 525 4134 
L 525 4666 
z
" transform="scale(0.015625)"/>
      <path id="DejaVuSans-33" d="M 2597 2516 
Q 3050 2419 3304 2112 
Q 3559 1806 3559 1356 
Q 3559 666 3084 287 
Q 2609 -91 1734 -91 
Q 1441 -91 1130 -33 
Q 819 25 488 141 
L 488 750 
Q 750 597 1062 519 
Q 1375 441 1716 441 
Q 2309 441 2620 675 
Q 2931 909 2931 1356 
Q 2931 1769 2642 2001 
Q 2353 2234 1838 2234 
L 1294 2234 
L 1294 2753 
L 1863 2753 
Q 2328 2753 2575 2939 
Q 2822 3125 2822 3475 
Q 2822 3834 2567 4026 
Q 2313 4219 1838 4219 
Q 1578 4219 1281 4162 
Q 984 4106 628 3988 
L 628 4550 
Q 988 4650 1302 4700 
Q 1616 4750 1894 4750 
Q 2613 4750 3031 4423 
Q 3450 4097 3450 3541 
Q 3450 3153 3228 2886 
Q 3006 2619 2597 2516 
z
" transform="scale(0.015625)"/>
      <path id="DejaVuSans-29" d="M 513 4856 
L 1013 4856 
Q 1481 4119 1714 3412 
Q 1947 2706 1947 2009 
Q 1947 1309 1714 600 
Q 1481 -109 1013 -844 
L 513 -844 
Q 928 -128 1133 580 
Q 1338 1288 1338 2009 
Q 1338 2731 1133 3434 
Q 928 4138 513 4856 
z
" transform="scale(0.015625)"/>
     </defs>
     <use xlink:href="#DejaVuSans-44"/>
     <use xlink:href="#DejaVuSans-65" transform="translate(77.001953 0)"/>
     <use xlink:href="#DejaVuSans-70" transform="translate(138.525391 0)"/>
     <use xlink:href="#DejaVuSans-61" transform="translate(202.001953 0)"/>
     <use xlink:href="#DejaVuSans-72" transform="translate(263.28125 0)"/>
     <use xlink:href="#DejaVuSans-74" transform="translate(304.394531 0)"/>
     <use xlink:href="#DejaVuSans-6d" transform="translate(343.603516 0)"/>
     <use xlink:href="#DejaVuSans-65" transform="translate(441.015625 0)"/>
     <use xlink:href="#DejaVuSans-6e" transform="translate(502.539062 0)"/>
     <use xlink:href="#DejaVuSans-74" transform="translate(565.917969 0)"/>
     <use xlink:href="#DejaVuSans-73" transform="translate(605.126953 0)"/>
     <use xlink:href="#DejaVuSans-20" transform="translate(657.226562 0)"/>
     <use xlink:href="#DejaVuSans-77" transform="translate(689.013672 0)"/>
     <use xlink:href="#DejaVuSans-69" transform="translate(770.800781 0)"/>
     <use xlink:href="#DejaVuSans-74" transform="translate(798.583984 0)"/>
     <use xlink:href="#DejaVuSans-68" transform="translate(837.792969 0)"/>
     <use xlink:href="#DejaVuSans-20" transform="translate(901.171875 0)"/>
     <use xlink:href="#DejaVuSans-6d" transform="translate(932.958984 0)"/>
     <use xlink:href="#DejaVuSans-6f" transform="translate(1030.371094 0)"/>
     <use xlink:href="#DejaVuSans-73" transform="translate(1091.552734 0)"/>
     <use xlink:href="#DejaVuSans-74" transform="translate(1143.652344 0)"/>
     <use xlink:href="#DejaVuSans-20" transform="translate(1182.861328 0)"/>
     <use xlink:href="#DejaVuSans-41" transform="translate(1214.648438 0)"/>
     <use xlink:href="#DejaVuSans-72" transform="translate(1283.056641 0)"/>
     <use xlink:href="#DejaVuSans-74" transform="translate(1324.169922 0)"/>
     <use xlink:href="#DejaVuSans-53" transform="translate(1363.378906 0)"/>
     <use xlink:href="#DejaVuSans-63" transform="translate(1426.855469 0)"/>
     <use xlink:href="#DejaVuSans-69" transform="translate(1481.835938 0)"/>
     <use xlink:href="#DejaVuSans-20" transform="translate(1509.619141 0)"/>
     <use xlink:href="#DejaVuSans-63" transform="translate(1541.40625 0)"/>
     <use xlink:href="#DejaVuSans-6f" transform="translate(1596.386719 0)"/>
     <use xlink:href="#DejaVuSans-75" transform="translate(1657.568359 0)"/>
     <use xlink:href="#DejaVuSans-72" transform="translate(1720.947266 0)"/>
     <use xlink:href="#DejaVuSans-73" transform="translate(1762.060547 0)"/>
     <use xlink:href="#DejaVuSans-65" transform="translate(1814.160156 0)"/>
     <use xlink:href="#DejaVuSans-73" transform="translate(1875.683594 0)"/>
     <use xlink:href="#DejaVuSans-20" transform="translate(1927.783203 0)"/>
     <use xlink:href="#DejaVuSans-28" transform="translate(1959.570312 0)"/>
     <use xlink:href="#DejaVuSans-34" transform="translate(1998.583984 0)"/>
     <use xlink:href="#DejaVuSans-30" transform="translate(2062.207031 0)"/>
     <use xlink:href="#DejaVuSans-2f" transform="translate(2125.830078 0)"/>
     <use xlink:href="#DejaVuSans-37" transform="translate(2159.521484 0)"/>
     <use xlink:href="#DejaVuSans-33" transform="translate(2223.144531 0)"/>
     <use xlink:href="#DejaVuSans-20" transform="translate(2286.767578 0)"/>
     <use xlink:href="#DejaVuSans-73" transform="translate(2318.554688 0)"/>
     <use xlink:href="#DejaVuSans-68" transform="translate(2370.654297 0)"/>
     <use xlink:href="#DejaVuSans-6f" transform="translate(2434.033203 0)"/>
     <use xlink:href="#DejaVuSans-77" transform="translate(2495.214844 0)"/>
     <use xlink:href="#DejaVuSans-6e" transform="translate(2577.001953 0)"/>
     <use xlink:href="#DejaVuSans-29" transform="translate(2640.380859 0)"/>
    </g>
   </g>
   <g id="legend_1">
    <g id="patch_167">
     <path d="M 520.438258 73.8645 
L 592.580758 73.8645 
Q 594.180758 73.8645 594.180758 72.2645 
L 594.180758 26.0945 
Q 594.180758 24.4945 592.580758 24.4945 
L 520.438258 24.4945 
Q 518.838258 24.4945 518.838258 26.0945 
L 518.838258 72.2645 
Q 518.838258 73.8645 520.438258 73.8645 
z
" style="fill: #ffffff; opacity: 0.8; stroke: #cccccc; stroke-linejoin: miter"/>
    </g>
    <g id="patch_168">
     <path d="M 522.038258 33.77325 
L 538.038258 33.77325 
L 538.038258 28.17325 
L 522.038258 28.17325 
z
" style="fill: #1f77b4"/>
    </g>
    <g id="text_50">
     <!-- 1** courses -->
     <g transform="translate(544.438258 33.77325) scale(0.08 -0.08)">
      <defs>
       <path id="DejaVuSans-2a" d="M 3009 3897 
L 1888 3291 
L 3009 2681 
L 2828 2375 
L 1778 3009 
L 1778 1831 
L 1422 1831 
L 1422 3009 
L 372 2375 
L 191 2681 
L 1313 3291 
L 191 3897 
L 372 4206 
L 1422 3572 
L 1422 4750 
L 1778 4750 
L 1778 3572 
L 2828 4206 
L 3009 3897 
z
" transform="scale(0.015625)"/>
      </defs>
      <use xlink:href="#DejaVuSans-31"/>
      <use xlink:href="#DejaVuSans-2a" transform="translate(63.623047 0)"/>
      <use xlink:href="#DejaVuSans-2a" transform="translate(113.623047 0)"/>
      <use xlink:href="#DejaVuSans-20" transform="translate(163.623047 0)"/>
      <use xlink:href="#DejaVuSans-63" transform="translate(195.410156 0)"/>
      <use xlink:href="#DejaVuSans-6f" transform="translate(250.390625 0)"/>
      <use xlink:href="#DejaVuSans-75" transform="translate(311.572266 0)"/>
      <use xlink:href="#DejaVuSans-72" transform="translate(374.951172 0)"/>
      <use xlink:href="#DejaVuSans-73" transform="translate(416.064453 0)"/>
      <use xlink:href="#DejaVuSans-65" transform="translate(468.164062 0)"/>
      <use xlink:href="#DejaVuSans-73" transform="translate(529.6875 0)"/>
     </g>
    </g>
    <g id="patch_169">
     <path d="M 522.038258 45.51575 
L 538.038258 45.51575 
L 538.038258 39.91575 
L 522.038258 39.91575 
z
" style="fill: #ff7f0e"/>
    </g>
    <g id="text_51">
     <!-- 2** courses -->
     <g transform="translate(544.438258 45.51575) scale(0.08 -0.08)">
      <use xlink:href="#DejaVuSans-32"/>
      <use xlink:href="#DejaVuSans-2a" transform="translate(63.623047 0)"/>
      <use xlink:href="#DejaVuSans-2a" transform="translate(113.623047 0)"/>
      <use xlink:href="#DejaVuSans-20" transform="translate(163.623047 0)"/>
      <use xlink:href="#DejaVuSans-63" transform="translate(195.410156 0)"/>
      <use xlink:href="#DejaVuSans-6f" transform="translate(250.390625 0)"/>
      <use xlink:href="#DejaVuSans-75" transform="translate(311.572266 0)"/>
      <use xlink:href="#DejaVuSans-72" transform="translate(374.951172 0)"/>
      <use xlink:href="#DejaVuSans-73" transform="translate(416.064453 0)"/>
      <use xlink:href="#DejaVuSans-65" transform="translate(468.164062 0)"/>
      <use xlink:href="#DejaVuSans-73" transform="translate(529.6875 0)"/>
     </g>
    </g>
    <g id="patch_170">
     <path d="M 522.038258 57.25825 
L 538.038258 57.25825 
L 538.038258 51.65825 
L 522.038258 51.65825 
z
" style="fill: #2ca02c"/>
    </g>
    <g id="text_52">
     <!-- 3** courses -->
     <g transform="translate(544.438258 57.25825) scale(0.08 -0.08)">
      <use xlink:href="#DejaVuSans-33"/>
      <use xlink:href="#DejaVuSans-2a" transform="translate(63.623047 0)"/>
      <use xlink:href="#DejaVuSans-2a" transform="translate(113.623047 0)"/>
      <use xlink:href="#DejaVuSans-20" transform="translate(163.623047 0)"/>
      <use xlink:href="#DejaVuSans-63" transform="translate(195.410156 0)"/>
      <use xlink:href="#DejaVuSans-6f" transform="translate(250.390625 0)"/>
      <use xlink:href="#DejaVuSans-75" transform="translate(311.572266 0)"/>
      <use xlink:href="#DejaVuSans-72" transform="translate(374.951172 0)"/>
      <use xlink:href="#DejaVuSans-73" transform="translate(416.064453 0)"/>
      <use xlink:href="#DejaVuSans-65" transform="translate(468.164062 0)"/>
      <use xlink:href="#DejaVuSans-73" transform="translate(529.6875 0)"/>
     </g>
    </g>
    <g id="patch_171">
     <path d="M 522.038258 69.00075 
L 538.038258 69.00075 
L 538.038258 63.40075 
L 522.038258 63.40075 
z
" style="fill: #d62728"/>
    </g>
    <g id="text_53">
     <!-- 4** courses -->
     <g transform="translate(544.438258 69.00075) scale(0.08 -0.08)">
      <use xlink:href="#DejaVuSans-34"/>
      <use xlink:href="#DejaVuSans-2a" transform="translate(63.623047 0)"/>
      <use xlink:href="#DejaVuSans-2a" transform="translate(113.623047 0)"/>
      <use xlink:href="#DejaVuSans-20" transform="translate(163.623047 0)"/>
      <use xlink:href="#DejaVuSans-63" transform="translate(195.410156 0)"/>
      <use xlink:href="#DejaVuSans-6f" transform="translate(250.390625 0)"/>
      <use xlink:href="#DejaVuSans-75" transform="translate(311.572266 0)"/>
      <use xlink:href="#DejaVuSans-72" transform="translate(374.951172 0)"/>
      <use xlink:href="#DejaVuSans-73" transform="translate(416.064453 0)"/>
      <use xlink:href="#DejaVuSans-65" transform="translate(468.164062 0)"/>
      <use xlink:href="#DejaVuSans-73" transform="translate(529.6875 0)"/>
     </g>
    </g>
   </g>
  </g>
 </g>
 <defs>
  <clipPath id="p29c779437c">
   <rect x="40.180758" y="20.4945" width="558" height="166.32"/>
  </clipPath>
 </defs>
</svg>
